<?xml version="1.0" encoding="UTF-8" standalone="no"?>
<svg
   version="1.1"
   width="820px"
   height="1210px"
   style="shape-rendering:geometricPrecision; text-rendering:geometricPrecision; image-rendering:optimizeQuality; fill-rule:evenodd; clip-rule:evenodd"
   id="svg54"
   sodipodi:docname="a.svg"
   inkscape:version="1.2.1 (0f2f062aeb, 2022-09-21, custom)"
   xmlns:inkscape="http://www.inkscape.org/namespaces/inkscape"
   xmlns:sodipodi="http://sodipodi.sourceforge.net/DTD/sodipodi-0.dtd"
   xmlns="http://www.w3.org/2000/svg"
   xmlns:svg="http://www.w3.org/2000/svg">
  <defs
     id="defs58" />
  <sodipodi:namedview
     id="namedview56"
     pagecolor="#ffffff"
     bordercolor="#000000"
     borderopacity="0.25"
     inkscape:showpageshadow="2"
     inkscape:pageopacity="0.0"
     inkscape:pagecheckerboard="0"
     inkscape:deskcolor="#d1d1d1"
     showgrid="false"
     inkscape:zoom="0.35041323"
     inkscape:cx="-1463.9858"
     inkscape:cy="607.85376"
     inkscape:window-width="1920"
     inkscape:window-height="1014"
     inkscape:window-x="0"
     inkscape:window-y="30"
     inkscape:window-maximized="1"
     inkscape:current-layer="svg54" />
  <g
     id="g24"
     transform="matrix(0.5901404,0,0,0.55369948,209.64055,339.22035)">
    <path
       style="opacity:1"
       fill="#000000"
       d="m 819.5,1109.5 v 31 c -9.681,41.2 -35.681,63.87 -78,68 -36.31,-2.89 -61.143,-21.23 -74.5,-55 -2.423,-9.9 -4.256,-19.9 -5.5,-30 -2.739,-8.64 -6.406,-16.81 -11,-24.5 -7.101,-27.41 -15.434,-54.41 -25,-81 -4.837,-0.47 -9.67,-0.97 -14.5,-1.5 -19.839,0.05 -39.673,0.05 -59.5,0 -5.036,0.55 -10.036,1.21 -15,2 -9.992,-2.54 -19.992,-2.54 -30,0 -4.819,-0.69 -9.652,-1.36 -14.5,-2 -9.671,2.61 -19.338,2.61 -29,0 -4.908,1.32 -9.908,1.98 -15,2 -63.515,-0.38 -127.015,-0.38 -190.5,0 -9.835,0.5 -19.835,0.5 -30,0 -0.417,-0.62 -1.084,-0.96 -2,-1 -10.004,2.61 -20.004,2.61 -30,0 -9.884,2.6 -19.717,2.6 -29.5,0 -8.573,28.57 -26.406,49.07 -53.5,61.5 -36.1498,11.67 -67.3165,3.84 -93.5,-23.5 -9.47205,-11.94 -15.97205,-25.28 -19.5,-40 v -33 c 1.83165,-6.325 3.99832,-12.659 6.5,-19 3.77424,-6.779 7.1076,-13.779 10,-21 2.6801,-13.725 7.3468,-26.725 14,-39 46.3748,-132.111 93.375,-264.111 141,-396 43.55,-125.318 76.61524,-175.8183 121.73224,-300.5003 3.608,-11.323 11.57589,-23.61384 21.76776,-28.49175 54.431,0.064 107.931,0.064 160.5,0 l 20,2 c 94.991,295.32 189.991,510.64605 285,805.99205 0.921,5.432 2.255,10.765 4,16 11.97,35.74 23.803,71.41 35.5,107 z"
       id="path22"
       sodipodi:nodetypes="cccccccccccccccccccccccccccccccccc" />
  </g>
  <g
     id="g28"
     transform="matrix(0.5901404,0,0,0.51629867,209.64055,332.55438)">
    <path
       style="opacity:1"
       fill="#fefefe"
       d="m 430.5,356.5 c 0.557,4.665 1.89,8.998 4,13 16.906,54.059 33.239,108.393 49,163 0.557,4.665 1.89,8.998 4,13 9.986,32.916 20.153,65.916 30.5,99 0.497,2.31 0.663,4.643 0.5,7 -81,-0.256 -162,-0.589 -243,-1 0,-1 0,-2 0,-3 37.436,-113.669 74.936,-227.336 112.5,-341 9,-1.333 18,-1.333 27,0 5.478,16.581 10.645,33.248 15.5,50 z"
       id="path26" />
  </g>
  <g
     id="g44"
     transform="matrix(0.5901404,0,0,0.60941332,208.11356,288.6883)">
    <path
       style="opacity:1;stroke-width:1.41512"
       fill="#fdfdfd"
       d="m 225.5,742.33638 c 112.338,0.55871 224.671,2.22885 337,5.00639 2.574,14.26822 5.074,28.61854 7.5,43.05497 3.361,26.83426 6.695,53.53434 10,80.10226 -9.453,-5.29676 -18.953,-5.29676 -28.5,0 -10.158,-5.18262 -20.324,-5.18262 -30.5,0 -4.864,-1.15748 -9.698,-2.49118 -14.5,-4.00511 -4.802,1.51393 -9.636,2.84763 -14.5,4.00511 -95.862,-0.97525 -191.362,-0.97525 -286.5,0 6.473,-42.89276 13.14,-85.6133 20,-128.16362 z"
       id="path42" />
  </g>
  <g
     id="g52">
    <path
       style="opacity:1"
       fill="#c9c9c9"
       d="M 257.5,1018.5 C 251.5,1019.09 245.5,1019.76 239.5,1020.5C 235.306,1020.15 231.306,1019.48 227.5,1018.5C 237.665,1019 247.665,1019 257.5,1018.5 Z"
       id="path50" />
  </g>
</svg>
