<?xml version="1.0" encoding="UTF-8" standalone="no"?>
<svg
   version="1.1"
   width="820px"
   height="1210px"
   style="shape-rendering:geometricPrecision; text-rendering:geometricPrecision; image-rendering:optimizeQuality; fill-rule:evenodd; clip-rule:evenodd"
   id="svg442"
   sodipodi:docname="b.svg"
   inkscape:version="1.1.2 (0a00cf5339, 2022-02-04)"
   xmlns:inkscape="http://www.inkscape.org/namespaces/inkscape"
   xmlns:sodipodi="http://sodipodi.sourceforge.net/DTD/sodipodi-0.dtd"
   xmlns="http://www.w3.org/2000/svg"
   xmlns:svg="http://www.w3.org/2000/svg">
  <defs
     id="defs446" />
  <sodipodi:namedview
     id="namedview444"
     pagecolor="#ffffff"
     bordercolor="#000000"
     borderopacity="0.25"
     inkscape:showpageshadow="2"
     inkscape:pageopacity="0.0"
     inkscape:pagecheckerboard="0"
     inkscape:deskcolor="#d1d1d1"
     showgrid="false"
     inkscape:zoom="1.4016529"
     inkscape:cx="239.00354"
     inkscape:cy="649.23349"
     inkscape:window-width="1920"
     inkscape:window-height="1052"
     inkscape:window-x="0"
     inkscape:window-y="28"
     inkscape:window-maximized="1"
     inkscape:current-layer="svg442"
     inkscape:pageshadow="2" />
  <g
     id="g436"
     transform="matrix(0.6097561,0,0,0.53719008,171.8751,238.25326)">
    <path
       style="opacity:1"
       fill="#000000"
       d="m 298.5,1209.5 c -78.48474,0.8306 -156.95763,-3.8562 -235,-12 -0.496045,-285.33392 0.0037,-570.66957 1.5,-856 21.621421,-48.7936 95.18826,-60.34952 128.58488,-17.41575 21.21931,34.00068 15.05035,116.25162 15.05035,116.25162 -0.636,46.71881 -1.0145,93.44114 -1.13523,140.16413 104.95574,5.92472 216.77782,9.1604 313.018,-39.50437 53.6157,-24.85839 80.70044,-88.02162 66.08625,-144.48676 C 571.66073,327.65266 503.68685,283.20451 437.43529,273.21654 383.55435,259.17631 369.3314,179.3669 415.57424,148.05328 c 40.96969,-29.11912 91.83221,-2.43972 135.2891,7.22205 91.43826,29.79259 172.94963,103.30207 191.13245,200.65505 20.13009,104.58973 -16.66924,228.53782 -115.33694,281.11774 -19.6112,17.95559 -98.86931,26.45674 -37.63433,37.40133 99.62655,33.60075 170.31869,135.97417 162.94556,241.38668 -2.28273,103.91467 -67.32216,202.41937 -162.46726,244.60537 -89.508,44.9035 -193.1261,45.5083 -291.00282,49.0585 z"
       id="path434"
       sodipodi:nodetypes="ccccccccccccccccc" />
  </g>
  <g
     id="g440"
     transform="matrix(0.6097561,0,0,0.53719008,171.8751,238.25326)">
    <path
       style="opacity:1"
       fill="#fefefe"
       d="m 259.5,746.5 c 60.28703,-0.0435 121.47668,-1.96582 180.38629,13.16962 44.0476,10.25124 88.88432,26.64327 119.72473,61.32582 30.49669,29.31238 40.81715,74.38587 33.59998,115.18168 -4.62659,40.56034 -31.99502,75.49268 -67.33454,94.63008 -46.28369,27.1808 -100.85108,35.333 -153.54843,39.5623 -54.1544,3.3215 -108.683,1.454 -162.32803,-6.8695 0.102,-104.33473 0.60202,-208.66908 1.5,-313 15.99356,-1.40917 31.99363,-2.74459 48,-4 z"
       id="path438" />
  </g>
</svg>
