<?xml version="1.0" encoding="UTF-8" standalone="no"?>
<svg
   version="1.1"
   width="400"
   height="550"
   style="clip-rule:evenodd;fill-rule:evenodd;image-rendering:optimizeQuality;shape-rendering:geometricPrecision;text-rendering:geometricPrecision"
   id="svg442"
   sodipodi:docname="b.svg"
   inkscape:version="1.1.2 (0a00cf5339, 2022-02-04)"
   xmlns:inkscape="http://www.inkscape.org/namespaces/inkscape"
   xmlns:sodipodi="http://sodipodi.sourceforge.net/DTD/sodipodi-0.dtd"
   xmlns="http://www.w3.org/2000/svg"
   xmlns:svg="http://www.w3.org/2000/svg">
  <defs
     id="defs446" />
  <sodipodi:namedview
     id="namedview444"
     pagecolor="#ffffff"
     bordercolor="#000000"
     borderopacity="0.25"
     inkscape:showpageshadow="2"
     inkscape:pageopacity="0.0"
     inkscape:pagecheckerboard="0"
     inkscape:deskcolor="#d1d1d1"
     showgrid="false"
     inkscape:zoom="0.49555913"
     inkscape:cx="781.94503"
     inkscape:cy="532.73158"
     inkscape:window-width="1920"
     inkscape:window-height="1011"
     inkscape:window-x="0"
     inkscape:window-y="32"
     inkscape:window-maximized="1"
     inkscape:current-layer="svg442"
     inkscape:pageshadow="2" />
  <g
     id="g436"
     transform="matrix(0.6097561,0,0,0.53719008,-42.160746,-88.944708)" />
  <g
     id="g2164"
     transform="matrix(0.94973284,0,0,0.95321304,-199.42027,-296.48702)">
    <path
       style="clip-rule:evenodd;opacity:1;fill-rule:evenodd;image-rendering:optimizeQuality;shape-rendering:geometricPrecision;text-rendering:geometricPrecision"
       fill="#000000"
       d="m 298.5,1209.5 c -78.48701,0.8304 -157.97335,-3.8561 -236.015969,-12 V 348.03139 c 0,-48.48148 131.101409,-48.48148 131.101409,0 V 580.5 c 114.56719,5.64327 238.00153,10.68965 341.29993,-47.4687 66.47097,-41.80101 72.75107,-143.27618 19.73352,-198.46962 -32.02989,-37.54871 -66.98637,-49.82804 -112.69541,-64.72052 -58.72927,-19.1346 -63.33936,-123.34351 0,-132.76237 55.49266,-8.25202 108.83383,17.34969 158.97489,39.43464 85.44635,42.89996 147.87635,132.37939 146.34492,229.51514 3.00489,92.45116 -40.43074,190.33766 -124.91166,234.27833 -15.79922,9.73693 -86.65633,26.00125 -33.30711,34.14255 109.7015,35.93358 181.17259,156.89702 160.67573,270.42809 C 736.52534,1051.2674 656.34474,1142.2331 555.31468,1175.2961 473.3847,1205.6827 384.67492,1206.314 298.5,1209.5 Z"
       id="path434"
       sodipodi:nodetypes="ccsscccssccccccc"
       transform="matrix(0.6097561,0,0,0.53719008,171.8751,238.25326)" />
    <g
       id="g440"
       transform="matrix(0.6097561,0,0,0.53719008,171.8751,238.25326)">
      <path
         style="opacity:1"
         fill="#fefefe"
         d="m 439.88629,759.66962 c 45.29157,10.26624 91.43191,28.08958 122.52477,64.11942 37.92993,39.73042 42.01926,103.73602 18.56694,151.80788 -23.79404,46.08478 -74.1827,69.45468 -122.17625,81.84358 -76.36079,17.8362 -171.15643,17.7152 -248.67691,8.2313 0,0 0,-219.24551 0,-315.1718 76.40405,-4.71598 154.56888,-7.80559 229.76145,9.16962 z"
         id="path438"
         sodipodi:nodetypes="ccccccc" />
    </g>
  </g>
</svg>
