<?xml version="1.0" encoding="UTF-8" standalone="no"?>
<svg
   version="1.1"
   width="820px"
   height="1210px"
   style="shape-rendering:geometricPrecision; text-rendering:geometricPrecision; image-rendering:optimizeQuality; fill-rule:evenodd; clip-rule:evenodd"
   id="svg442"
   sodipodi:docname="b.svg"
   inkscape:version="1.2.1 (0f2f062aeb, 2022-09-21, custom)"
   xmlns:inkscape="http://www.inkscape.org/namespaces/inkscape"
   xmlns:sodipodi="http://sodipodi.sourceforge.net/DTD/sodipodi-0.dtd"
   xmlns="http://www.w3.org/2000/svg"
   xmlns:svg="http://www.w3.org/2000/svg">
  <defs
     id="defs446" />
  <sodipodi:namedview
     id="namedview444"
     pagecolor="#ffffff"
     bordercolor="#000000"
     borderopacity="0.25"
     inkscape:showpageshadow="2"
     inkscape:pageopacity="0.0"
     inkscape:pagecheckerboard="0"
     inkscape:deskcolor="#d1d1d1"
     showgrid="false"
     inkscape:zoom="0.49555913"
     inkscape:cx="131.16497"
     inkscape:cy="807.16907"
     inkscape:window-width="1920"
     inkscape:window-height="1014"
     inkscape:window-x="0"
     inkscape:window-y="30"
     inkscape:window-maximized="1"
     inkscape:current-layer="svg442" />
  <g
     id="g436"
     transform="matrix(0.6097561,0,0,0.53719008,171.8751,238.25326)">
    <path
       style="opacity:1"
       fill="#000000"
       d="m 298.5,1209.5 c -15.333,0 -30.667,0 -46,0 -63.014,-1.33 -126.014,-5.33 -189,-12 -0.4961,-285.367 0.0039,-570.701 1.5,-856 2.1016,-3.205 3.9349,-6.538 5.5,-10 3.3244,-3.494 6.491,-7.161 9.5,-11 28.877,-26.284 60.71,-30.45 95.5,-12.5 13.28,9.612 24.113,21.446 32.5,35.5 1.093,3.716 1.593,7.55 1.5,11.5 -0.217,10.14 -0.217,20.307 0,30.5 -1.165,64.987 -1.832,129.987 -2,195 11.632,1.202 23.299,2.035 35,2.5 32.333,0.667 64.667,0.667 97,0 51.001,-1.778 100.668,-10.778 149,-27 22.357,-8.339 42.691,-20.006 61,-35 21.26,-18.013 34.093,-40.846 38.5,-68.5 6.139,-38.988 -1.861,-74.655 -24,-107 -27.034,-33.657 -61.534,-56.157 -103.5,-67.5 -44.774,-4.774 -69.441,-29.441 -74,-74 4.406,-40.402 26.572,-63.902 66.5,-70.5 23.372,3.207 46.539,7.707 69.5,13.5 61.868,15.337 115.035,45.503 159.5,90.5 49.772,57.323 71.105,123.99 64,200 -10.748,118.38 -72.915,194.214 -186.5,227.5 40.377,10.688 76.71,29.021 109,55 62.352,56.59 89.852,127.09 82.5,211.5 -7.565,74.63 -39.065,136.8 -94.5,186.5 -56.685,44.36 -121.018,71.03 -193,80 -54.924,7.2 -109.924,11.04 -165,11.5 z"
       id="path434" />
  </g>
  <g
     id="g440"
     transform="matrix(0.6097561,0,0,0.53719008,171.8751,238.25326)">
    <path
       style="opacity:1"
       fill="#fefefe"
       d="m 259.5,746.5 c 28.002,-0.167 56.002,0 84,0.5 47.611,1.324 93.945,9.657 139,25 40.586,13.603 72.753,38.103 96.5,73.5 14.083,26.466 19.083,54.466 15,84 -3.433,36.041 -19.266,65.207 -47.5,87.5 -23.703,17.81 -50.036,30.48 -79,38 -35.714,9.51 -72.048,14.84 -109,16 -49.818,2.51 -99.318,0.01 -148.5,-7.5 0.102,-104.334 0.602,-208.667 1.5,-313 16.139,-1.422 32.139,-2.756 48,-4 z"
       id="path438" />
  </g>
</svg>
