<?xml version="1.0" encoding="UTF-8" standalone="no"?>
<svg
   version="1.1"
   width="820px"
   height="1210px"
   style="shape-rendering:geometricPrecision; text-rendering:geometricPrecision; image-rendering:optimizeQuality; fill-rule:evenodd; clip-rule:evenodd"
   id="svg489"
   sodipodi:docname="c.svg"
   inkscape:version="1.2.1 (0f2f062aeb, 2022-09-21, custom)"
   xmlns:inkscape="http://www.inkscape.org/namespaces/inkscape"
   xmlns:sodipodi="http://sodipodi.sourceforge.net/DTD/sodipodi-0.dtd"
   xmlns="http://www.w3.org/2000/svg"
   xmlns:svg="http://www.w3.org/2000/svg">
  <defs
     id="defs493" />
  <sodipodi:namedview
     id="namedview491"
     pagecolor="#ffffff"
     bordercolor="#000000"
     borderopacity="0.25"
     inkscape:showpageshadow="2"
     inkscape:pageopacity="0.0"
     inkscape:pagecheckerboard="0"
     inkscape:deskcolor="#d1d1d1"
     showgrid="false"
     inkscape:zoom="0.70082645"
     inkscape:cx="637.81839"
     inkscape:cy="714.87028"
     inkscape:window-width="1920"
     inkscape:window-height="1014"
     inkscape:window-x="0"
     inkscape:window-y="30"
     inkscape:window-maximized="1"
     inkscape:current-layer="svg489" />
  <g
     id="g475" />
  <g
     id="g479"
     transform="matrix(0.60395646,0,0,0.54802007,193.16815,235.22893)">
    <path
       style="opacity:1"
       fill="#000000"
       d="m 536.5,313.5 c -8.327,-0.666 -16.827,-1 -25.5,-1 -11.711,-0.218 -23.211,0.449 -34.5,2 -40.567,4.808 -79.9,14.642 -118,29.5 -23.175,11.337 -44.175,25.671 -63,43 -18.592,17.923 -35.758,37.09 -51.5,57.5 -9.34,13.339 -17.674,27.339 -25,42 -23.718,54.172 -37.384,110.838 -41,170 -2.463,48.918 -0.129,97.585 7,146 12.062,56.802 37.728,106.136 77,148 65.021,67.08 144.521,103.25 238.5,108.5 37.226,10.22 57.226,34.56 60,73 -0.913,26.84 -12.247,47.84 -34,63 -5.764,3.22 -11.764,5.88 -18,8 -15.279,1.81 -30.613,2.97 -46,3.5 -28.941,-3.09 -57.608,-7.75 -86,-14 -2.338,-1.54 -5.005,-2.21 -8,-2 -75.139,-18.56 -141.473,-53.4 -199,-104.5 -20.268,-19.76 -38.768,-40.93 -55.5,-63.5 -46.8573,-69.878 -75.1907,-146.878 -85,-231 -6.1797,-52.576 -7.513,-105.243 -4,-158 2.8418,-27.401 6.1751,-54.734 10,-82 5.1934,-25.107 10.86,-50.107 17,-75 C 94.9734,338.865 183.807,244.699 318.5,194 c 87.808,-29.263 177.142,-35.263 268,-18 65.942,11.914 126.609,36.414 182,73.5 7.955,6.121 15.121,13.121 21.5,21 14.715,24.476 15.048,49.142 1,74 -9.84,14.177 -23.34,22.677 -40.5,25.5 -17.424,5.16 -33.424,2.493 -48,-8 -22.658,-10.496 -45.658,-20.163 -69,-29 -19.436,-5.81 -39.103,-10.81 -59,-15 -12.556,-2.486 -25.222,-3.986 -38,-4.5 z"
       id="path477" />
  </g>
  <g
     id="g487">
    <path
       style="opacity:1"
       fill="#6a6a6a"
       d="M 368.5,1190.5 C 371.495,1190.29 374.162,1190.96 376.5,1192.5C 373.572,1192.43 370.905,1191.77 368.5,1190.5 Z"
       id="path485" />
  </g>
</svg>
