<?xml version="1.0" encoding="UTF-8" standalone="no"?>
<svg
   version="1.1"
   width="450"
   height="550"
   style="clip-rule:evenodd;fill-rule:evenodd;image-rendering:optimizeQuality;shape-rendering:geometricPrecision;text-rendering:geometricPrecision"
   id="svg489"
   sodipodi:docname="c.svg"
   inkscape:version="1.1.2 (0a00cf5339, 2022-02-04)"
   xmlns:inkscape="http://www.inkscape.org/namespaces/inkscape"
   xmlns:sodipodi="http://sodipodi.sourceforge.net/DTD/sodipodi-0.dtd"
   xmlns="http://www.w3.org/2000/svg"
   xmlns:svg="http://www.w3.org/2000/svg">
  <defs
     id="defs493" />
  <sodipodi:namedview
     id="namedview491"
     pagecolor="#ffffff"
     bordercolor="#000000"
     borderopacity="0.25"
     inkscape:showpageshadow="2"
     inkscape:pageopacity="0.0"
     inkscape:pagecheckerboard="0"
     inkscape:deskcolor="#d1d1d1"
     showgrid="false"
     inkscape:zoom="0.12388979"
     inkscape:cx="-145.29043"
     inkscape:cy="1767.7002"
     inkscape:window-width="1125"
     inkscape:window-height="1011"
     inkscape:window-x="960"
     inkscape:window-y="32"
     inkscape:window-maximized="0"
     inkscape:current-layer="g479"
     inkscape:pageshadow="2" />
  <g
     id="g475"
     transform="translate(-210.12913,-326.9608)" />
  <g
     id="g479"
     transform="matrix(0.60395646,0,0,0.54802007,-16.960984,-91.731873)">
    <path
       style="opacity:1;stroke-width:0.981253"
       fill="#000000"
       d="m 249.80046,424.74035 c -165.289285,245.96412 -40.97874,574.11739 224.67962,606.91225 63.10228,1.4995 64.89738,139.3317 0,139.3481 C 127.52419,1152.5697 -12.872044,847.47003 38.299319,531.72965 63.105417,376.85465 171.699,235.42904 319.80145,190.97753 c 142.67462,-46.71241 306.20209,-23.35717 429.99052,63.90882 45.53787,34.01906 20.84198,123.62893 -42.06431,110.1164 -154.36182,-53.83244 -353.03115,-78.53383 -457.9272,59.7376 z"
       id="path477"
       sodipodi:nodetypes="ccccsscc" />
  </g>
  <g
     id="g487"
     transform="translate(-210.12913,-326.9608)">
    <path
       style="opacity:1"
       fill="#6a6a6a"
       d="m 368.5,1190.5 c 2.995,-0.21 5.662,0.46 8,2 -2.928,-0.07 -5.595,-0.73 -8,-2 z"
       id="path485" />
  </g>
</svg>
