<?xml version="1.0" encoding="UTF-8" standalone="no"?>
<svg
   version="1.1"
   width="400"
   height="550"
   style="clip-rule:evenodd;fill-rule:evenodd;image-rendering:optimizeQuality;shape-rendering:geometricPrecision;text-rendering:geometricPrecision"
   id="svg37"
   sodipodi:docname="d.svg"
   inkscape:version="1.1.2 (0a00cf5339, 2022-02-04)"
   xmlns:inkscape="http://www.inkscape.org/namespaces/inkscape"
   xmlns:sodipodi="http://sodipodi.sourceforge.net/DTD/sodipodi-0.dtd"
   xmlns="http://www.w3.org/2000/svg"
   xmlns:svg="http://www.w3.org/2000/svg">
  <defs
     id="defs41" />
  <sodipodi:namedview
     id="namedview39"
     pagecolor="#ffffff"
     bordercolor="#000000"
     borderopacity="0.25"
     inkscape:showpageshadow="2"
     inkscape:pageopacity="0.0"
     inkscape:pagecheckerboard="0"
     inkscape:deskcolor="#d1d1d1"
     showgrid="false"
     inkscape:zoom="0.47452126"
     inkscape:cx="206.52394"
     inkscape:cy="246.5643"
     inkscape:window-width="1125"
     inkscape:window-height="1011"
     inkscape:window-x="960"
     inkscape:window-y="32"
     inkscape:window-maximized="0"
     inkscape:current-layer="svg37"
     inkscape:pageshadow="2" />
  <g
     id="g31"
     transform="matrix(0.51020408,0,0,0.51203018,38.434159,-35.419748)" />
  <g
     id="g2670"
     transform="matrix(0.99206419,0,0,1.0008952,-237.38476,-325.12997)">
    <path
       style="clip-rule:evenodd;opacity:1;fill-rule:evenodd;image-rendering:optimizeQuality;shape-rendering:geometricPrecision;text-rendering:geometricPrecision"
       fill="#000000"
       d="m 25.204542,1186.5 c -3.485855,-340.66094 0.705209,-681.33337 0,-1022 C 167.46034,123.28246 321.30801,126.32571 463.26583,167.19281 573.35867,198.88655 666.16389,275.25934 726.67687,372.1616 828.33769,534.95581 844.11863,748.09042 759.18803,921.37738 694.48573,1053.3918 573.65745,1162.2818 425.21208,1187.5034 293.09026,1209.9516 155.9011,1220.2595 25.204542,1186.5 Z"
       id="path29"
       sodipodi:nodetypes="ccssssc"
       transform="matrix(0.51020408,0,0,0.51203018,227.14054,255.70121)" />
    <g
       id="g35"
       transform="matrix(0.51020408,0,0,0.51203018,227.14054,255.70121)">
      <path
         style="opacity:1"
         fill="#fefefe"
         d="m 501.67937,350.54944 c 98.99571,67.2135 153.81546,186.6716 158.37122,304.97647 4.88605,126.88195 -31.60848,279.00466 -137.61251,353.67609 -63.09018,44.442 -338.21678,41.0384 -338.21678,41.0384 V 722.5 l 210.7802,-1.34812 c 41.28878,-0.26408 81.40712,-11.77225 94.77343,-51.67278 16.0457,-47.89891 -23.08347,-99.78252 -73.51125,-99.4248 L 184.2213,571.70036 C 183.98471,481.9776 183.49132,369.9047 184,292.49993 c 109.5395,1.67178 239.84365,5.20266 317.67937,58.04951 z"
         id="path33"
         sodipodi:nodetypes="sssccsssccs" />
    </g>
  </g>
</svg>
