<?xml version="1.0" encoding="UTF-8" standalone="no"?>
<svg
   version="1.1"
   width="820px"
   height="1210px"
   style="shape-rendering:geometricPrecision; text-rendering:geometricPrecision; image-rendering:optimizeQuality; fill-rule:evenodd; clip-rule:evenodd"
   id="svg37"
   sodipodi:docname="d.svg"
   inkscape:version="1.2.1 (0f2f062aeb, 2022-09-21, custom)"
   xmlns:inkscape="http://www.inkscape.org/namespaces/inkscape"
   xmlns:sodipodi="http://sodipodi.sourceforge.net/DTD/sodipodi-0.dtd"
   xmlns="http://www.w3.org/2000/svg"
   xmlns:svg="http://www.w3.org/2000/svg">
  <defs
     id="defs41" />
  <sodipodi:namedview
     id="namedview39"
     pagecolor="#ffffff"
     bordercolor="#000000"
     borderopacity="0.25"
     inkscape:showpageshadow="2"
     inkscape:pageopacity="0.0"
     inkscape:pagecheckerboard="0"
     inkscape:deskcolor="#d1d1d1"
     showgrid="false"
     inkscape:zoom="0.67107438"
     inkscape:cx="397.86946"
     inkscape:cy="500.68966"
     inkscape:window-width="1920"
     inkscape:window-height="1014"
     inkscape:window-x="0"
     inkscape:window-y="30"
     inkscape:window-maximized="1"
     inkscape:current-layer="svg37" />
  <g
     id="g31"
     transform="matrix(0.51020408,0,0,0.51203018,227.14054,255.70121)">
    <path
       style="opacity:1"
       fill="#000000"
       d="m 222.5,1209.5 c -3.333,0 -6.667,0 -10,0 -59.197,-0.03 -117.5302,-7.69 -175,-23 -0.6834,-6.89 -1.3501,-13.72 -2,-20.5 0.3333,-3.67 0.6667,-7.33 1,-11 -1.8997,-330.096 -3.233,-660.263 -4,-990.5 29.4668,-7.616 59.1335,-14.45 89,-20.5 16.254,-2.893 32.587,-5.227 49,-7 42.318,-2.492 84.651,-2.159 127,1 49.048,3.23 97.382,10.897 145,23 91.408,23.517 168.574,70.017 231.5,139.5 91.056,107.941 138.556,232.941 142.5,375 -2.851,146.798 -53.018,274.465 -150.5,383 -64.225,66.88 -142.059,110.05 -233.5,129.5 -69.372,14.59 -139.372,21.76 -210,21.5 z"
       id="path29" />
  </g>
  <g
     id="g35"
     transform="matrix(0.51020408,0,0,0.51203018,227.14054,255.70121)">
    <path
       style="opacity:1"
       fill="#fefefe"
       d="m 264.5,292.5 c 53.568,-0.054 106.235,6.779 158,20.5 45.944,13.959 85.944,37.626 120,71 58.72,57.926 95.554,127.759 110.5,209.5 18.513,102.921 2.846,200.255 -47,292 -29.308,50.642 -68.808,91.476 -118.5,122.5 -41.365,21.79 -85.365,35.12 -132,40 -49.719,4.98 -99.386,4.65 -149,-1 -6.377,-1.51 -12.71,-3.18 -19,-5 -1.328,-23.62 -1.995,-47.451 -2,-71.5 -0.899,-82.666 -1.066,-165.332 -0.5,-248 36.3,-0.361 72.8,-0.361 109.5,0 5.432,-0.014 10.765,-0.681 16,-2 10.313,2.614 20.646,2.614 31,0 10.132,2.356 20.299,2.356 30.5,0 15.335,0.536 30.669,0.869 46,1 46.546,-4.046 72.046,-29.379 76.5,-76 -3.009,-39.163 -23.342,-63.996 -61,-74.5 -15.314,-1.045 -30.647,-1.545 -46,-1.5 -5.562,0.216 -11.062,0.883 -16.5,2 -10.146,-2.507 -20.313,-2.507 -30.5,0 -35.826,-0.477 -71.66,-0.81 -107.5,-1 -5.41,0.106 -10.743,0.773 -16,2 -10.817,-2.437 -21.65,-2.437 -32.5,0 -0.933,-87.332 -1.1,-174.665 -0.5,-262 26.243,-9.105 53.077,-15.105 80.5,-18 z"
       id="path33" />
  </g>
</svg>
