<?xml version="1.0" encoding="UTF-8" standalone="no"?>
<svg
   version="1.1"
   width="820px"
   height="1210px"
   style="shape-rendering:geometricPrecision; text-rendering:geometricPrecision; image-rendering:optimizeQuality; fill-rule:evenodd; clip-rule:evenodd"
   id="svg545"
   sodipodi:docname="e.svg"
   inkscape:version="1.2.1 (0f2f062aeb, 2022-09-21, custom)"
   xmlns:inkscape="http://www.inkscape.org/namespaces/inkscape"
   xmlns:sodipodi="http://sodipodi.sourceforge.net/DTD/sodipodi-0.dtd"
   xmlns="http://www.w3.org/2000/svg"
   xmlns:svg="http://www.w3.org/2000/svg">
  <defs
     id="defs549" />
  <sodipodi:namedview
     id="namedview547"
     pagecolor="#ffffff"
     bordercolor="#000000"
     borderopacity="0.25"
     inkscape:showpageshadow="2"
     inkscape:pageopacity="0.0"
     inkscape:pagecheckerboard="0"
     inkscape:deskcolor="#d1d1d1"
     showgrid="false"
     inkscape:zoom="0.70082645"
     inkscape:cx="409.51651"
     inkscape:cy="605"
     inkscape:window-width="1920"
     inkscape:window-height="1014"
     inkscape:window-x="0"
     inkscape:window-y="30"
     inkscape:window-maximized="1"
     inkscape:current-layer="svg545" />
  <g
     id="g543"
     transform="matrix(0.60340532,0,0,0.50973005,173.18251,209.97377)">
    <path
       style="opacity:1"
       fill="#000000"
       d="m 129.5,129.5 c 175.661,0.812 351.328,1.312 527,1.5 35.86,8.193 57.027,30.359 63.5,66.5 2.371,32.09 -9.796,56.924 -36.5,74.5 -5.988,3.494 -12.321,6.161 -19,8 -11.648,-0.322 -23.315,-0.822 -35,-1.5 -134.329,0.981 -268.662,1.315 -403,1 -0.167,26.002 0,52.002 0.5,78 9.289,-2.609 18.622,-2.609 28,0 5.257,-1.227 10.59,-1.894 16,-2 35.84,0.19 71.674,0.523 107.5,1 10.187,-2.507 20.354,-2.507 30.5,0 5.257,-1.227 10.59,-1.894 16,-2 15.525,0.042 31.025,0.542 46.5,1.5 37.658,10.504 57.991,35.337 61,74.5 -4.454,46.621 -29.954,71.954 -76.5,76 -15.331,-0.131 -30.665,-0.464 -46,-1 -10.201,2.356 -20.368,2.356 -30.5,0 -10.357,2.55 -20.691,2.55 -31,0 -5.235,1.319 -10.568,1.986 -16,2 -25.346,-0.157 -50.679,-0.49 -76,-1 -9.839,1.862 -19.506,1.862 -29,0 -1,25.325 -1.333,50.658 -1,76 133.334,-0.167 266.667,0 400,0.5 9.047,1.91 18.047,1.743 27,-0.5 42.04,8.039 64.707,33.372 68,76 -3.084,42.25 -25.417,67.417 -67,75.5 -6.698,0.757 -13.364,0.591 -20,-0.5 -6.341,0.743 -12.674,1.577 -19,2.5 -129.666,0.5 -259.333,0.667 -389,0.5 0,107 0,214 0,321 150.667,-0.17 301.334,0 452,0.5 40.074,17.98 55.241,48.48 45.5,91.5 -8.2,27.86 -25.7,47.02 -52.5,57.5 -2.333,0.33 -4.667,0.67 -7,1 -178.667,0.67 -357.333,0.67 -536,0 -30.7677,-8.44 -51.6011,-27.6 -62.5,-57.5 -0.3333,-310.667 -0.6667,-621.333 -1,-932 -3.7527,-24.662 2.5806,-46.329 19,-65 12.488,-12.83 27.655,-20.83 45.5,-24 z"
       id="path541" />
  </g>
</svg>
