<?xml version="1.0" encoding="UTF-8" standalone="no"?>
<svg
   version="1.1"
   width="400"
   height="550"
   style="clip-rule:evenodd;fill-rule:evenodd;image-rendering:optimizeQuality;shape-rendering:geometricPrecision;text-rendering:geometricPrecision"
   id="svg545"
   sodipodi:docname="e.svg"
   inkscape:version="1.1.2 (0a00cf5339, 2022-02-04)"
   xmlns:inkscape="http://www.inkscape.org/namespaces/inkscape"
   xmlns:sodipodi="http://sodipodi.sourceforge.net/DTD/sodipodi-0.dtd"
   xmlns="http://www.w3.org/2000/svg"
   xmlns:svg="http://www.w3.org/2000/svg">
  <defs
     id="defs549" />
  <sodipodi:namedview
     id="namedview547"
     pagecolor="#ffffff"
     bordercolor="#000000"
     borderopacity="0.25"
     inkscape:showpageshadow="2"
     inkscape:pageopacity="0.0"
     inkscape:pagecheckerboard="0"
     inkscape:deskcolor="#d1d1d1"
     showgrid="false"
     inkscape:zoom="0.35041323"
     inkscape:cx="48.51415"
     inkscape:cy="268.25471"
     inkscape:window-width="1125"
     inkscape:window-height="1011"
     inkscape:window-x="960"
     inkscape:window-y="32"
     inkscape:window-maximized="0"
     inkscape:current-layer="svg545"
     inkscape:pageshadow="2" />
  <g
     id="g543"
     transform="matrix(0.60340585,0,0,0.50972982,-36.81752,-66.010083)">
    <path
       style="opacity:1;stroke-width:1.0267"
       fill="#000000"
       d="m 133.1867,129.50037 556.56042,1.50003 c 43.84635,0.11817 43.84647,155.48721 0,155.48721 H 200.73433 v 66.75098 h 296.90056 c 44.88214,0 44.88213,156.98724 0,156.98724 H 200.73433 v 78.49363 h 489.01279 c 45.56374,0 45.56374,156.98723 0,156.98723 H 200.73417 l -1.7e-4,305.80921 h 489.01312 c 44.57674,0 44.57674,157.0048 0,156.9872 0,0 -371.74283,-0.1462 -557.61425,-0.2189 -40.930397,-0.016 -71.11669,-47.3117 -71.11669,-86.6479 V 218.52345 c 0,-42.90107 27.953137,-89.14225 72.17052,-89.02308 z"
       id="path541"
       sodipodi:nodetypes="sssccssccssccssssss" />
  </g>
</svg>
