<?xml version="1.0" encoding="UTF-8" standalone="no"?>
<svg
   version="1.1"
   width="820px"
   height="1210px"
   style="shape-rendering:geometricPrecision; text-rendering:geometricPrecision; image-rendering:optimizeQuality; fill-rule:evenodd; clip-rule:evenodd"
   id="svg580"
   sodipodi:docname="f.svg"
   inkscape:version="1.1.2 (0a00cf5339, 2022-02-04)"
   xmlns:inkscape="http://www.inkscape.org/namespaces/inkscape"
   xmlns:sodipodi="http://sodipodi.sourceforge.net/DTD/sodipodi-0.dtd"
   xmlns="http://www.w3.org/2000/svg"
   xmlns:svg="http://www.w3.org/2000/svg">
  <defs
     id="defs584" />
  <sodipodi:namedview
     id="namedview582"
     pagecolor="#ffffff"
     bordercolor="#000000"
     borderopacity="0.25"
     inkscape:showpageshadow="2"
     inkscape:pageopacity="0.0"
     inkscape:pagecheckerboard="0"
     inkscape:deskcolor="#d1d1d1"
     showgrid="false"
     inkscape:zoom="1.4016529"
     inkscape:cx="572.18161"
     inkscape:cy="570.04128"
     inkscape:window-width="1920"
     inkscape:window-height="1052"
     inkscape:window-x="0"
     inkscape:window-y="28"
     inkscape:window-maximized="1"
     inkscape:current-layer="svg580"
     inkscape:pageshadow="2" />
  <g
     id="g578"
     transform="matrix(0.62854442,0,0,0.51162779,145.81594,228.79904)">
    <path
       style="opacity:1"
       fill="#000000"
       d="m 256.5,1209.5 h -154 C 103.22227,875.40911 101.71548,541.23668 102.06811,207.19769 105.37805,164.57235 147.296,129.72171 189.5,135.00041 h 493 c 44.88876,5.7146 71.29915,68.20664 45.35382,108.6284 -22.74545,40.5342 -73.78579,40.33678 -114.35382,38.54308 -118.99958,0.36464 -237.99995,0.47424 -357,0.32811 v 66 c 47.92681,-0.83471 95.04236,0.41226 143.15524,0.72256 0,0 131.68448,-1.24122 141.38976,21.32231 41.37294,38.88415 20.10294,118.90445 -37.56923,127.43246 L 256.5,499.47826 V 585.5 c 98.66685,-0.167 197.33427,0 296,0.5 45.77905,-2.61293 77.43826,25.31476 80.18212,72.49518 6.71079,45.19623 -27.92538,86.24185 -72.43194,79.59467 C 459.0008,738.51957 357.75017,738.65656 256.5,738.5 Z"
       id="path576"
       sodipodi:nodetypes="ccccccccccccccccccc" />
  </g>
</svg>
