<?xml version="1.0" encoding="UTF-8" standalone="no"?>
<svg
   version="1.1"
   width="820px"
   height="1210px"
   style="shape-rendering:geometricPrecision; text-rendering:geometricPrecision; image-rendering:optimizeQuality; fill-rule:evenodd; clip-rule:evenodd"
   id="svg580"
   sodipodi:docname="f.svg"
   inkscape:version="1.2.1 (0f2f062aeb, 2022-09-21, custom)"
   xmlns:inkscape="http://www.inkscape.org/namespaces/inkscape"
   xmlns:sodipodi="http://sodipodi.sourceforge.net/DTD/sodipodi-0.dtd"
   xmlns="http://www.w3.org/2000/svg"
   xmlns:svg="http://www.w3.org/2000/svg">
  <defs
     id="defs584" />
  <sodipodi:namedview
     id="namedview582"
     pagecolor="#ffffff"
     bordercolor="#000000"
     borderopacity="0.25"
     inkscape:showpageshadow="2"
     inkscape:pageopacity="0.0"
     inkscape:pagecheckerboard="0"
     inkscape:deskcolor="#d1d1d1"
     showgrid="false"
     inkscape:zoom="0.49555913"
     inkscape:cx="506.49859"
     inkscape:cy="750.66723"
     inkscape:window-width="1920"
     inkscape:window-height="1014"
     inkscape:window-x="0"
     inkscape:window-y="30"
     inkscape:window-maximized="1"
     inkscape:current-layer="svg580" />
  <g
     id="g578"
     transform="matrix(0.62854442,0,0,0.51162779,145.81594,228.79904)">
    <path
       style="opacity:1"
       fill="#000000"
       d="m 256.5,1209.5 c -51.333,0 -102.667,0 -154,0 0.331,-332.348 -0.002,-664.681 -1,-997 0.621,-7.093 1.788,-14.093 3.5,-21 14.95,-38.228 43.117,-56.395 84.5,-54.5 0.667,-0.667 1.333,-1.333 2,-2 163.667,-0.667 327.333,-0.667 491,0 9.92,4.294 19.254,9.627 28,16 6.634,5.758 12.467,12.258 17.5,19.5 16.291,32.175 12.458,61.675 -11.5,88.5 -15.168,12.503 -32.501,20.169 -52,23 -136,0.5 -272,0.667 -408,0.5 0,22 0,44 0,66 10.239,-1.637 20.406,-1.304 30.5,1 10.159,-2.638 20.326,-2.638 30.5,0 5,-0.667 10,-1.333 15,-2 10.55,2.627 21.05,2.627 31.5,0 5.1,0.802 10.266,1.469 15.5,2 35.831,-0.53 71.665,-0.864 107.5,-1 46.56,4.06 72.06,29.393 76.5,76 -4.431,46.597 -29.931,71.931 -76.5,76 -20.5,-0.02 -41,-0.02 -61.5,0 -5.413,-0.177 -10.746,-0.843 -16,-2 -10.154,2.641 -20.32,2.641 -30.5,0 -5.158,0.694 -10.324,1.361 -15.5,2 -5.16,-0.696 -10.327,-1.363 -15.5,-2 -10.193,2.35 -20.359,2.35 -30.5,0 -20.349,0.079 -40.683,0.079 -61,0 0,29 0,58 0,87 98.667,-0.167 197.334,0 296,0.5 8.776,2.694 17.443,5.694 26,9 39.226,7.559 60.56,31.225 64,71 -2.734,39.403 -23.4,63.403 -62,72 -107.999,0.5 -215.999,0.667 -324,0.5 0,157 0,314 0,471 z"
       id="path576" />
  </g>
</svg>
