<?xml version="1.0" encoding="UTF-8" standalone="no"?>
<svg
   version="1.1"
   width="820px"
   height="1210px"
   style="shape-rendering:geometricPrecision; text-rendering:geometricPrecision; image-rendering:optimizeQuality; fill-rule:evenodd; clip-rule:evenodd"
   id="svg656"
   sodipodi:docname="g.svg"
   inkscape:version="1.2.1 (0f2f062aeb, 2022-09-21, custom)"
   xmlns:inkscape="http://www.inkscape.org/namespaces/inkscape"
   xmlns:sodipodi="http://sodipodi.sourceforge.net/DTD/sodipodi-0.dtd"
   xmlns="http://www.w3.org/2000/svg"
   xmlns:svg="http://www.w3.org/2000/svg">
  <defs
     id="defs660" />
  <sodipodi:namedview
     id="namedview658"
     pagecolor="#ffffff"
     bordercolor="#000000"
     borderopacity="0.25"
     inkscape:showpageshadow="2"
     inkscape:pageopacity="0.0"
     inkscape:pagecheckerboard="0"
     inkscape:deskcolor="#d1d1d1"
     showgrid="false"
     inkscape:zoom="0.49555914"
     inkscape:cx="296.63463"
     inkscape:cy="659.8607"
     inkscape:window-width="1920"
     inkscape:window-height="1014"
     inkscape:window-x="0"
     inkscape:window-y="30"
     inkscape:window-maximized="1"
     inkscape:current-layer="svg656" />
  <g
     id="g618"
     transform="matrix(0.6306242,0,0,0.59532211,147.987,174.8313)">
    <path
       style="opacity:1"
       fill="#000000"
       d="m 570.5,199.5 c 4.443,1.301 9.109,1.968 14,2 71.035,9.397 137.035,32.564 198,69.5 9.936,7.602 18.103,16.769 24.5,27.5 0.667,18.333 0.667,36.667 0,55 -20.123,30.673 -47.956,40.84 -83.5,30.5 -27.818,-11.497 -56.151,-21.831 -85,-31 -24.995,-6.666 -50.328,-11.666 -76,-15 -23.664,-0.5 -47.331,-0.667 -71,-0.5 -7.577,0.196 -14.911,1.196 -22,3 -7.008,-0.166 -14.008,0 -21,0.5 -2.208,0.191 -4.208,0.691 -6,1.5 -37.011,3.42 -63.845,-11.247 -80.5,-44 -10.984,-29.415 -5.484,-55.248 16.5,-77.5 14.761,-8.715 30.428,-15.215 47,-19.5 10.852,-0.765 21.519,-2.598 32,-5.5 37.737,-1.781 75.403,-0.615 113,3.5 z"
       id="path616" />
  </g>
  <g
     id="g622">
    <path
       style="opacity:1"
       fill="#a0a0a0"
       d="M 570.5,199.5 C 575.414,199.362 580.081,200.028 584.5,201.5C 579.609,201.468 574.943,200.801 570.5,199.5 Z"
       id="path620" />
  </g>
  <g
     id="g634"
     transform="matrix(0.6306242,0,0,0.59532211,147.987,174.8313)">
    <path
       style="opacity:1"
       fill="#000000"
       d="m 176.5,679.5 c -0.667,10.828 -1,21.828 -1,33 -0.204,15.531 0.463,30.865 2,46 4.136,76.574 32.969,141.907 86.5,196 59.28,56.55 129.78,90.55 211.5,102 6.105,1.5 12.438,2.16 19,2 19.997,2.59 39.997,2.59 60,0 34.501,-3.03 68.168,-10.03 101,-21 1.011,-73.666 1.011,-147.332 0,-221 -48.322,-0.794 -96.655,-1.294 -145,-1.5 -23.74,-2.111 -42.573,-12.611 -56.5,-31.5 -3.803,-6.579 -6.303,-13.579 -7.5,-21 -0.251,-5.007 -0.584,-10.007 -1,-15 1.596,-21.03 11.262,-37.196 29,-48.5 7.607,-4.273 15.607,-7.606 24,-10 90.333,-0.667 180.667,-0.667 271,0 4.667,2.667 9.333,5.333 14,8 5.451,5.399 8.951,11.899 10.5,19.5 0.486,132.593 0.652,264.426 0.5,395.5 -0.65,6.78 -1.317,13.61 -2,20.5 -56.177,33.84 -116.844,55.17 -182,64 -4.576,-0.06 -8.909,0.6 -13,2 -70.454,8.17 -140.454,5.34 -210,-8.5 -84.074,-17.38 -158.741,-53.38 -224,-108 C 108.25,1031.03 68.4168,969.867 44,898.5 17.7964,814.259 9.12972,728.259 18,640.5 c 3.0466,-30.611 7.7133,-60.944 14,-91 8.0698,-11.738 17.2364,-22.572 27.5,-32.5 25.4902,-15.402 52.157,-17.736 80,-7 33.281,16.909 48.948,43.909 47,81 -2.131,5.024 -2.464,10.191 -1,15.5 -5.053,24.087 -8.053,48.42 -9,73 z"
       id="path632" />
  </g>
  <g
     id="g646">
    <path
       style="opacity:1"
       fill="#aaaaaa"
       d="M 475.5,1056.5 C 482.037,1056.59 488.37,1057.25 494.5,1058.5C 487.938,1058.66 481.605,1058 475.5,1056.5 Z"
       id="path644" />
  </g>
  <g
     id="g650">
    <path
       style="opacity:1"
       fill="#888888"
       d="M 494.5,1058.5 C 514.5,1059.83 534.5,1059.83 554.5,1058.5C 534.497,1061.09 514.497,1061.09 494.5,1058.5 Z"
       id="path648" />
  </g>
  <g
     id="g654">
    <path
       style="opacity:1"
       fill="#9b9b9b"
       d="M 610.5,1196.5 C 606.409,1197.9 602.076,1198.56 597.5,1198.5C 601.591,1197.1 605.924,1196.44 610.5,1196.5 Z"
       id="path652" />
  </g>
</svg>
