<?xml version="1.0" encoding="UTF-8" standalone="no"?>
<svg
   version="1.1"
   width="450"
   height="550"
   style="clip-rule:evenodd;fill-rule:evenodd;image-rendering:optimizeQuality;shape-rendering:geometricPrecision;text-rendering:geometricPrecision"
   id="svg656"
   sodipodi:docname="g.svg"
   inkscape:version="1.1.2 (0a00cf5339, 2022-02-04)"
   xmlns:inkscape="http://www.inkscape.org/namespaces/inkscape"
   xmlns:sodipodi="http://sodipodi.sourceforge.net/DTD/sodipodi-0.dtd"
   xmlns="http://www.w3.org/2000/svg"
   xmlns:svg="http://www.w3.org/2000/svg">
  <defs
     id="defs660" />
  <sodipodi:namedview
     id="namedview658"
     pagecolor="#ffffff"
     bordercolor="#000000"
     borderopacity="0.25"
     inkscape:showpageshadow="2"
     inkscape:pageopacity="0.0"
     inkscape:pagecheckerboard="0"
     inkscape:deskcolor="#d1d1d1"
     showgrid="false"
     inkscape:zoom="0.24777957"
     inkscape:cx="201.79226"
     inkscape:cy="718.38045"
     inkscape:window-width="1125"
     inkscape:window-height="1011"
     inkscape:window-x="960"
     inkscape:window-y="32"
     inkscape:window-maximized="0"
     inkscape:current-layer="svg656"
     inkscape:pageshadow="2" />
  <g
     id="g622">
    <path
       style="opacity:1"
       fill="#a0a0a0"
       d="m 570.5,199.5 c 4.914,-0.138 9.581,0.528 14,2 -4.891,-0.032 -9.557,-0.699 -14,-2 z"
       id="path620" />
  </g>
  <g
     id="g836"
     transform="matrix(0.90680422,0,0,0.91960073,-142.65235,-270.1889)">
    <g
       id="g618"
       transform="matrix(0.63195918,0,0,0.59532211,147.30143,174.8313)">
      <path
         style="opacity:1;stroke-width:0.999999"
         fill="#000000"
         d="m 795.88191,296.81531 c 8.01988,15.38039 6.46561,43.18164 -2.44828,62.40105 -15.6073,26.20491 -50.45631,34.32386 -78.23416,24.85491 -105.80696,-47.21521 -195.52527,-45.46438 -296.26645,-40.93685 -39.92778,-0.5761 -75.94094,-38.01797 -71.10087,-78.43936 52.85868,-117.00539 377.67866,-56.73576 448.04976,32.12025 z"
         id="path616"
         sodipodi:nodetypes="cccccc" />
    </g>
    <g
       id="g634"
       transform="matrix(0.6306242,0,0,0.59532211,147.987,174.8313)">
      <path
         style="opacity:1"
         fill="#000000"
         d="m 176.5,679.5 c -5.53238,86.64211 6.59244,180.07172 64.21628,248.82066 88.50287,108.63264 287.28829,122.99874 412.62528,119.59554 V 816.5 l -151.51405,-2.68486 c -43.49651,-4.57312 -71.91436,-56.3973 -47.88076,-94.21239 18.60209,-33.15959 58.3224,-32.16783 91.13128,-30.88756 L 796.0573,689 v 108.2048 l -2.54492,325.004 C 683.11823,1238.4827 436.19402,1208.5579 318.79491,1170.917 216.65519,1135.5186 125.12849,1065.2648 74.644835,968.48043 7.2885072,840.80817 2.5462205,688.50485 32,549.5 78.37448,461.02695 200.89956,500.33986 184.65187,598.64313 184.21636,625.41893 176.06917,652.25679 176.5,679.5 Z"
         id="path632"
         sodipodi:nodetypes="ccccccccccccccc" />
    </g>
  </g>
  <g
     id="g646">
    <path
       style="opacity:1"
       fill="#aaaaaa"
       d="m 475.5,1056.5 c 6.537,0.09 12.87,0.75 19,2 -6.562,0.16 -12.895,-0.5 -19,-2 z"
       id="path644" />
  </g>
  <g
     id="g650">
    <path
       style="opacity:1"
       fill="#888888"
       d="m 494.5,1058.5 c 20,1.33 40,1.33 60,0 -20.003,2.59 -40.003,2.59 -60,0 z"
       id="path648" />
  </g>
  <g
     id="g654">
    <path
       style="opacity:1"
       fill="#9b9b9b"
       d="m 610.5,1196.5 c -4.091,1.4 -8.424,2.06 -13,2 4.091,-1.4 8.424,-2.06 13,-2 z"
       id="path652" />
  </g>
</svg>
