<?xml version="1.0" encoding="UTF-8" standalone="no"?>
<svg
   version="1.1"
   width="820px"
   height="1210px"
   style="shape-rendering:geometricPrecision; text-rendering:geometricPrecision; image-rendering:optimizeQuality; fill-rule:evenodd; clip-rule:evenodd"
   id="svg656"
   sodipodi:docname="g.svg"
   inkscape:version="1.1.2 (0a00cf5339, 2022-02-04)"
   xmlns:inkscape="http://www.inkscape.org/namespaces/inkscape"
   xmlns:sodipodi="http://sodipodi.sourceforge.net/DTD/sodipodi-0.dtd"
   xmlns="http://www.w3.org/2000/svg"
   xmlns:svg="http://www.w3.org/2000/svg">
  <defs
     id="defs660" />
  <sodipodi:namedview
     id="namedview658"
     pagecolor="#ffffff"
     bordercolor="#000000"
     borderopacity="0.25"
     inkscape:showpageshadow="2"
     inkscape:pageopacity="0.0"
     inkscape:pagecheckerboard="0"
     inkscape:deskcolor="#d1d1d1"
     showgrid="false"
     inkscape:zoom="0.99111828"
     inkscape:cx="804.14217"
     inkscape:cy="837.43789"
     inkscape:window-width="1920"
     inkscape:window-height="1052"
     inkscape:window-x="0"
     inkscape:window-y="28"
     inkscape:window-maximized="1"
     inkscape:current-layer="svg656"
     inkscape:pageshadow="2" />
  <g
     id="g618"
     transform="matrix(0.6306242,0,0,0.59532211,147.987,174.8313)">
    <path
       style="opacity:1"
       fill="#000000"
       d="m 570.5,199.5 c 53.71646,6.45088 106.9888,19.69198 156.37177,42.24448 22.06141,10.97527 45.80987,20.36213 64.42494,36.84086 15.35612,11.49205 18.27187,29.37168 16.20354,47.41466 3.84858,21.37923 -4.79251,41.12986 -23.98527,51.86227 -23.57022,16.00409 -54.27849,10.62314 -78.34448,-1.2402 C 663.78809,360.11121 621.1978,346.0911 576.90475,340.05109 548.68673,335.81711 519.95161,338.07707 491.5,337.5 c -17.44623,2.66972 -35.12156,2.35974 -52.43997,5.26764 -29.52495,3.2338 -59.86385,-11.86845 -73.81793,-38.3384 -16.04561,-27.23441 -9.4079,-65.95439 16.0362,-85.03735 19.13567,-11.08399 40.30964,-18.42043 62.35867,-20.19677 26.39003,-6.59807 54.04587,-3.45194 81.00739,-3.25031 15.31772,0.69927 30.61304,1.88675 45.85564,3.55519 z"
       id="path616" />
  </g>
  <g
     id="g622">
    <path
       style="opacity:1"
       fill="#a0a0a0"
       d="M 570.5,199.5 C 575.414,199.362 580.081,200.028 584.5,201.5C 579.609,201.468 574.943,200.801 570.5,199.5 Z"
       id="path620" />
  </g>
  <g
     id="g634"
     transform="matrix(0.6306242,0,0,0.59532211,147.987,174.8313)">
    <path
       style="opacity:1"
       fill="#000000"
       d="m 176.5,679.5 c -5.53238,86.64211 6.59244,180.07172 64.21628,248.82066 88.50287,108.63264 258.874,133.41304 384.21099,130.00984 36.47648,-23.6713 25.34854,-72.53699 31.30432,-110.61107 C 656.34416,903.9786 656.10024,860.23685 655.5,816.5 c -51.19391,-1.58516 -102.60985,0.14845 -153.67249,-2.68486 -43.49651,-4.57312 -71.91436,-56.3973 -47.88076,-94.21239 18.60209,-33.15959 58.3224,-32.16783 91.13128,-30.88756 C 619.885,688.3527 694.69419,688.44765 769.5,689 c 42.25019,18.50735 18.30958,72.6599 24.75656,108.2048 -0.35475,108.31864 1.66499,216.7643 -0.74418,325.004 -14.3655,31.1834 -63.26983,38.5895 -94.34592,53.6332 -122.74234,38.9546 -258.43929,35.764 -380.37155,-4.925 C 216.65519,1135.5186 125.12849,1065.2648 74.644835,968.48043 7.2885072,840.80817 2.5462205,688.50485 32,549.5 c 16.523387,-28.97473 47.239881,-50.43779 81.74179,-45.73596 45.69143,2.25423 82.65379,50.21945 70.91008,94.87909 -0.43551,26.7758 -8.5827,53.61366 -8.15187,80.85687 z"
       id="path632"
       sodipodi:nodetypes="cccccccccccccccccc" />
  </g>
  <g
     id="g646">
    <path
       style="opacity:1"
       fill="#aaaaaa"
       d="M 475.5,1056.5 C 482.037,1056.59 488.37,1057.25 494.5,1058.5C 487.938,1058.66 481.605,1058 475.5,1056.5 Z"
       id="path644" />
  </g>
  <g
     id="g650">
    <path
       style="opacity:1"
       fill="#888888"
       d="M 494.5,1058.5 C 514.5,1059.83 534.5,1059.83 554.5,1058.5C 534.497,1061.09 514.497,1061.09 494.5,1058.5 Z"
       id="path648" />
  </g>
  <g
     id="g654">
    <path
       style="opacity:1"
       fill="#9b9b9b"
       d="M 610.5,1196.5 C 606.409,1197.9 602.076,1198.56 597.5,1198.5C 601.591,1197.1 605.924,1196.44 610.5,1196.5 Z"
       id="path652" />
  </g>
</svg>
