<?xml version="1.0" encoding="UTF-8" standalone="no"?>
<svg
   version="1.1"
   width="820px"
   height="1210px"
   style="shape-rendering:geometricPrecision; text-rendering:geometricPrecision; image-rendering:optimizeQuality; fill-rule:evenodd; clip-rule:evenodd"
   id="svg701"
   sodipodi:docname="h.svg"
   inkscape:version="1.1.2 (0a00cf5339, 2022-02-04)"
   xmlns:inkscape="http://www.inkscape.org/namespaces/inkscape"
   xmlns:sodipodi="http://sodipodi.sourceforge.net/DTD/sodipodi-0.dtd"
   xmlns="http://www.w3.org/2000/svg"
   xmlns:svg="http://www.w3.org/2000/svg">
  <defs
     id="defs705" />
  <sodipodi:namedview
     id="namedview703"
     pagecolor="#ffffff"
     bordercolor="#000000"
     borderopacity="0.25"
     inkscape:showpageshadow="2"
     inkscape:pageopacity="0.0"
     inkscape:pagecheckerboard="0"
     inkscape:deskcolor="#d1d1d1"
     showgrid="false"
     inkscape:zoom="1.9822365"
     inkscape:cx="497.92242"
     inkscape:cy="709.29982"
     inkscape:window-width="1920"
     inkscape:window-height="1052"
     inkscape:window-x="0"
     inkscape:window-y="28"
     inkscape:window-maximized="1"
     inkscape:current-layer="g699"
     inkscape:pageshadow="2" />
  <g
     id="g699"
     transform="matrix(0.53976535,0,0,0.47954063,186.60676,262.99613)">
    <path
       style="opacity:1"
       fill="#000000"
       d="m 122.5,1209.5 c -39.190273,5.2095 -77.49295,-26.3497 -80,-66 -7.244892,-38.0452 -0.871525,-89.7093 -3.048777,-132.8124 C 39.383459,721.62497 39.566406,432.5623 40,143.5 51.592408,97.739441 106.2774,68.574502 148.57106,95.228652 c 44.85266,24.121478 37.98729,78.582698 37.63892,121.302598 0.33405,120.6559 0.43093,241.31247 0.29002,361.96875 148.99799,0.905 297.99945,1.238 447,1 -0.167,-150.66679 0,-301.33395 0.5,-452 5.04665,-49.915406 65.8263,-82.591428 108.87718,-54.803094 49.22042,28.850304 35.4097,91.098204 37.26693,138.537534 0.51882,305.75492 0.47078,611.51081 -0.14411,917.26556 -5.23062,35.5975 -33.96292,76.6093 -76.1891,72.0845 -49.46363,1.7133 -68.52183,-52.5731 -70.0377,-95.2094 C 632.89159,975.08414 632.13333,844.79238 631.5,714.5 c -148.33165,-0.833 -296.6661,-1.167 -445,-1 v 99 c 96.99677,0.91803 194.00118,1.08398 291.00053,0.5 55.58529,4.05053 60.57352,118.93827 0,129.68732 H 186.52927 c -1.35694,71.02258 3.31791,142.69668 -4.18286,213.27908 -6.21023,28.6673 -31.84401,48.4876 -59.84641,53.5336 z"
       id="path697"
       sodipodi:nodetypes="cccccccccccccccccccccc" />
  </g>
</svg>
