<?xml version="1.0" encoding="UTF-8" standalone="no"?>
<svg
   version="1.1"
   width="820px"
   height="1210px"
   style="shape-rendering:geometricPrecision; text-rendering:geometricPrecision; image-rendering:optimizeQuality; fill-rule:evenodd; clip-rule:evenodd"
   id="svg701"
   sodipodi:docname="h.svg"
   inkscape:version="1.2.1 (0f2f062aeb, 2022-09-21, custom)"
   xmlns:inkscape="http://www.inkscape.org/namespaces/inkscape"
   xmlns:sodipodi="http://sodipodi.sourceforge.net/DTD/sodipodi-0.dtd"
   xmlns="http://www.w3.org/2000/svg"
   xmlns:svg="http://www.w3.org/2000/svg">
  <defs
     id="defs705" />
  <sodipodi:namedview
     id="namedview703"
     pagecolor="#ffffff"
     bordercolor="#000000"
     borderopacity="0.25"
     inkscape:showpageshadow="2"
     inkscape:pageopacity="0.0"
     inkscape:pagecheckerboard="0"
     inkscape:deskcolor="#d1d1d1"
     showgrid="false"
     inkscape:zoom="0.49555913"
     inkscape:cx="587.2155"
     inkscape:cy="702.23709"
     inkscape:window-width="1920"
     inkscape:window-height="1014"
     inkscape:window-x="0"
     inkscape:window-y="30"
     inkscape:window-maximized="1"
     inkscape:current-layer="svg701" />
  <g
     id="g699"
     transform="matrix(0.53976535,0,0,0.47954063,186.60676,262.99613)">
    <path
       style="opacity:1"
       fill="#000000"
       d="m 122.5,1209.5 c -6.333,0 -12.667,0 -19,0 -35.5195,-7.86 -55.8528,-29.86 -61,-66 -1,0 -2,0 -3,0 -0.1667,-333.333 0,-666.667 0.5,-1000 3.59,-6.848 6.9233,-13.848 10,-21 7.0973,-13.641 17.5973,-23.8075 31.5,-30.5 27.074,-11.1603 52.407,-8.1603 76,9 14.754,12.998 24.254,29.164 28.5,48.5 0.5,143 0.667,286 0.5,429 148.998,0.905 297.998,1.238 447,1 -0.167,-150.667 0,-301.334 0.5,-452 3.493,-19.157 12.326,-35.3233 26.5,-48.5 28.634,-20.8576 57.968,-21.8576 88,-3 18.168,14.826 28.668,33.993 31.5,57.5 0.667,331.667 0.667,663.333 0,995 -1,0.67 -2,1.33 -3,2 -2.862,36.26 -21.695,59.42 -56.5,69.5 -46.743,4.71 -75.576,-15.79 -86.5,-61.5 -0.979,-141.333 -1.813,-282.666 -2.5,-424 -148.332,-0.833 -296.665,-1.167 -445,-1 0,33 0,66 0,99 96.995,0.918 193.995,1.084 291,0.5 28.608,5.274 46.108,22.108 52.5,50.5 3.127,39.284 -14.373,63.451 -52.5,72.5 -97.005,-0.584 -194.005,-0.418 -291,0.5 0.333,66 0,132 -1,198 -2.054,41.2 -23.054,66.2 -63,75 z"
       id="path697" />
  </g>
</svg>
