<?xml version="1.0" encoding="UTF-8" standalone="no"?>
<svg
   version="1.1"
   width="400"
   height="550"
   style="clip-rule:evenodd;fill-rule:evenodd;image-rendering:optimizeQuality;shape-rendering:geometricPrecision;text-rendering:geometricPrecision"
   id="svg701"
   sodipodi:docname="h.svg"
   inkscape:version="1.1.2 (0a00cf5339, 2022-02-04)"
   xmlns:inkscape="http://www.inkscape.org/namespaces/inkscape"
   xmlns:sodipodi="http://sodipodi.sourceforge.net/DTD/sodipodi-0.dtd"
   xmlns="http://www.w3.org/2000/svg"
   xmlns:svg="http://www.w3.org/2000/svg">
  <defs
     id="defs705" />
  <sodipodi:namedview
     id="namedview703"
     pagecolor="#ffffff"
     bordercolor="#000000"
     borderopacity="0.25"
     inkscape:showpageshadow="2"
     inkscape:pageopacity="0.0"
     inkscape:pagecheckerboard="0"
     inkscape:deskcolor="#d1d1d1"
     showgrid="false"
     inkscape:zoom="0.49555913"
     inkscape:cx="278.47333"
     inkscape:cy="413.67415"
     inkscape:window-width="1125"
     inkscape:window-height="1011"
     inkscape:window-x="960"
     inkscape:window-y="32"
     inkscape:window-maximized="0"
     inkscape:current-layer="g699"
     inkscape:pageshadow="2" />
  <g
     id="g699"
     transform="matrix(0.53976535,0,0,0.47954063,-21.590564,-47.27414)">
    <path
       style="opacity:1;stroke-width:1.01984"
       fill="#000000"
       d="M 42.503103,1202.7695 40,141.3211 c -0.134382,-56.985184 146.35513,-56.985384 146.39143,0 l 0.29038,455.79547 447.55475,1.03879 0.50062,-456.83426 c 0.0624,-56.95968 146.33323,-56.959727 146.32549,0 l -0.14429,1061.4484 c -0.008,56.9919 -146.12895,56.991 -146.40828,0 l -2.27602,-464.37734 -445.55227,-1.03879 v 102.84032 l 291.36168,0.5194 c 38.4534,0.0686 38.45345,134.71804 0,134.71804 H 186.71112 l -4.18805,227.33837 c -1.00386,54.4926 -139.891434,54.5051 -140.019967,0 z"
       id="path697"
       sodipodi:nodetypes="sssccsssscccsscss" />
  </g>
</svg>
