<?xml version="1.0" encoding="UTF-8" standalone="no"?>
<svg
   version="1.1"
   width="820px"
   height="1210px"
   style="shape-rendering:geometricPrecision; text-rendering:geometricPrecision; image-rendering:optimizeQuality; fill-rule:evenodd; clip-rule:evenodd"
   id="svg821"
   sodipodi:docname="j.svg"
   inkscape:version="1.2.1 (0f2f062aeb, 2022-09-21, custom)"
   xmlns:inkscape="http://www.inkscape.org/namespaces/inkscape"
   xmlns:sodipodi="http://sodipodi.sourceforge.net/DTD/sodipodi-0.dtd"
   xmlns="http://www.w3.org/2000/svg"
   xmlns:svg="http://www.w3.org/2000/svg">
  <defs
     id="defs825" />
  <sodipodi:namedview
     id="namedview823"
     pagecolor="#ffffff"
     bordercolor="#000000"
     borderopacity="0.25"
     inkscape:showpageshadow="2"
     inkscape:pageopacity="0.0"
     inkscape:pagecheckerboard="0"
     inkscape:deskcolor="#d1d1d1"
     showgrid="false"
     inkscape:zoom="0.24777957"
     inkscape:cx="246.18656"
     inkscape:cy="649.77109"
     inkscape:window-width="1920"
     inkscape:window-height="1014"
     inkscape:window-x="0"
     inkscape:window-y="30"
     inkscape:window-maximized="1"
     inkscape:current-layer="svg821" />
  <g
     id="g795"
     transform="matrix(0.51284865,0,0,0.49115914,198.91656,245.76732)">
    <path
       style="opacity:1"
       fill="#000000"
       d="m 742.5,317.5 c -4.184,0.351 -8.184,1.018 -12,2 -1.599,-0.268 -2.932,0.066 -4,1 -55.667,0 -111.333,0 -167,0 0,9 0,18 0,27 0,1.333 0,2.667 0,4 -1.625,127.497 -2.625,255.164 -3,383 0.974,63.109 -1.026,126.109 -6,189 -1.64,7.111 -2.64,14.444 -3,22 -4.323,27 -9.823,54 -16.5,81 -8.174,27.29 -19.174,53.29 -33,78 -27.343,43.67 -64.843,75.5 -112.5,95.5 -15.661,3.9 -31.328,7.07 -47,9.5 -29.667,0 -59.333,0 -89,0 -13.582,-2.98 -27.248,-6.14 -41,-9.5 -48.126,-15.79 -87.959,-43.29 -119.5,-82.5 -39.9715,-55.26 -59.9715,-117.26 -60,-186 2.5226,-7.134 4.1893,-14.467 5,-22 3.722,-13.948 10.8887,-25.782 21.5,-35.5 26.9027,-20.846 54.569,-21.846 83,-3 21.839,17.523 31.839,40.357 30,68.5 -0.05,5.889 0.616,11.556 2,17 1.826,21.645 7.993,41.978 18.5,61 7.779,10.78 16.613,20.61 26.5,29.5 24.387,19.9 52.387,28.57 84,26 45.826,-8.19 77.326,-34.02 94.5,-77.5 9.865,-28.854 15.532,-58.521 17,-89 0.5,-69.999 0.667,-139.999 0.5,-210 -42.751,0.583 -85.584,0.583 -128.5,0 -9.028,2.463 -18.028,2.463 -27,0 -17.866,3.606 -34.7,0.772 -50.5,-8.5 -28.83,-23.483 -36.663,-52.65 -23.5,-87.5 15.728,-28.615 39.895,-40.948 72.5,-37 4.51,-0.634 9.01,-1.301 13.5,-2 22.668,0.148 45.334,0.481 68,1 4.684,-0.601 9.35,-1.268 14,-2 8.916,2.083 17.916,2.083 27,0 11.152,0.76 22.319,0.76 33.5,0 0.999,-79.832 1.333,-159.832 1,-240 -59.667,0 -119.333,0 -179,0 -10.859,-1.266 -21.526,-3.432 -32,-6.5 -6.246,-4.088 -12.912,-7.421 -20,-10 -13.871,-12.924 -21.204,-28.924 -22,-48 0.542,-21.09 9.209,-37.757 26,-50 6.414,-2.041 12.081,-5.374 17,-10 5.216,-0.554 10.216,-1.887 15,-4 14.667,-0.167 29.333,-0.333 44,-0.5 167.361,0.444 334.694,1.277 502,2.5 8.993,4.495 17.66,9.495 26,15 4.546,4.877 8.713,10.044 12.5,15.5 14.605,31.757 9.105,59.59 -16.5,83.5 -6.152,2.527 -12.485,4.527 -19,6 -7.918,0.444 -15.585,1.611 -23,3.5 z"
       id="path793" />
  </g>
  <g
     id="g799">
    <path
       style="opacity:1"
       fill="#898989"
       d="M 742.5,317.5 C 738.817,319.25 734.817,319.917 730.5,319.5C 734.316,318.518 738.316,317.851 742.5,317.5 Z"
       id="path797" />
  </g>
  <g
     id="g815">
    <path
       style="opacity:1"
       fill="#aaaaaa"
       d="M 550.5,923.5 C 550.304,931.077 549.304,938.411 547.5,945.5C 547.86,937.944 548.86,930.611 550.5,923.5 Z"
       id="path813" />
  </g>
  <g
     id="g819">
    <path
       style="opacity:1"
       fill="#5f5f5f"
       d="M 168.5,939.5 C 169.884,944.944 170.55,950.611 170.5,956.5C 169.116,951.056 168.45,945.389 168.5,939.5 Z"
       id="path817" />
  </g>
</svg>
