<?xml version="1.0" encoding="UTF-8" standalone="no"?>
<svg
   version="1.1"
   width="400"
   height="550"
   style="clip-rule:evenodd;fill-rule:evenodd;image-rendering:optimizeQuality;shape-rendering:geometricPrecision;text-rendering:geometricPrecision"
   id="svg821"
   sodipodi:docname="j.svg"
   inkscape:version="1.1.2 (0a00cf5339, 2022-02-04)"
   xmlns:inkscape="http://www.inkscape.org/namespaces/inkscape"
   xmlns:sodipodi="http://sodipodi.sourceforge.net/DTD/sodipodi-0.dtd"
   xmlns="http://www.w3.org/2000/svg"
   xmlns:svg="http://www.w3.org/2000/svg">
  <defs
     id="defs825" />
  <sodipodi:namedview
     id="namedview823"
     pagecolor="#ffffff"
     bordercolor="#000000"
     borderopacity="0.25"
     inkscape:showpageshadow="2"
     inkscape:pageopacity="0.0"
     inkscape:pagecheckerboard="0"
     inkscape:deskcolor="#d1d1d1"
     showgrid="false"
     inkscape:zoom="0.70710678"
     inkscape:cx="337.99704"
     inkscape:cy="175.36248"
     inkscape:window-width="1125"
     inkscape:window-height="1011"
     inkscape:window-x="960"
     inkscape:window-y="32"
     inkscape:window-maximized="0"
     inkscape:current-layer="g795"
     inkscape:pageshadow="2"
     inkscape:snap-grids="true">
    <inkscape:grid
       type="xygrid"
       id="grid2559"
       originx="-209.73578"
       originy="-339.856" />
  </sodipodi:namedview>
  <g
     id="g795"
     transform="matrix(0.51284865,0,0,0.49115914,-14.855067,-94.08868)">
    <path
       style="opacity:1;stroke-width:1.07535"
       fill="#000000"
       d="M 778.08569,326.19484 H 583.25031 c 0,0 1.46151,384.25054 -0.43946,572.77674 -3.9732,107.33382 10.69396,221.87862 -71.80014,313.70802 -42.51321,62.7715 -114.375,104.395 -188.68222,98.0469 -38.5223,0.7617 -77.46892,1.5926 -113.91735,-13.8507 -115.370958,-40.3973 -181.209689,-169.489 -179.409368,-291.7944 9.353549,-120.99793 144.133178,-112.67501 146.726178,8.7955 -0.52817,62.6702 35.52263,128.0441 96.32663,143.389 67.24487,19.9772 148.35471,-36.335 159.42924,-105.8081 V 747.02642 l -217.39526,0.22421 c -49.22157,-40.5166 -49.22157,-107.67057 0,-147.96296 63.57786,-4.47693 142.19565,0 215.34436,0 V 326.19484 H 234.59755 c -43.2931,0 -43.2931,-134.63029 0,-134.63029 h 543.48814 c 41.11641,0 41.11641,134.63029 0,134.63029 z"
       id="path793"
       sodipodi:nodetypes="sccccccccccccccssss" />
  </g>
  <g
     id="g799"
     transform="translate(-209.73578,-339.856)">
    <path
       style="opacity:1"
       fill="#898989"
       d="m 742.5,317.5 c -3.683,1.75 -7.683,2.417 -12,2 3.816,-0.982 7.816,-1.649 12,-2 z"
       id="path797" />
  </g>
  <g
     id="g815"
     transform="translate(-209.73578,-339.856)" />
  <g
     id="g819"
     transform="translate(-209.73578,-339.856)" />
</svg>
