<?xml version="1.0" encoding="UTF-8" standalone="no"?>
<svg
   version="1.1"
   width="820px"
   height="1210px"
   style="shape-rendering:geometricPrecision; text-rendering:geometricPrecision; image-rendering:optimizeQuality; fill-rule:evenodd; clip-rule:evenodd"
   id="svg895"
   sodipodi:docname="k.svg"
   inkscape:version="1.2.1 (0f2f062aeb, 2022-09-21, custom)"
   xmlns:inkscape="http://www.inkscape.org/namespaces/inkscape"
   xmlns:sodipodi="http://sodipodi.sourceforge.net/DTD/sodipodi-0.dtd"
   xmlns="http://www.w3.org/2000/svg"
   xmlns:svg="http://www.w3.org/2000/svg">
  <defs
     id="defs899" />
  <sodipodi:namedview
     id="namedview897"
     pagecolor="#ffffff"
     bordercolor="#000000"
     borderopacity="0.25"
     inkscape:showpageshadow="2"
     inkscape:pageopacity="0.0"
     inkscape:pagecheckerboard="0"
     inkscape:deskcolor="#d1d1d1"
     showgrid="false"
     inkscape:zoom="0.35041322"
     inkscape:cx="176.93396"
     inkscape:cy="836.15566"
     inkscape:window-width="1920"
     inkscape:window-height="1014"
     inkscape:window-x="0"
     inkscape:window-y="30"
     inkscape:window-maximized="1"
     inkscape:current-layer="svg895" />
  <g
     id="g893"
     transform="matrix(0.54644807,0,0,0.48302934,205.10223,271.88248)">
    <path
       style="opacity:1"
       fill="#000000"
       d="m 129.5,1209.5 c -20.333,0 -40.6667,0 -61,0 -11.677,-5.16 -21.5103,-12.83 -29.5,-23 -7.895,-11.79 -14.2283,-24.46 -19,-38 -0.6667,-331 -0.6667,-662 0,-993 5.0422,-12.79 11.0422,-25.123 18,-37 9.2324,-11.536 20.7324,-20.0363 34.5,-25.5 38.166,-11.1686 68.666,-0.6686 91.5,31.5 5.056,10.501 9.722,21.168 14,32 0.333,126 0.667,252 1,378 112.667,-146.667 225.333,-293.333 338,-440 11.375,-11.2721 24.875,-18.7721 40.5,-22.5 39.327,-5.5891 67.827,9.2443 85.5,44.5 12.461,35.826 4.795,66.16 -23,91 -65.622,88.411 -131.122,176.911 -196.5,265.5 8.628,16.756 17.128,33.589 25.5,50.5 6.362,8.057 11.028,17.057 14,27 6.556,8.442 11.556,17.776 15,28 5.973,8.277 10.639,17.277 14,27 1.574,1.484 2.907,3.151 4,5 4.738,11.259 10.404,21.925 17,32 7.59,14.846 14.923,29.846 22,45 5.973,8.277 10.639,17.277 14,27 6.164,7.326 10.497,15.66 13,25 2.333,3.333 4.667,6.667 7,10 7.923,15.513 15.59,31.18 23,47 2,2.667 4,5.333 6,8 3.354,9.765 8.021,18.765 14,27 7.59,14.846 14.923,29.846 22,45 2.333,3.333 4.667,6.667 7,10 3.354,9.765 8.021,18.765 14,27 7.59,14.846 14.923,29.846 22,45 2.333,3.333 4.667,6.667 7,10 3.354,9.765 8.021,18.765 14,27 7.59,14.85 14.923,29.85 22,45 6.498,7.99 11.164,16.99 14,27 11.167,14.01 17,30.01 17.5,48 -3.35,41.56 -25.35,66.73 -66,75.5 -42.163,2.68 -70.33,-15.82 -84.5,-55.5 -6.498,-7.99 -11.164,-16.99 -14,-27 -6.498,-7.99 -11.164,-16.99 -14,-27 -6.556,-8.44 -11.556,-17.78 -15,-28 -6.362,-8.06 -11.028,-17.06 -14,-27 -2.723,-3.06 -5.056,-6.39 -7,-10 -7.59,-14.85 -14.923,-29.846 -22,-45 -6.362,-8.057 -11.028,-17.057 -14,-27 -2.723,-3.057 -5.056,-6.39 -7,-10 -7.59,-14.846 -14.923,-29.846 -22,-45 -6.362,-8.057 -11.028,-17.057 -14,-27 -2.723,-3.057 -5.056,-6.39 -7,-10 -7.59,-14.846 -14.923,-29.846 -22,-45 -6.362,-8.057 -11.028,-17.057 -14,-27 -2.723,-3.057 -5.056,-6.39 -7,-10 -7.59,-14.846 -14.923,-29.846 -22,-45 -3.163,-3.656 -5.829,-7.656 -8,-12 -2.306,-8.612 -6.306,-16.278 -12,-23 -12.876,-24.419 -25.209,-49.086 -37,-74 -3.079,-3.824 -5.912,-7.824 -8.5,-12 -13.265,17.435 -27.099,34.435 -41.5,51 -1.586,2.17 -2.92,4.504 -4,7 -6.903,7.48 -13.569,15.146 -20,23 -2.86,5.865 -6.86,10.865 -12,15 -6.333,8.667 -12.667,17.333 -19,26 -6.46,5.593 -11.46,12.26 -15,20 -0.333,-0.333 -0.667,-0.667 -1,-1 -3.23,4.863 -7.396,8.696 -12.5,11.5 -4.753,6.674 -10.086,12.84 -16,18.5 -0.833,123.999 -1.333,248 -1.5,372 -4.983,13.63 -11.316,26.63 -19,39 -7.99,10.17 -17.823,17.84 -29.5,23 z"
       id="path891" />
  </g>
</svg>
