<?xml version="1.0" encoding="UTF-8" standalone="no"?>
<svg
   version="1.1"
   width="820px"
   height="1210px"
   style="shape-rendering:geometricPrecision; text-rendering:geometricPrecision; image-rendering:optimizeQuality; fill-rule:evenodd; clip-rule:evenodd"
   id="svg895"
   sodipodi:docname="k.svg"
   inkscape:version="1.1.2 (0a00cf5339, 2022-02-04)"
   xmlns:inkscape="http://www.inkscape.org/namespaces/inkscape"
   xmlns:sodipodi="http://sodipodi.sourceforge.net/DTD/sodipodi-0.dtd"
   xmlns="http://www.w3.org/2000/svg"
   xmlns:svg="http://www.w3.org/2000/svg">
  <defs
     id="defs899">
    <inkscape:path-effect
       effect="simplify"
       id="path-effect3438"
       is_visible="true"
       lpeversion="1"
       steps="1"
       threshold="0.001"
       smooth_angles="0"
       helper_size="5"
       simplify_individual_paths="false"
       simplify_just_coalesce="false" />
  </defs>
  <sodipodi:namedview
     id="namedview897"
     pagecolor="#ffffff"
     bordercolor="#000000"
     borderopacity="0.25"
     inkscape:showpageshadow="2"
     inkscape:pageopacity="0.0"
     inkscape:pagecheckerboard="0"
     inkscape:deskcolor="#d1d1d1"
     showgrid="false"
     inkscape:zoom="3.0604868"
     inkscape:cx="491.75184"
     inkscape:cy="421.50157"
     inkscape:window-width="1920"
     inkscape:window-height="1052"
     inkscape:window-x="0"
     inkscape:window-y="28"
     inkscape:window-maximized="1"
     inkscape:current-layer="g893"
     inkscape:pageshadow="2"
     inkscape:snap-bbox="true">
    <inkscape:grid
       type="xygrid"
       id="grid3522" />
  </sodipodi:namedview>
  <g
     id="g893"
     transform="matrix(0.54644807,0,0,0.48302934,205.10223,271.88248)">
    <path
       style="opacity:1"
       fill="#000000"
       d="m 128.52292,1209.2796 c -20.13,8.2811 -40.869998,8.2811 -60.999999,0 C 13.958729,1186.3571 17.149154,1120.9964 20.468404,1072.1946 19.947525,766.63003 19.384818,461.06444 20.000287,155.5 29.762695,103.44247 92.827577,70.326691 139.69794,98.477267 185.1703,123.26371 176.92191,181.8786 178.18456,226.1784 L 179.00029,534.5 521.36523,90.44978 c 33.69259,-48.141298 126.17008,-4.707379 120.33193,69.02209 L 534.42209,323.06097 423.5,473 c 95.12701,195.38037 190.25402,390.76073 285.38103,586.1411 22.93191,44.5548 47.86335,101.7111 2.13284,135.212 -42.39228,33.3727 -98.15093,2.5049 -123.05373,-42.4285 C 497.25017,971.94432 406.5402,791.96405 315.83023,611.98378 270.24255,656.82252 224.65488,701.66126 179.0672,746.5 c -0.35564,133.66667 -0.10127,267.3333 -0.45691,401 -2.67506,27.6338 -24.49023,51.8659 -50.08737,61.7796 z"
       id="path891"
       sodipodi:nodetypes="cccccccccccccccccc" />
  </g>
</svg>
