<?xml version="1.0" encoding="UTF-8" standalone="no"?>
<svg
   version="1.1"
   width="820px"
   height="1210px"
   style="shape-rendering:geometricPrecision; text-rendering:geometricPrecision; image-rendering:optimizeQuality; fill-rule:evenodd; clip-rule:evenodd"
   id="svg940"
   sodipodi:docname="l.svg"
   inkscape:version="1.2.1 (0f2f062aeb, 2022-09-21, custom)"
   xmlns:inkscape="http://www.inkscape.org/namespaces/inkscape"
   xmlns:sodipodi="http://sodipodi.sourceforge.net/DTD/sodipodi-0.dtd"
   xmlns="http://www.w3.org/2000/svg"
   xmlns:svg="http://www.w3.org/2000/svg">
  <defs
     id="defs944" />
  <sodipodi:namedview
     id="namedview942"
     pagecolor="#ffffff"
     bordercolor="#000000"
     borderopacity="0.25"
     inkscape:showpageshadow="2"
     inkscape:pageopacity="0.0"
     inkscape:pagecheckerboard="0"
     inkscape:deskcolor="#d1d1d1"
     showgrid="false"
     inkscape:zoom="0.35041322"
     inkscape:cx="-165.51887"
     inkscape:cy="884.66981"
     inkscape:window-width="1920"
     inkscape:window-height="1014"
     inkscape:window-x="0"
     inkscape:window-y="30"
     inkscape:window-maximized="1"
     inkscape:current-layer="svg940" />
  <g
     id="g938"
     transform="matrix(0.55782765,0,0,0.49711542,216.87964,261.3115)">
    <path
       style="opacity:1"
       fill="#000000"
       d="m 656.5,1209.5 c -207,0 -414,0 -621,0 -14.0691,-6.24 -23.9025,-16.57 -29.5,-31 -0.02202,-332.667 0.31132,-665.333 1,-998 3.5891,-18.575 11.2558,-35.242 23,-50 31.0738,-30.281 65.9071,-35.4476 104.5,-15.5 12.46,8.793 23.293,19.293 32.5,31.5 3.786,5.908 6.786,12.242 9,19 0.556,296 0.389,592 -0.5,888 158.335,0.01 316.668,0.51 475,1.5 4.957,1.49 9.957,2.82 15,4 39.68,14.19 58.847,42.36 57.5,84.5 -6.844,37.68 -29.011,59.68 -66.5,66 z"
       id="path936" />
  </g>
</svg>
