<?xml version="1.0" encoding="UTF-8" standalone="no"?>
<svg
   version="1.1"
   width="820px"
   height="1210px"
   style="shape-rendering:geometricPrecision; text-rendering:geometricPrecision; image-rendering:optimizeQuality; fill-rule:evenodd; clip-rule:evenodd"
   id="svg1041"
   sodipodi:docname="m.svg"
   inkscape:version="1.2.1 (0f2f062aeb, 2022-09-21, custom)"
   xmlns:inkscape="http://www.inkscape.org/namespaces/inkscape"
   xmlns:sodipodi="http://sodipodi.sourceforge.net/DTD/sodipodi-0.dtd"
   xmlns="http://www.w3.org/2000/svg"
   xmlns:svg="http://www.w3.org/2000/svg">
  <defs
     id="defs1045" />
  <sodipodi:namedview
     id="namedview1043"
     pagecolor="#ffffff"
     bordercolor="#000000"
     borderopacity="0.25"
     inkscape:showpageshadow="2"
     inkscape:pageopacity="0.0"
     inkscape:pagecheckerboard="0"
     inkscape:deskcolor="#d1d1d1"
     showgrid="false"
     inkscape:zoom="0.49555913"
     inkscape:cx="155.38004"
     inkscape:cy="639.68148"
     inkscape:window-width="1920"
     inkscape:window-height="1014"
     inkscape:window-x="0"
     inkscape:window-y="30"
     inkscape:window-maximized="1"
     inkscape:current-layer="svg1041" />
  <g
     id="g983"
     transform="matrix(0.5114271,0,0,0.47813756,194.24814,235.96079)">
    <path
       style="opacity:1"
       fill="#000000"
       d="m 801.5,1209.5 c -49,0 -98,0 -147,0 0.068,-84.33 0.401,-168.67 1,-253 -162.678,0.567 -325.344,0.901 -488,1 -0.877,83.66 -1.211,167.33 -1,251 -49,0 -98,0 -147,0 -0.1667,-323.667 0,-647.334 0.5,-971 3.8999,-9.133 7.2332,-18.466 10,-28 4.7377,-5.14 8.7377,-10.807 12,-17 5.4469,-4.961 10.9469,-9.794 16.5,-14.5 36.4039,-18.307 69.404,-13.474 99,14.5 8.341,11.507 18.174,21.507 29.5,30 64.291,132.584 128.624,265.251 193,398 6.657,13.982 13.823,27.649 21.5,41 6.07,-9.129 11.903,-18.462 17.5,-28 70.782,-130.226 142.116,-260.226 214,-390 2.445,-4.924 4.612,-9.924 6.5,-15 1.333,0 2.667,0 4,0 1.792,-10.258 5.292,-19.924 10.5,-29 18.576,-25.703 43.742,-37.536 75.5,-35.5 42.019,9.356 64.852,35.523 68.5,78.5 0.615,1.616 1.615,2.949 3,4 0.5,321 0.667,642 0.5,963 z"
       id="path981" />
  </g>
  <g
     id="g991"
     transform="matrix(0.5114271,0,0,0.47813756,194.24814,235.96079)">
    <path
       style="opacity:1"
       fill="#fdfdfd"
       d="m 171.5,523.5 c 55.361,98.064 110.695,196.064 166,294 -3.732,1.631 -7.732,2.631 -12,3 -3,0 -6,0 -9,0 -9.171,-1.035 -18.505,-1.035 -28,0 -8.838,-1.018 -17.838,-1.018 -27,0 -9,0 -18,0 -27,0 -9.171,-1.035 -18.505,-1.035 -28,0 -8.838,-1.018 -17.838,-1.018 -27,0 -3.667,-0.667 -7.333,-1.333 -11,-2 -0.291,-83.34 0.043,-166.674 1,-250 0.667,-15 1.333,-30 2,-45 z"
       id="path989" />
  </g>
  <g
     id="g995"
     transform="matrix(0.5114271,0,0,0.47813756,194.24814,235.96079)">
    <path
       style="opacity:1"
       fill="#fefefe"
       d="m 645.5,820.5 c -9.171,-1.035 -18.505,-1.035 -28,0 -8.838,-1.018 -17.838,-1.018 -27,0 -9.171,-1.035 -18.505,-1.035 -28,0 -8.838,-1.018 -17.838,-1.018 -27,0 -9,0 -18,0 -27,0 -9.171,-1.035 -18.505,-1.035 -28,0 -2.747,0.313 -5.414,-0.02 -8,-1 1.274,-6.235 3.44,-12.235 6.5,-18 59.128,-92.229 117.795,-184.896 176,-278 0.5,98.999 0.667,197.999 0.5,297 -3.333,0 -6.667,0 -10,0 z"
       id="path993" />
  </g>
  <g
     id="g999">
    <path
       style="opacity:1"
       fill="#797979"
       d="M 168.5,818.5 C 172.167,819.167 175.833,819.833 179.5,820.5C 175.445,820.824 171.445,820.491 167.5,819.5C 167.624,818.893 167.957,818.56 168.5,818.5 Z"
       id="path997" />
  </g>
  <g
     id="g1003">
    <path
       style="opacity:1"
       fill="#858585"
       d="M 206.5,820.5 C 197.318,820.914 188.318,820.914 179.5,820.5C 188.662,819.482 197.662,819.482 206.5,820.5 Z"
       id="path1001" />
  </g>
  <g
     id="g1007">
    <path
       style="opacity:1"
       fill="#848484"
       d="M 234.5,820.5 C 224.984,820.891 215.651,820.891 206.5,820.5C 215.995,819.465 225.329,819.465 234.5,820.5 Z"
       id="path1005" />
  </g>
  <g
     id="g1011">
    <path
       style="opacity:1"
       fill="#858585"
       d="M 288.5,820.5 C 279.318,820.914 270.318,820.914 261.5,820.5C 270.662,819.482 279.662,819.482 288.5,820.5 Z"
       id="path1009" />
  </g>
  <g
     id="g1015">
    <path
       style="opacity:1"
       fill="#898989"
       d="M 316.5,820.5 C 306.984,820.891 297.651,820.891 288.5,820.5C 297.995,819.465 307.329,819.465 316.5,820.5 Z"
       id="path1013" />
  </g>
  <g
     id="g1019">
    <path
       style="opacity:1"
       fill="#7f7f7f"
       d="M 337.5,817.5 C 338.404,818.209 338.737,819.209 338.5,820.5C 334.167,820.5 329.833,820.5 325.5,820.5C 329.768,820.131 333.768,819.131 337.5,817.5 Z"
       id="path1017" />
  </g>
  <g
     id="g1023">
    <path
       style="opacity:1"
       fill="#848484"
       d="M 508.5,820.5 C 498.984,820.891 489.651,820.891 480.5,820.5C 489.995,819.465 499.329,819.465 508.5,820.5 Z"
       id="path1021" />
  </g>
  <g
     id="g1027">
    <path
       style="opacity:1"
       fill="#858585"
       d="M 562.5,820.5 C 553.318,820.914 544.318,820.914 535.5,820.5C 544.662,819.482 553.662,819.482 562.5,820.5 Z"
       id="path1025" />
  </g>
  <g
     id="g1031">
    <path
       style="opacity:1"
       fill="#878787"
       d="M 590.5,820.5 C 580.984,820.891 571.651,820.891 562.5,820.5C 571.995,819.465 581.329,819.465 590.5,820.5 Z"
       id="path1029" />
  </g>
  <g
     id="g1035">
    <path
       style="opacity:1"
       fill="#848484"
       d="M 617.5,820.5 C 608.318,820.914 599.318,820.914 590.5,820.5C 599.662,819.482 608.662,819.482 617.5,820.5 Z"
       id="path1033" />
  </g>
  <g
     id="g1039">
    <path
       style="opacity:1"
       fill="#848484"
       d="M 645.5,820.5 C 635.984,820.891 626.651,820.891 617.5,820.5C 626.995,819.465 636.329,819.465 645.5,820.5 Z"
       id="path1037" />
  </g>
</svg>
