<?xml version="1.0" encoding="UTF-8" standalone="no"?>
<svg
   version="1.1"
   width="820px"
   height="1210px"
   style="shape-rendering:geometricPrecision; text-rendering:geometricPrecision; image-rendering:optimizeQuality; fill-rule:evenodd; clip-rule:evenodd"
   id="svg1139"
   sodipodi:docname="n.svg"
   inkscape:version="1.2.1 (0f2f062aeb, 2022-09-21, custom)"
   xmlns:inkscape="http://www.inkscape.org/namespaces/inkscape"
   xmlns:sodipodi="http://sodipodi.sourceforge.net/DTD/sodipodi-0.dtd"
   xmlns="http://www.w3.org/2000/svg"
   xmlns:svg="http://www.w3.org/2000/svg">
  <defs
     id="defs1143" />
  <sodipodi:namedview
     id="namedview1141"
     pagecolor="#ffffff"
     bordercolor="#000000"
     borderopacity="0.25"
     inkscape:showpageshadow="2"
     inkscape:pageopacity="0.0"
     inkscape:pagecheckerboard="0"
     inkscape:deskcolor="#d1d1d1"
     showgrid="false"
     inkscape:zoom="0.35041322"
     inkscape:cx="465.16509"
     inkscape:cy="493.70283"
     inkscape:window-width="1920"
     inkscape:window-height="1014"
     inkscape:window-x="0"
     inkscape:window-y="30"
     inkscape:window-maximized="1"
     inkscape:current-layer="svg1139" />
  <g
     id="g1133"
     transform="matrix(0.5108555,0,0,0.42265427,189.90928,293.7577)">
    <path
       style="opacity:1"
       fill="#000000"
       d="m 761.5,1209.5 c -30.667,0 -61.333,0 -92,0 -6.609,-2.76 -12.609,-6.59 -18,-11.5 -20.519,-18.19 -37.352,-39.35 -50.5,-63.5 -4.838,-4.51 -8.505,-9.84 -11,-16 -6.658,-5.66 -11.325,-12.66 -14,-21 -9.712,-10.71 -17.379,-22.71 -23,-36 -126,-244.667 -252,-489.333 -378,-734 -0.333,274 -0.667,548 -1,822 -5.633,27.78 -21.133,47.78 -46.5,60 -19.667,0 -39.3333,0 -59,0 -26.9381,-12.82 -42.4381,-34.16 -46.5,-64 -0.6667,-326.333 -0.6667,-652.667 0,-979 1.7799,-17.608 2.7799,-35.274 3,-53 2.9632,-9.779 4.6299,-19.7792 5,-30 20.7568,-36.0608 52.0901,-55.0608 94,-57 46.538,2.5687 79.538,24.9021 99,67 1.667,1 3.333,2 5,3 141.744,281.156 283.744,562.156 426,843 0.5,-254 0.667,-508 0.5,-762 -85.319,1.017 -170.652,1.184 -256,0.5 -4,-1 -8,-2 -12,-3 C 351.329,160.171 335.496,133.671 339,95.5 346.586,63.5809 366.419,44.0809 398.5,37 501.695,36.187 604.861,36.3537 708,37.5 c 9.671,-2.6671 19.504,-3.5004 29.5,-2.5 35.287,6.2861 57.454,26.7861 66.5,61.5 0.667,346 0.667,692 0,1038 -2.824,31.67 -16.991,56.67 -42.5,75 z"
       id="path1131" />
  </g>
</svg>
