<?xml version="1.0" encoding="UTF-8" standalone="no"?>
<svg
   version="1.1"
   width="820px"
   height="1210px"
   style="shape-rendering:geometricPrecision; text-rendering:geometricPrecision; image-rendering:optimizeQuality; fill-rule:evenodd; clip-rule:evenodd"
   id="svg1139"
   sodipodi:docname="n.svg"
   inkscape:version="1.1.2 (0a00cf5339, 2022-02-04)"
   xmlns:inkscape="http://www.inkscape.org/namespaces/inkscape"
   xmlns:sodipodi="http://sodipodi.sourceforge.net/DTD/sodipodi-0.dtd"
   xmlns="http://www.w3.org/2000/svg"
   xmlns:svg="http://www.w3.org/2000/svg">
  <defs
     id="defs1143" />
  <sodipodi:namedview
     id="namedview1141"
     pagecolor="#ffffff"
     bordercolor="#000000"
     borderopacity="0.25"
     inkscape:showpageshadow="2"
     inkscape:pageopacity="0.0"
     inkscape:pagecheckerboard="0"
     inkscape:deskcolor="#d1d1d1"
     showgrid="false"
     inkscape:zoom="0.99111824"
     inkscape:cx="319.84075"
     inkscape:cy="722.41633"
     inkscape:window-width="1920"
     inkscape:window-height="1052"
     inkscape:window-x="0"
     inkscape:window-y="28"
     inkscape:window-maximized="1"
     inkscape:current-layer="g1133"
     inkscape:pageshadow="2">
    <inkscape:grid
       type="xygrid"
       id="grid487" />
  </sodipodi:namedview>
  <g
     id="g1133"
     transform="matrix(0.5108555,0,0,0.42265427,189.90928,293.7577)">
    <path
       style="opacity:1"
       fill="#000000"
       d="m 765.19893,1191.9643 c -37.34539,22.4551 -82.69441,10.9935 -114.19782,-15.9818 -89.552,-67.05 -126.5523,-176.38665 -178.5745,-270.93344 C 373.47125,712.43651 273.97601,520.10192 175,327.5 c -0.333,274 -0.667,548 -1,822 -5.8032,65.6178 -120.62976,89.1113 -140.450094,20.3347 C 14.341975,1108.6682 24.543343,1043.8054 21.956737,980.7289 22.251271,692.6845 21.36573,404.57884 22.402968,116.57302 26.057758,49.605537 106.69308,3.938283 165.12999,38.339511 232.73496,77.663851 255.07173,158.07706 291.67579,222.27261 411.70308,461.72056 533.2078,700.43346 654,939.5 c 0.5,-253.99964 0.667,-507.99993 0.5,-762 -92.0775,-2.35456 -185.56818,8.47976 -276.68455,-5.72758 -60.94842,-27.76567 -46.7651,-142.334617 24.61617,-142.707766 114.43399,0 228.86799,0 343.30198,0 65.93074,18.012489 56.61905,100.842876 58.36427,154.443316 0.26576,318.95039 1.2988,637.90517 -0.7603,956.85203 -1.29148,23.1473 -17.42003,42.5411 -38.13864,51.6043 z"
       id="path1131"
       sodipodi:nodetypes="ccccccccccccccccccc" />
  </g>
</svg>
