<?xml version="1.0" encoding="UTF-8" standalone="no"?>
<svg
   version="1.1"
   width="400"
   height="550"
   style="clip-rule:evenodd;fill-rule:evenodd;image-rendering:optimizeQuality;shape-rendering:geometricPrecision;text-rendering:geometricPrecision"
   id="svg1139"
   sodipodi:docname="n.svg"
   inkscape:version="1.1.2 (0a00cf5339, 2022-02-04)"
   xmlns:inkscape="http://www.inkscape.org/namespaces/inkscape"
   xmlns:sodipodi="http://sodipodi.sourceforge.net/DTD/sodipodi-0.dtd"
   xmlns="http://www.w3.org/2000/svg"
   xmlns:svg="http://www.w3.org/2000/svg">
  <defs
     id="defs1143" />
  <sodipodi:namedview
     id="namedview1141"
     pagecolor="#ffffff"
     bordercolor="#000000"
     borderopacity="0.25"
     inkscape:showpageshadow="2"
     inkscape:pageopacity="0.0"
     inkscape:pagecheckerboard="0"
     inkscape:deskcolor="#d1d1d1"
     showgrid="false"
     inkscape:zoom="0.35041321"
     inkscape:cx="154.10378"
     inkscape:cy="642.09908"
     inkscape:window-width="1125"
     inkscape:window-height="1011"
     inkscape:window-x="960"
     inkscape:window-y="32"
     inkscape:window-maximized="0"
     inkscape:current-layer="g1133"
     inkscape:pageshadow="2">
    <inkscape:grid
       type="xygrid"
       id="grid487"
       originx="-200"
       originy="-300" />
  </sodipodi:namedview>
  <g
     id="g1133"
     transform="matrix(0.5108555,0,0,0.42265427,-10.09072,-6.2423001)">
    <path
       style="opacity:1;stroke-width:1.03848"
       fill="#000000"
       d="M 646.15282,1265.0379 176.35265,423.02026 v 842.01764 c 0,68.0418 -156.600059,68.0418 -156.600059,0 V 116.83203 c 0,-68.041836 125.897489,-55.02789 156.600059,0 L 646.15282,958.84967 V 218.89477 H 411.25273 c -39.35624,0 -39.35623,-204.125488 0,-204.125488 0,0 222.98725,0 334.48087,0 56.26128,0 57.01927,153.390868 57.01927,204.125488 0,348.71439 0,1046.14313 0,1046.14313 0,68.0418 -125.89748,55.028 -156.60005,0 z"
       id="path1131"
       sodipodi:nodetypes="scssssccssssss" />
  </g>
</svg>
