<?xml version="1.0" encoding="UTF-8" standalone="no"?>
<svg
   version="1.1"
   width="820px"
   height="1210px"
   style="shape-rendering:geometricPrecision; text-rendering:geometricPrecision; image-rendering:optimizeQuality; fill-rule:evenodd; clip-rule:evenodd"
   id="svg1222"
   sodipodi:docname="o.svg"
   inkscape:version="1.2.1 (0f2f062aeb, 2022-09-21, custom)"
   xmlns:inkscape="http://www.inkscape.org/namespaces/inkscape"
   xmlns:sodipodi="http://sodipodi.sourceforge.net/DTD/sodipodi-0.dtd"
   xmlns="http://www.w3.org/2000/svg"
   xmlns:svg="http://www.w3.org/2000/svg">
  <defs
     id="defs1226" />
  <sodipodi:namedview
     id="namedview1224"
     pagecolor="#ffffff"
     bordercolor="#000000"
     borderopacity="0.25"
     inkscape:showpageshadow="2"
     inkscape:pageopacity="0.0"
     inkscape:pagecheckerboard="0"
     inkscape:deskcolor="#d1d1d1"
     showgrid="false"
     inkscape:zoom="0.70082645"
     inkscape:cx="409.51651"
     inkscape:cy="605"
     inkscape:window-width="1920"
     inkscape:window-height="1014"
     inkscape:window-x="0"
     inkscape:window-y="30"
     inkscape:window-maximized="1"
     inkscape:current-layer="svg1222" />
  <g
     id="g1172"
     transform="matrix(0.63210953,0,0,0.57315042,184.10946,222.83942)">
    <path
       style="opacity:1"
       fill="#000000"
       d="m 472.5,224.5 c 2.405,1.268 5.072,1.935 8,2 31.736,7.528 61.736,19.361 90,35.5 21.706,13.188 42.373,27.854 62,44 37.862,34.18 69.362,73.346 94.5,117.5 49.709,90.501 74.543,187.501 74.5,291 0.265,102.661 -23.902,198.995 -72.5,289 -38.973,70.64 -93.14,126.47 -162.5,167.5 -34.72,18.52 -71.387,31.35 -110,38.5 -2.333,0 -4.667,0 -7,0 -2.517,-1.47 -5.35,-2.14 -8.5,-2 -5.824,0.12 -11.657,0.12 -17.5,0 -15.482,-3.31 -27.982,-11.31 -37.5,-24 -15.047,-23.47 -16.381,-47.81 -4,-73 5.427,-7.43 11.593,-14.26 18.5,-20.5 16.161,-10.28 33.828,-16.61 53,-19 51.464,-15.66 93.798,-44.5 127,-86.5 -1.545,-0.952 -3.212,-1.285 -5,-1 -8.17,-0.795 -16.17,-0.795 -24,0 -67.969,-0.695 -135.969,-1.028 -204,-1 -11.667,0 -23.333,0 -35,0 -4,0 -8,0 -12,0 -7.501,-0.928 -15.168,-0.928 -23,0 -17.202,-0.313 -34.368,0.021 -51.5,1 -1.477,0.944 -2.477,2.277 -3,4 -3.639,25.43 -17.139,43.59 -40.5,54.5 -40.156,13.06 -71.989,2.23 -95.5,-32.5 -7.1417,-14.95 -14.8084,-29.617 -23,-44 -20.0697,-45.703 -34.5697,-93.037 -43.5,-142 -0.0387,-4.233 -0.7053,-8.233 -2,-12 0.0621,-4.576 -0.6045,-8.909 -2,-13 -3.1413,-27.763 -5.1413,-55.596 -6,-83.5 0.8387,-28.253 3.0053,-56.419 6.5,-84.5 14.3309,-112.295 58.6642,-210.628 133,-295 28.383,-29.737 60.216,-54.904 95.5,-75.5 71.302,-39.068 146.969,-50.902 227,-35.5 z"
       id="path1170" />
  </g>
  <g
     id="g1176">
    <path
       style="opacity:1"
       fill="#868686"
       d="M 472.5,224.5 C 475.495,224.294 478.162,224.96 480.5,226.5C 477.572,226.435 474.905,225.768 472.5,224.5 Z"
       id="path1174" />
  </g>
  <g
     id="g1180"
     transform="matrix(0.63210953,0,0,0.57315042,185.478,222.83942)">
    <path
       style="opacity:1"
       fill="#fefefe"
       d="m 420.5,355.5 c 4.806,1.093 9.806,1.759 15,2 24.03,3.954 46.697,11.787 68,23.5 35.179,20.676 64.846,47.509 89,80.5 21.649,30.964 38.816,64.297 51.5,100 2.155,6.624 3.988,13.291 5.5,20 -163.318,0.52 -326.652,0.853 -490,1 19.141,-70.474 56.141,-129.64 111,-177.5 25.336,-20.308 53.67,-34.974 85,-44 5.584,-1.647 11.251,-2.813 17,-3.5 15.946,-1.665 31.946,-2.332 48,-2 z"
       id="path1178" />
  </g>
  <g
     id="g1192"
     transform="matrix(0.63210953,0,0,0.57315042,185.478,222.83942)">
    <path
       style="opacity:1"
       fill="#fefefe"
       d="m 654.5,833.5 c -1.112,2.099 -1.779,4.433 -2,7 -1.85,9.219 -4.517,18.219 -8,27 -18.5,0.333 -37,0.667 -55.5,1 -132.834,-0.7 -265.667,-1.366 -398.5,-2 -6.828,-0.759 -13.828,-0.759 -21,0 -1.788,0.285 -3.455,-0.048 -5,-1 -18.217,-54.853 -25.884,-111.187 -23,-169 175.623,0.406 351.289,0.406 527,0 2.218,46.372 -2.449,92.038 -14,137 z"
       id="path1190" />
  </g>
  <g
     id="g1196">
    <path
       style="opacity:1"
       fill="#989898"
       d="M 16.5,798.5 C 17.8955,802.591 18.5621,806.924 18.5,811.5C 17.1045,807.409 16.4379,803.076 16.5,798.5 Z"
       id="path1194" />
  </g>
  <g
     id="g1200">
    <path
       style="opacity:1"
       fill="#858585"
       d="M 18.5,811.5 C 19.7947,815.267 20.4613,819.267 20.5,823.5C 19.0109,819.764 18.3442,815.764 18.5,811.5 Z"
       id="path1198" />
  </g>
  <g
     id="g1204">
    <path
       style="opacity:1"
       fill="#545454"
       d="M 654.5,833.5 C 654.829,836.228 654.163,838.562 652.5,840.5C 652.721,837.933 653.388,835.599 654.5,833.5 Z"
       id="path1202" />
  </g>
  <g
     id="g1208">
    <path
       style="opacity:1"
       fill="#898989"
       d="M 190.5,866.5 C 183.328,867.259 176.328,867.259 169.5,866.5C 176.672,865.741 183.672,865.741 190.5,866.5 Z"
       id="path1206" />
  </g>
  <g
     id="g1212">
    <path
       style="opacity:1"
       fill="#757575"
       d="M 300.5,982.5 C 292.654,983.04 284.987,983.04 277.5,982.5C 285.332,981.572 292.999,981.572 300.5,982.5 Z"
       id="path1210" />
  </g>
  <g
     id="g1216">
    <path
       style="opacity:1"
       fill="#6f6f6f"
       d="M 312.5,982.5 C 324.167,982.5 335.833,982.5 347.5,982.5C 335.833,983.833 324.167,983.833 312.5,982.5 Z"
       id="path1214" />
  </g>
  <g
     id="g1220">
    <path
       style="opacity:1"
       fill="#858585"
       d="M 551.5,983.5 C 559.33,982.705 567.33,982.705 575.5,983.5C 567.673,984.196 559.673,984.196 551.5,983.5 Z"
       id="path1218" />
  </g>
</svg>
