<?xml version="1.0" encoding="UTF-8" standalone="no"?>
<svg
   version="1.1"
   width="820px"
   height="1210px"
   style="shape-rendering:geometricPrecision; text-rendering:geometricPrecision; image-rendering:optimizeQuality; fill-rule:evenodd; clip-rule:evenodd"
   id="svg1222"
   sodipodi:docname="o.svg"
   inkscape:version="1.1.2 (0a00cf5339, 2022-02-04)"
   xmlns:inkscape="http://www.inkscape.org/namespaces/inkscape"
   xmlns:sodipodi="http://sodipodi.sourceforge.net/DTD/sodipodi-0.dtd"
   xmlns="http://www.w3.org/2000/svg"
   xmlns:svg="http://www.w3.org/2000/svg">
  <defs
     id="defs1226" />
  <sodipodi:namedview
     id="namedview1224"
     pagecolor="#ffffff"
     bordercolor="#000000"
     borderopacity="0.25"
     inkscape:showpageshadow="2"
     inkscape:pageopacity="0.0"
     inkscape:pagecheckerboard="0"
     inkscape:deskcolor="#d1d1d1"
     showgrid="false"
     inkscape:zoom="0.70082645"
     inkscape:cx="409.51651"
     inkscape:cy="605"
     inkscape:window-width="1920"
     inkscape:window-height="1052"
     inkscape:window-x="0"
     inkscape:window-y="28"
     inkscape:window-maximized="1"
     inkscape:current-layer="svg1222"
     inkscape:pageshadow="2" />
  <g
     id="g1172"
     transform="matrix(0.63210953,0,0,0.57315042,184.10946,222.83942)">
    <path
       style="opacity:1"
       fill="#000000"
       d="m 472.5,224.5 c 145.56403,30.72763 252.55123,157.61733 296.94433,294.633 64.31802,189.3101 32.86735,415.89876 -100.32099,568.5787 C 612.05757,1150.6533 534.9858,1199.6855 449.5,1209.5 c -44.03261,6.1215 -86.59122,-34.8003 -74.21422,-80.2672 10.66388,-54.73 75.17428,-52.862 115.10031,-72.4487 31.26737,-15.2199 79.71522,-48.0373 85.11391,-73.2841 -116.4304,-0.21127 -233.11572,-2.51339 -349.5,0 -5.85871,49.729 -65.20007,80.7434 -109.03923,54.989 C 77.894439,1012.5326 64.787554,963.0159 46.816404,922.17567 -16.798622,743.40556 3.1421211,530.68905 117.35254,376.07191 190.61068,270.92697 320.50136,201.18122 450.10635,220.88632 c 7.49927,0.97464 14.96769,2.18451 22.39365,3.61368 z"
       id="path1170" />
  </g>
  <g
     id="g1176">
    <path
       style="opacity:1"
       fill="#868686"
       d="M 472.5,224.5 C 475.495,224.294 478.162,224.96 480.5,226.5C 477.572,226.435 474.905,225.768 472.5,224.5 Z"
       id="path1174" />
  </g>
  <g
     id="g1180"
     transform="matrix(0.63210953,0,0,0.57315042,185.478,222.83942)">
    <path
       style="opacity:1"
       fill="#fefefe"
       d="m 420.5,355.5 c 44.23739,3.95681 86.50836,22.55852 120.25095,51.35804 51.72987,41.84449 86.11331,101.93027 106.24018,164.61008 8.65976,19.33904 -24.53639,6.27358 -35.76908,10.15033 C 460.6484,582.07093 310.07427,582.3645 159.5,582.5 c 19.90227,-74.0266 63.50201,-142.74576 125.56768,-188.32821 34.4622,-23.49208 75.17809,-39.61882 117.39435,-38.62389 6.01119,-0.1566 12.02603,-0.17225 18.03797,-0.0479 z"
       id="path1178" />
  </g>
  <g
     id="g1192"
     transform="matrix(0.63210953,0,0,0.57315042,185.478,222.83942)">
    <path
       style="opacity:1"
       fill="#fefefe"
       d="m 654.5,833.5 c -4.31729,18.0193 -6.13593,42.01405 -30.8125,34.37494 -110.14011,1.19179 -220.30073,-0.79832 -330.44946,-0.87817 -42.10843,0.10182 -84.28271,-0.8865 -126.32917,-0.53289 C 157.794,853.82777 156.32843,834.48792 151.63299,818.86638 142.76284,778.77957 139.4274,737.49695 141.5,696.5 c 175.66635,0.4061 351.33365,0.4059 527,0 2.2453,46.03022 -2.49058,92.37505 -14,137 z"
       id="path1190" />
  </g>
  <g
     id="g1196">
    <path
       style="opacity:1"
       fill="#989898"
       d="M 16.5,798.5 C 17.8955,802.591 18.5621,806.924 18.5,811.5C 17.1045,807.409 16.4379,803.076 16.5,798.5 Z"
       id="path1194" />
  </g>
  <g
     id="g1200">
    <path
       style="opacity:1"
       fill="#858585"
       d="M 18.5,811.5 C 19.7947,815.267 20.4613,819.267 20.5,823.5C 19.0109,819.764 18.3442,815.764 18.5,811.5 Z"
       id="path1198" />
  </g>
  <g
     id="g1204">
    <path
       style="opacity:1"
       fill="#545454"
       d="M 654.5,833.5 C 654.829,836.228 654.163,838.562 652.5,840.5C 652.721,837.933 653.388,835.599 654.5,833.5 Z"
       id="path1202" />
  </g>
  <g
     id="g1208">
    <path
       style="opacity:1"
       fill="#898989"
       d="M 190.5,866.5 C 183.328,867.259 176.328,867.259 169.5,866.5C 176.672,865.741 183.672,865.741 190.5,866.5 Z"
       id="path1206" />
  </g>
  <g
     id="g1212">
    <path
       style="opacity:1"
       fill="#757575"
       d="M 300.5,982.5 C 292.654,983.04 284.987,983.04 277.5,982.5C 285.332,981.572 292.999,981.572 300.5,982.5 Z"
       id="path1210" />
  </g>
  <g
     id="g1216">
    <path
       style="opacity:1"
       fill="#6f6f6f"
       d="M 312.5,982.5 C 324.167,982.5 335.833,982.5 347.5,982.5C 335.833,983.833 324.167,983.833 312.5,982.5 Z"
       id="path1214" />
  </g>
  <g
     id="g1220">
    <path
       style="opacity:1"
       fill="#858585"
       d="M 551.5,983.5 C 559.33,982.705 567.33,982.705 575.5,983.5C 567.673,984.196 559.673,984.196 551.5,983.5 Z"
       id="path1218" />
  </g>
</svg>
