<?xml version="1.0" encoding="UTF-8" standalone="no"?>
<svg
   version="1.1"
   width="450"
   height="550"
   style="clip-rule:evenodd;fill-rule:evenodd;image-rendering:optimizeQuality;shape-rendering:geometricPrecision;text-rendering:geometricPrecision"
   id="svg1222"
   sodipodi:docname="o.svg"
   inkscape:version="1.1.2 (0a00cf5339, 2022-02-04)"
   xmlns:inkscape="http://www.inkscape.org/namespaces/inkscape"
   xmlns:sodipodi="http://sodipodi.sourceforge.net/DTD/sodipodi-0.dtd"
   xmlns="http://www.w3.org/2000/svg"
   xmlns:svg="http://www.w3.org/2000/svg">
  <defs
     id="defs1226" />
  <sodipodi:namedview
     id="namedview1224"
     pagecolor="#ffffff"
     bordercolor="#000000"
     borderopacity="0.25"
     inkscape:showpageshadow="2"
     inkscape:pageopacity="0.0"
     inkscape:pagecheckerboard="0"
     inkscape:deskcolor="#d1d1d1"
     showgrid="true"
     inkscape:zoom="0.24777957"
     inkscape:cx="36.322608"
     inkscape:cy="690.12954"
     inkscape:window-width="1125"
     inkscape:window-height="1011"
     inkscape:window-x="960"
     inkscape:window-y="32"
     inkscape:window-maximized="0"
     inkscape:current-layer="svg1222"
     inkscape:pageshadow="2">
    <inkscape:grid
       type="xygrid"
       id="grid1608"
       originx="-148.25758"
       originy="-435.96614" />
  </sodipodi:namedview>
  <g
     id="g6444"
     transform="matrix(0.90037766,0,0,0.96714111,-172.00706,-336.0601)">
    <g
       id="g1172"
       transform="matrix(0.63210953,0,0,0.57315042,184.10946,222.83942)">
      <path
         style="opacity:1"
         fill="#000000"
         d="m 472.5,224.5 c 151.96549,32.42214 261.34006,168.29452 302.69339,312.48664 60.2456,197.5801 18.3711,433.69564 -134.24069,579.11366 -56.75246,51.599 -129.63375,92.1718 -207.79142,93.5731 -54.66997,-2.9265 -82.51267,-79.7899 -35.42258,-112.705 50.26753,-44.6087 135.74959,-44.9763 171.85682,-107.41913 0,0 -261.82414,-1.44498 -343.59552,0 -5.05522,59.87873 -92.04302,82.05823 -128.479315,32.06683 C 58.870036,970.40641 39.900349,906.6825 24.965653,844.99909 -16.19776,656.62323 33.024845,441.81602 177.46213,308.67137 256.35138,237.82692 367.52963,201.09194 472.5,224.5 Z"
         id="path1170"
         sodipodi:nodetypes="ccccccccccc" />
    </g>
    <g
       id="g1180"
       transform="matrix(0.63210953,0,0,0.57315042,185.478,222.83942)">
      <path
         style="opacity:1"
         fill="#fefefe"
         d="m 639.95555,588.25845 h -474.6013 c 0,-43.61856 55.37016,-235.54026 237.30065,-235.54026 181.9305,0 237.30065,191.9217 237.30065,235.54026 z"
         id="path1178"
         sodipodi:nodetypes="cczc" />
    </g>
    <g
       id="g1192"
       transform="matrix(0.63210953,0,0,0.57315042,185.478,222.83942)">
      <path
         style="opacity:1"
         fill="#fefefe"
         d="M 655.77559,867.41728 H 165.35425 C 140.06957,816.02841 141.62419,745.2853 149.53421,692.94301 h 522.06142 c 7.91002,61.066 8.35803,121.67434 -15.82004,174.47427 z"
         id="path1190"
         sodipodi:nodetypes="ccccc" />
    </g>
  </g>
</svg>
