<?xml version="1.0" encoding="UTF-8" standalone="no"?>
<svg
   version="1.1"
   width="400"
   height="550"
   style="clip-rule:evenodd;fill-rule:evenodd;image-rendering:optimizeQuality;shape-rendering:geometricPrecision;text-rendering:geometricPrecision"
   id="svg1308"
   sodipodi:docname="p.svg"
   inkscape:version="1.1.2 (0a00cf5339, 2022-02-04)"
   xmlns:inkscape="http://www.inkscape.org/namespaces/inkscape"
   xmlns:sodipodi="http://sodipodi.sourceforge.net/DTD/sodipodi-0.dtd"
   xmlns="http://www.w3.org/2000/svg"
   xmlns:svg="http://www.w3.org/2000/svg">
  <defs
     id="defs1312" />
  <sodipodi:namedview
     id="namedview1310"
     pagecolor="#ffffff"
     bordercolor="#000000"
     borderopacity="0.25"
     inkscape:showpageshadow="2"
     inkscape:pageopacity="0.0"
     inkscape:pagecheckerboard="0"
     inkscape:deskcolor="#d1d1d1"
     showgrid="false"
     inkscape:zoom="0.49555914"
     inkscape:cx="-169.5055"
     inkscape:cy="554.92872"
     inkscape:window-width="1125"
     inkscape:window-height="1011"
     inkscape:window-x="960"
     inkscape:window-y="32"
     inkscape:window-maximized="0"
     inkscape:current-layer="svg1308"
     inkscape:pageshadow="2" />
  <g
     id="g1302"
     transform="matrix(0.57140519,0,0,0.51069812,-38.35103,-63.158907)" />
  <g
     id="g1306"
     transform="matrix(0.57140519,0,0,0.51069812,-38.35103,-63.158907)">
    <g
       id="g4638"
       transform="matrix(1.0150601,0,0,1.041224,-1.0107899,-5.098239)">
      <path
         style="clip-rule:evenodd;opacity:1;fill-rule:evenodd;image-rendering:optimizeQuality;shape-rendering:geometricPrecision;text-rendering:geometricPrecision"
         fill="#000000"
         d="m 625.42056,200.52425 c 182.07073,128.77428 168.81399,397.87842 -2.46612,490.57388 -122.37296,66.20686 -281.37596,57.59321 -415.83166,55.45626 V 1118.828 c 0,52.2162 -140.005731,52.2162 -140.005731,0 V 203.5 c 7.774582,-45.08479 52.378301,-69.17455 97.563141,-72.48743 151.25542,-17.54571 341.76471,-7.0969 460.74037,69.51168 z"
         id="path1300"
         sodipodi:nodetypes="cccssccc" />
      <path
         style="opacity:1"
         fill="#fefefe"
         d="m 614.50833,380.39726 c 18.87788,41.28995 21.36627,91.86954 1.10154,133.00696 -39.34193,60.55854 -109.31251,93.0298 -178.70063,104.23387 C 360.95208,630.81477 283.5795,625.01797 207.12278,620.5 V 511.81583 l 192.50787,-0.71464 c 46.45542,-0.17245 46.45567,-155.93368 0,-155.93368 H 207.12278 v -97.84348 c 99.51308,-5.47924 198.4466,-5.94217 292.72768,25.7436 48.86491,16.30479 92.50776,50.06294 114.65787,97.32963 z"
         id="path1304"
         sodipodi:nodetypes="cccccsscccc" />
    </g>
  </g>
</svg>
