<?xml version="1.0" encoding="UTF-8" standalone="no"?>
<svg
   version="1.1"
   width="820px"
   height="1210px"
   style="shape-rendering:geometricPrecision; text-rendering:geometricPrecision; image-rendering:optimizeQuality; fill-rule:evenodd; clip-rule:evenodd"
   id="svg1308"
   sodipodi:docname="p.svg"
   inkscape:version="1.2.1 (0f2f062aeb, 2022-09-21, custom)"
   xmlns:inkscape="http://www.inkscape.org/namespaces/inkscape"
   xmlns:sodipodi="http://sodipodi.sourceforge.net/DTD/sodipodi-0.dtd"
   xmlns="http://www.w3.org/2000/svg"
   xmlns:svg="http://www.w3.org/2000/svg">
  <defs
     id="defs1312" />
  <sodipodi:namedview
     id="namedview1310"
     pagecolor="#ffffff"
     bordercolor="#000000"
     borderopacity="0.25"
     inkscape:showpageshadow="2"
     inkscape:pageopacity="0.0"
     inkscape:pagecheckerboard="0"
     inkscape:deskcolor="#d1d1d1"
     showgrid="false"
     inkscape:zoom="0.70082645"
     inkscape:cx="409.51651"
     inkscape:cy="605"
     inkscape:window-width="1920"
     inkscape:window-height="1014"
     inkscape:window-x="0"
     inkscape:window-y="30"
     inkscape:window-maximized="1"
     inkscape:current-layer="svg1308" />
  <g
     id="g1302"
     transform="matrix(0.57140519,0,0,0.51069812,171.64897,228.61662)">
    <path
       style="opacity:1"
       fill="#000000"
       d="m 297.5,129.5 c 54.841,0.548 109.508,4.381 164,11.5 76.866,10.148 144.866,39.815 204,89 61.202,57.577 95.202,128.411 102,212.5 -5.468,136.254 -72.135,227.421 -200,273.5 -52.255,17.432 -105.921,27.432 -161,30 -26.661,1.023 -53.327,1.856 -80,2.5 -36.992,-1.069 -73.992,-1.735 -111,-2 0.362,128.338 -0.138,256.67 -1.5,385 -2.42,17.94 -8.753,34.27 -19,49 -26.429,27.75 -56.929,33.25 -91.5,16.5 -12.7477,-7.41 -21.9144,-17.91 -27.5,-31.5 -2.3324,-6.99 -4.6658,-13.99 -7,-21 -1.1586,-69.8 -1.6586,-139.63 -1.5,-209.5 0.5746,-243.833 1.0746,-487.667 1.5,-731.5 5.0987,-25.752 19.2654,-44.585 42.5,-56.5 0.757,-1.512 1.757,-2.846 3,-4 6.912,-1.193 13.579,-3.193 20,-6 54.439,-3.717 108.772,-6.217 163,-7.5 z"
       id="path1300" />
  </g>
  <g
     id="g1306"
     transform="matrix(0.57140519,0,0,0.51069812,171.64897,228.61662)">
    <path
       style="opacity:1"
       fill="#fefefe"
       d="m 306.5,259.5 c 51.134,-2.846 101.8,0.654 152,10.5 42.269,8.306 79.936,25.973 113,53 53.014,49.538 69.514,109.372 49.5,179.5 -8.169,20.827 -20.669,38.66 -37.5,53.5 -21.742,18.044 -46.075,31.71 -73,41 -44.525,14.588 -90.192,23.255 -137,26 -38.652,1.552 -77.319,1.885 -116,1 -12.714,-0.836 -25.38,-2.003 -38,-3.5 -0.295,-37.017 0.038,-74.017 1,-111 56.827,0.23 113.661,0.563 170.5,1 39.682,-2.335 64.682,-22.668 75,-61 5.179,-34.466 -6.655,-61.299 -35.5,-80.5 -12.188,-7.171 -25.354,-10.671 -39.5,-10.5 -56.51,0.478 -113.01,0.811 -169.5,1 0,-30.333 0,-60.667 0,-91 28.39,-3.822 56.723,-6.822 85,-9 z"
       id="path1304" />
  </g>
</svg>
