<?xml version="1.0" encoding="UTF-8" standalone="no"?>
<svg
   version="1.1"
   width="820px"
   height="1210px"
   style="shape-rendering:geometricPrecision; text-rendering:geometricPrecision; image-rendering:optimizeQuality; fill-rule:evenodd; clip-rule:evenodd"
   id="svg1345"
   sodipodi:docname="q.svg"
   inkscape:version="1.1.2 (0a00cf5339, 2022-02-04)"
   xmlns:inkscape="http://www.inkscape.org/namespaces/inkscape"
   xmlns:sodipodi="http://sodipodi.sourceforge.net/DTD/sodipodi-0.dtd"
   xmlns="http://www.w3.org/2000/svg"
   xmlns:svg="http://www.w3.org/2000/svg">
  <defs
     id="defs1349" />
  <sodipodi:namedview
     id="namedview1347"
     pagecolor="#ffffff"
     bordercolor="#000000"
     borderopacity="0.25"
     inkscape:showpageshadow="2"
     inkscape:pageopacity="0.0"
     inkscape:pagecheckerboard="0"
     inkscape:deskcolor="#d1d1d1"
     showgrid="false"
     inkscape:zoom="0.35041323"
     inkscape:cx="242.57075"
     inkscape:cy="873.2547"
     inkscape:window-width="1920"
     inkscape:window-height="1052"
     inkscape:window-x="0"
     inkscape:window-y="28"
     inkscape:window-maximized="1"
     inkscape:current-layer="svg1345"
     inkscape:pageshadow="2" />
  <g
     id="g1343"
     transform="matrix(0.64501455,0,0,0.55483417,156.31057,213.08229)">
    <path
       style="opacity:1"
       fill="#000000"
       d="M 417.5,-0.5 C 567.92479,-0.91776683 693.63558,114.286 750.92553,246.24958 845.97656,451.57541 822.16381,715.10499 671.49211,887.99195 637.02354,925.72126 595.03881,956.39771 549,978.5 c 9.38664,51.3894 48.06285,91.0282 74.50964,134.0286 22.43539,48.8493 -29.23746,106.8877 -80.22705,89.563 -51.75297,-27.8137 -78.23246,-88.1651 -110.67441,-136.1303 -18.11855,-39.9972 -30.24262,-51.4618 -82.44314,-73.967 C 209.28484,962.61421 108.92377,839.31131 64.626455,708.21473 30.209091,604.78778 23.161998,492.61403 43,385.5 c 25.822171,-35.5747 86.04107,-41.35907 110.44125,-1.58786 22.62869,39.82621 -0.80288,86.0767 4.70903,129.13732 2.1169,119.47335 42.57014,250.59414 148.13577,318.09288 22.84372,12.91475 76.06782,43.49362 53.84981,-5.95406 -14.24668,-64.32976 -0.79677,-117.89222 58.33508,-129.92955 46.3035,6.7079 61.20322,32.69913 76.31422,83.85502 0.15255,33.15073 9.32016,90.65072 48.27873,46.13539 C 649.30001,743.45263 681.50899,599.46101 674.07575,471.77488 667.00612,355.34296 621.59739,227.8824 514.27441,168.56956 459.64362,139.56601 389.35841,134.68328 334.18295,163.99438 280.40411,184.32156 222.1084,122.91793 246.78898,70.247109 270.29716,21.12023 332.65866,12.269701 380.83925,2.4466174 392.99323,0.79286465 405.23863,-0.18004428 417.5,-0.5 Z"
       id="path1341"
       sodipodi:nodetypes="ccccccccccccccccccccccc" />
  </g>
</svg>
