<?xml version="1.0" encoding="UTF-8" standalone="no"?>
<svg
   version="1.1"
   width="400"
   height="550"
   style="clip-rule:evenodd;fill-rule:evenodd;image-rendering:optimizeQuality;shape-rendering:geometricPrecision;text-rendering:geometricPrecision"
   id="svg1345"
   sodipodi:docname="q.svg"
   inkscape:version="1.1.2 (0a00cf5339, 2022-02-04)"
   xmlns:inkscape="http://www.inkscape.org/namespaces/inkscape"
   xmlns:sodipodi="http://sodipodi.sourceforge.net/DTD/sodipodi-0.dtd"
   xmlns="http://www.w3.org/2000/svg"
   xmlns:svg="http://www.w3.org/2000/svg">
  <defs
     id="defs1349" />
  <sodipodi:namedview
     id="namedview1347"
     pagecolor="#ffffff"
     bordercolor="#000000"
     borderopacity="0.25"
     inkscape:showpageshadow="2"
     inkscape:pageopacity="0.0"
     inkscape:pagecheckerboard="0"
     inkscape:deskcolor="#d1d1d1"
     showgrid="false"
     inkscape:zoom="0.49555914"
     inkscape:cx="138.2277"
     inkscape:cy="637.66355"
     inkscape:window-width="1920"
     inkscape:window-height="1011"
     inkscape:window-x="0"
     inkscape:window-y="32"
     inkscape:window-maximized="1"
     inkscape:current-layer="svg1345"
     inkscape:pageshadow="2" />
  <g
     id="g1343"
     transform="matrix(0.64501455,0,0,0.55483417,-16.856378,0.27878535)">
    <path
       style="opacity:1;stroke-width:0.80853"
       fill="#000000"
       d="m 336.98693,-0.5004364 c 115.47072,-0.49587579 212.4836,89.9413144 260.28088,193.0235464 80.20163,173.16157 64.0361,399.4694 -63.84446,543.84505 -31.4108,29.39917 -45.51272,31.45873 -93.00929,73.41802 14.73915,42.9601 77.46384,91.39672 62.19285,143.67018 -18.89012,61.06214 -92.75211,39.11981 -114.25323,-7.98332 -26.60655,-35.2828 -38.78546,-81.14676 -69.7209,-112.73361 C 286.80164,812.02388 246.93946,809.38714 215.25209,787.48031 119.21744,732.39789 59.971377,626.52916 38.734049,517.31287 24.106551,449.87755 18.653471,376.86342 42.135019,310.8968 c 24.730126,-39.9344 92.760761,-16.49644 93.261791,30.22574 1.62908,39.43653 -9.15631,78.79915 -1.52801,118.25147 9.04442,90.24851 45.61007,186.83816 126.467,232.11504 21.69772,21.76845 46.0399,6.48867 28.47383,-22.03174 -13.04625,-40.95517 5.6965,-102.28596 55.64752,-97.34393 43.60713,1.82016 53.34689,54.6491 56.99022,90.63978 2.76262,52.63993 48.61411,9.23184 63.25581,-12.79259 82.9854,-102.00023 95.04566,-251.23676 54.55027,-374.48206 C 493.48471,195.06693 425.47026,117.72215 338.31594,119.64019 303.51141,115.28268 273.28196,142.46293 239.54295,137.23972 183.33147,122.55428 185.7625,36.727068 240.00735,20.637475 270.57931,7.7741272 304.01149,0.52311759 336.98693,-0.5004364 Z"
       id="path1341"
       sodipodi:nodetypes="ssscssssssssssssssssss" />
  </g>
</svg>
