<?xml version="1.0" encoding="UTF-8" standalone="no"?>
<svg
   version="1.1"
   width="820px"
   height="1210px"
   style="shape-rendering:geometricPrecision; text-rendering:geometricPrecision; image-rendering:optimizeQuality; fill-rule:evenodd; clip-rule:evenodd"
   id="svg1345"
   sodipodi:docname="q.svg"
   inkscape:version="1.2.1 (0f2f062aeb, 2022-09-21, custom)"
   xmlns:inkscape="http://www.inkscape.org/namespaces/inkscape"
   xmlns:sodipodi="http://sodipodi.sourceforge.net/DTD/sodipodi-0.dtd"
   xmlns="http://www.w3.org/2000/svg"
   xmlns:svg="http://www.w3.org/2000/svg">
  <defs
     id="defs1349" />
  <sodipodi:namedview
     id="namedview1347"
     pagecolor="#ffffff"
     bordercolor="#000000"
     borderopacity="0.25"
     inkscape:showpageshadow="2"
     inkscape:pageopacity="0.0"
     inkscape:pagecheckerboard="0"
     inkscape:deskcolor="#d1d1d1"
     showgrid="false"
     inkscape:zoom="0.49555914"
     inkscape:cx="286.54502"
     inkscape:cy="488.33728"
     inkscape:window-width="1920"
     inkscape:window-height="1014"
     inkscape:window-x="0"
     inkscape:window-y="30"
     inkscape:window-maximized="1"
     inkscape:current-layer="svg1345" />
  <g
     id="g1343"
     transform="matrix(0.64501455,0,0,0.55483417,156.31057,213.08229)">
    <path
       style="opacity:1"
       fill="#000000"
       d="m 417.5,-0.5 c 1.333,0 2.667,0 4,0 57.032,1.345458 110.032,16.8455 159,46.5 63.988,40.6507 114.154,94.151 150.5,160.5 57.154,105.094 82.154,217.427 75,337 -5.558,108.003 -37.891,207.003 -97,297 -40.979,60.312 -94.313,106.312 -160,138 -0.667,1.667 -0.667,3.333 0,5 4.913,16.403 11.58,32.07 20,47 15.049,26.04 32.049,50.71 51,74 5.295,10.55 8.128,21.72 8.5,33.5 -2.096,35.52 -20.429,57.52 -55,66 -35.595,3.63 -60.428,-10.87 -74.5,-43.5 -5.311,-4.98 -10.311,-10.31 -15,-16 C 450.176,1100.05 422.342,1051.88 400.5,1000 308.25,991.291 230.75,953.124 168,885.5 116.872,827.944 80.2049,761.944 58,687.5 29.4167,587.967 24.4167,487.3 43,385.5 c 6.9036,-6.578 14.0703,-12.744 21.5,-18.5 8.1991,-5.598 17.1991,-9.265 27,-11 42.569,-1.427 66.903,18.906 73,61 -2.272,19.119 -4.106,38.285 -5.5,57.5 -4.013,68.886 5.32,135.886 28,201 20.211,57.631 54.044,105.464 101.5,143.5 23.064,17.531 48.731,29.697 77,36.5 -4.929,-26.91 -9.429,-53.91 -13.5,-81 -0.822,-8.055 -0.488,-16.055 1,-24 6.889,-27.222 23.722,-45.055 50.5,-53.5 41.459,-7.521 70.626,7.979 87.5,46.5 2.05,18.984 4.05,37.984 6,57 1.854,14.946 5.354,29.446 10.5,43.5 10.272,-2.134 19.606,-6.467 28,-13 20.409,-15.074 38.909,-32.241 55.5,-51.5 38.173,-49.782 62.84,-105.782 74,-168 18.101,-93.967 12.101,-186.3 -18,-277 -18.355,-51.992 -47.522,-96.825 -87.5,-134.5 -58.179,-50.543 -124.845,-66.543 -200,-48 -6.46,3.064 -12.793,6.397 -19,10 -34.037,11.868 -62.537,4.035 -85.5,-23.5 -17.966,-28.006 -17.966,-56.0064 0,-84 7.261,-6.3832 14.428,-12.8832 21.5,-19.5 44.492,-22.3727 91.492,-34.206007 141,-35.5 z"
       id="path1341" />
  </g>
</svg>
