<?xml version="1.0" encoding="UTF-8" standalone="no"?>
<svg
   version="1.1"
   width="400"
   height="550"
   style="clip-rule:evenodd;fill-rule:evenodd;image-rendering:optimizeQuality;shape-rendering:geometricPrecision;text-rendering:geometricPrecision"
   id="svg1389"
   sodipodi:docname="r.svg"
   inkscape:version="1.1.2 (0a00cf5339, 2022-02-04)"
   xmlns:inkscape="http://www.inkscape.org/namespaces/inkscape"
   xmlns:sodipodi="http://sodipodi.sourceforge.net/DTD/sodipodi-0.dtd"
   xmlns="http://www.w3.org/2000/svg"
   xmlns:svg="http://www.w3.org/2000/svg">
  <defs
     id="defs1393" />
  <sodipodi:namedview
     id="namedview1391"
     pagecolor="#ffffff"
     bordercolor="#000000"
     borderopacity="0.25"
     inkscape:showpageshadow="2"
     inkscape:pageopacity="0.0"
     inkscape:pagecheckerboard="0"
     inkscape:deskcolor="#d1d1d1"
     showgrid="true"
     inkscape:zoom="0.35041322"
     inkscape:cx="144.11557"
     inkscape:cy="199.76415"
     inkscape:window-width="1920"
     inkscape:window-height="1011"
     inkscape:window-x="0"
     inkscape:window-y="32"
     inkscape:window-maximized="1"
     inkscape:current-layer="g1383"
     inkscape:pageshadow="2">
    <inkscape:grid
       type="xygrid"
       id="grid1271"
       originx="-200"
       originy="-360.28557" />
  </sodipodi:namedview>
  <g
     id="g1383"
     transform="matrix(0.56737589,0,0,0.4762894,-27.39814,-77.584197)">
    <path
       style="opacity:1;stroke-width:1.04656"
       fill="#000000"
       d="m 749.87016,1271.4363 c 28.36499,58.39 -128.21842,57.2825 -157.85571,0 L 356.49799,816.23317 H 188.60541 v 455.20313 c 0,61.6224 -140.316189,61.6224 -140.316189,0 V 462.64229 c 0,-61.62241 140.316189,-61.62241 140.316189,0 V 644.5358 c 93.64753,16.50292 217.19658,13.65264 306.18543,-25.55598 53.32794,-27.61578 88.43379,-93.79427 76.10419,-158.82295 -13.26693,-84.37635 -101.7163,-126.4961 -171.81534,-133.19754 -87.69762,-2.96745 -87.69762,-164.72625 0,-164.06433 102.75112,15.21977 257.22175,50.04911 291.59951,168.94284 36.37132,125.78837 25.56581,271.54083 -59.77782,372.87051 -31.91604,37.89435 -65.19622,69.89734 -117.66723,79.60728 z"
       id="path1381"
       sodipodi:nodetypes="ssccsssscccccsscs" />
  </g>
</svg>
