<?xml version="1.0" encoding="UTF-8" standalone="no"?>
<svg
   version="1.1"
   width="820px"
   height="1210px"
   style="shape-rendering:geometricPrecision; text-rendering:geometricPrecision; image-rendering:optimizeQuality; fill-rule:evenodd; clip-rule:evenodd"
   id="svg1428"
   sodipodi:docname="s.svg"
   inkscape:version="1.1.2 (0a00cf5339, 2022-02-04)"
   xmlns:inkscape="http://www.inkscape.org/namespaces/inkscape"
   xmlns:sodipodi="http://sodipodi.sourceforge.net/DTD/sodipodi-0.dtd"
   xmlns="http://www.w3.org/2000/svg"
   xmlns:svg="http://www.w3.org/2000/svg">
  <defs
     id="defs1432" />
  <sodipodi:namedview
     id="namedview1430"
     pagecolor="#ffffff"
     bordercolor="#000000"
     borderopacity="0.25"
     inkscape:showpageshadow="2"
     inkscape:pageopacity="0.0"
     inkscape:pagecheckerboard="0"
     inkscape:deskcolor="#d1d1d1"
     showgrid="false"
     inkscape:zoom="1.4016529"
     inkscape:cx="30.678066"
     inkscape:cy="913.921"
     inkscape:window-width="1920"
     inkscape:window-height="1052"
     inkscape:window-x="0"
     inkscape:window-y="28"
     inkscape:window-maximized="1"
     inkscape:current-layer="svg1428"
     inkscape:pageshadow="2" />
  <g
     id="g1422"
     transform="matrix(0.58405608,0,0,0.47147572,163.20083,266.3594)">
    <path
       style="opacity:1"
       fill="#000000"
       d="m 423.5,146.5 c 100.14457,3.91869 199.51937,25.88206 292,64.5 39.39572,21.88243 40.97027,84.39578 1.88525,107.06729 -32.27476,22.30814 -68.55274,-0.81634 -101.3437,-8.68932 -83.12889,-22.01579 -171.16751,-40.12368 -256.93935,-23.78845 -69.46277,13.10364 -129.23872,77.88895 -122.50801,150.84901 -0.92846,58.76787 45.07239,103.81291 93.42207,129.73969 99.30167,59.43288 220.21664,76.7897 311.34459,150.98736 C 712.45656,772.29469 764.18204,862.38635 751,954.5 731.3887,1005.0469 657.12572,1021.9159 620.73613,980.24162 590.57215,945.15958 603.33082,893.97505 577.06537,856.68148 531.19438,787.73745 446.4025,765.02751 373.62431,736.18772 284.42824,703.5723 195.12908,657.34576 135.36877,581.36116 82.776622,516.68524 72.373678,425.36542 100.39046,347.99068 137.55662,224.95706 267.97963,152.3574 391.09882,148.50604 401.89296,147.74097 412.69387,147.07132 423.5,146.5 Z"
       id="path1420" />
  </g>
  <g
     id="g1426"
     transform="matrix(0.58405608,0,0,0.47147572,163.20083,266.3594)">
    <path
       style="opacity:1"
       fill="#000000"
       d="m 120.5,1025.5 c 20.64539,-2.4286 28.46146,9.3075 57,16.5 38.17287,8.4035 79.25217,17.6811 114.59705,23.1643 33.69168,6.6859 67.99935,9.2772 102.03759,13.1339 20.56655,3.6838 42.43128,9.6873 55.52321,27.3326 22.13709,27.2393 14.701,74.4082 -17.78348,90.1817 -12.84614,8.7292 -28.3614,12.9857 -43.86129,10.8959 C 289.9638,1204.3771 193.92023,1179.2093 102.5,1145 79.0891,1131.8699 63.200479,1104.7217 68.93406,1077.627 71.627038,1050.9802 94.629193,1029.7015 120.5,1025.5 Z"
       id="path1424"
       sodipodi:nodetypes="cccccccccc" />
  </g>
</svg>
