<?xml version="1.0" encoding="UTF-8" standalone="no"?>
<svg
   version="1.1"
   width="400"
   height="550"
   style="clip-rule:evenodd;fill-rule:evenodd;image-rendering:optimizeQuality;shape-rendering:geometricPrecision;text-rendering:geometricPrecision"
   id="svg1428"
   sodipodi:docname="s.svg"
   inkscape:version="1.1.2 (0a00cf5339, 2022-02-04)"
   xmlns:inkscape="http://www.inkscape.org/namespaces/inkscape"
   xmlns:sodipodi="http://sodipodi.sourceforge.net/DTD/sodipodi-0.dtd"
   xmlns="http://www.w3.org/2000/svg"
   xmlns:svg="http://www.w3.org/2000/svg">
  <defs
     id="defs1432" />
  <sodipodi:namedview
     id="namedview1430"
     pagecolor="#ffffff"
     bordercolor="#000000"
     borderopacity="0.25"
     inkscape:showpageshadow="2"
     inkscape:pageopacity="0.0"
     inkscape:pagecheckerboard="0"
     inkscape:deskcolor="#d1d1d1"
     showgrid="false"
     inkscape:zoom="0.49555914"
     inkscape:cx="402.57557"
     inkscape:cy="324.88555"
     inkscape:window-width="1920"
     inkscape:window-height="1011"
     inkscape:window-x="0"
     inkscape:window-y="32"
     inkscape:window-maximized="1"
     inkscape:current-layer="svg1428"
     inkscape:pageshadow="2" />
  <g
     id="g1422"
     transform="matrix(0.58405608,0,0,0.47147572,-39.524459,-69.071193)" />
  <g
     id="g1426"
     transform="matrix(0.58405608,0,0,0.47147572,-39.524459,-69.071193)">
    <g
       id="g1230"
       transform="matrix(0.99922448,0,0,1.099972,0.05248098,-14.645899)">
      <path
         style="clip-rule:evenodd;opacity:1;fill-rule:evenodd;image-rendering:optimizeQuality;shape-rendering:geometricPrecision;text-rendering:geometricPrecision"
         fill="#000000"
         d="m 423.5,146.5 c 100.13474,3.91681 199.52909,25.88444 292,64.5 47.27011,24.77648 36.5661,105.35472 -16.64214,115.22391 -45.0536,4.30249 -85.77418,-23.40062 -130.04683,-28.61638 -78.51772,-17.14702 -163.83198,-30.38046 -241.34327,-2.25637 -60.64063,24.87664 -101.97193,91.59055 -89.93404,157.24956 9.7975,67.88729 74.01719,106.97755 130.6334,134.08571 103.1946,49.27078 222.98901,73.22878 304.92742,158.756 C 726.71833,799.80866 762.20732,877.16948 751,954.5 732.32378,1004.7191 656.50529,1021.9199 620.73613,980.24162 608.60653,923.11346 594.20316,862.00003 547.49375,822.43154 472.93005,758.57937 371.84209,744.3186 286.83582,699.11511 205.68658,657.7338 124.93303,596.97122 95.935749,506.86774 60.745089,392.5051 115.46298,260.06964 218.47848,200.41024 279.52776,161.46719 351.98145,147.35181 423.5,146.5 Z"
         id="path1420"
         sodipodi:nodetypes="cccccccccccccccc" />
      <path
         style="opacity:1"
         fill="#000000"
         d="m 120.5,1025.5 c 21.92322,-2.5053 39.45013,14.5173 60.58696,17.2902 68.15374,15.5282 136.91416,29.0149 206.66257,34.7984 26.74151,2.7613 56.96696,12.5485 68.83232,39.0909 13.72872,28.4316 2.48362,67.4468 -27.14675,80.7169 -17.65693,12.3844 -39.57446,9.6994 -59.78212,8.6106 C 277.89399,1201.1762 188.23497,1177.0805 102.5,1145 77.376374,1131.4144 61.948265,1100.8223 69.672734,1072.6965 74.508301,1048.3373 96.363702,1029.3954 120.5,1025.5 Z"
         id="path1424"
         sodipodi:nodetypes="cccccccccc" />
    </g>
  </g>
</svg>
