<?xml version="1.0" encoding="UTF-8" standalone="no"?>
<svg
   version="1.1"
   width="820px"
   height="1210px"
   style="shape-rendering:geometricPrecision; text-rendering:geometricPrecision; image-rendering:optimizeQuality; fill-rule:evenodd; clip-rule:evenodd"
   id="svg1428"
   sodipodi:docname="s.svg"
   inkscape:version="1.2.1 (0f2f062aeb, 2022-09-21, custom)"
   xmlns:inkscape="http://www.inkscape.org/namespaces/inkscape"
   xmlns:sodipodi="http://sodipodi.sourceforge.net/DTD/sodipodi-0.dtd"
   xmlns="http://www.w3.org/2000/svg"
   xmlns:svg="http://www.w3.org/2000/svg">
  <defs
     id="defs1432" />
  <sodipodi:namedview
     id="namedview1430"
     pagecolor="#ffffff"
     bordercolor="#000000"
     borderopacity="0.25"
     inkscape:showpageshadow="2"
     inkscape:pageopacity="0.0"
     inkscape:pagecheckerboard="0"
     inkscape:deskcolor="#d1d1d1"
     showgrid="false"
     inkscape:zoom="0.49555913"
     inkscape:cx="334.97516"
     inkscape:cy="702.23708"
     inkscape:window-width="1920"
     inkscape:window-height="1014"
     inkscape:window-x="0"
     inkscape:window-y="30"
     inkscape:window-maximized="1"
     inkscape:current-layer="svg1428" />
  <g
     id="g1422"
     transform="matrix(0.58405608,0,0,0.47147572,163.20083,266.3594)">
    <path
       style="opacity:1"
       fill="#000000"
       d="m 423.5,146.5 c 101.138,4.117 198.471,25.617 292,64.5 31.191,22.597 38.691,51.43 22.5,86.5 -16.019,23.351 -38.185,33.185 -66.5,29.5 -65.231,-23.058 -132.231,-38.391 -201,-46 -24.646,-1.524 -49.313,-1.858 -74,-1 -29.137,1.867 -56.803,9.201 -83,22 -63.948,38.414 -88.115,94.247 -72.5,167.5 9.152,27.482 24.985,50.315 47.5,68.5 30.567,23.13 63.567,42.464 99,58 45.92,18.529 91.92,36.862 138,55 49.942,19.693 94.942,47.026 135,82 38.677,35.698 66.511,78.532 83.5,128.5 8.611,30.561 10.944,61.561 7,93 -19.952,38.893 -51.452,54.73 -94.5,47.5 -29.852,-9.178 -47.685,-29.011 -53.5,-59.5 -1.471,-4.081 -3.138,-8.081 -5,-12 -1.163,-44.153 -18.329,-80.653 -51.5,-109.5 -25.209,-20.451 -52.876,-37.118 -83,-50 -39.779,-15.888 -79.779,-31.222 -120,-46 C 288.271,702.901 237.271,673.901 190.5,638 83.4668,549.019 57.9668,440.519 114,312.5 c 19.526,-39.511 47.36,-72.011 83.5,-97.5 51.733,-37.842 109.733,-59.509 174,-65 17.474,-1.425 34.807,-2.591 52,-3.5 z"
       id="path1420" />
  </g>
  <g
     id="g1426"
     transform="matrix(0.58405608,0,0,0.47147572,163.20083,266.3594)">
    <path
       style="opacity:1"
       fill="#000000"
       d="m 120.5,1025.5 c 9.135,-0.49 18.135,0.34 27,2.5 10.241,4.12 20.241,8.79 30,14 7.095,2.05 14.095,4.38 21,7 11.371,0.58 22.704,1.58 34,3 50.55,13.09 101.884,21.43 154,25 13.628,2.07 26.961,5.41 40,10 28.195,15.22 39.695,38.72 34.5,70.5 -3.368,14.25 -10.868,25.75 -22.5,34.5 -4.501,2.42 -8.834,5.08 -13,8 -6.324,2.32 -12.657,4.65 -19,7 -56.424,-0.18 -112.09,-6.84 -167,-20 -46.605,-10.98 -92.272,-24.98 -137,-42 -31.7679,-20.04 -41.6013,-47.88 -29.5,-83.5 9.9721,-19.89 25.8054,-31.89 47.5,-36 z"
       id="path1424" />
  </g>
</svg>
