<?xml version="1.0" encoding="UTF-8" standalone="no"?>
<svg
   version="1.1"
   width="820px"
   height="1210px"
   style="shape-rendering:geometricPrecision; text-rendering:geometricPrecision; image-rendering:optimizeQuality; fill-rule:evenodd; clip-rule:evenodd"
   id="svg1481"
   sodipodi:docname="t.svg"
   inkscape:version="1.2.1 (0f2f062aeb, 2022-09-21, custom)"
   xmlns:inkscape="http://www.inkscape.org/namespaces/inkscape"
   xmlns:sodipodi="http://sodipodi.sourceforge.net/DTD/sodipodi-0.dtd"
   xmlns="http://www.w3.org/2000/svg"
   xmlns:svg="http://www.w3.org/2000/svg">
  <defs
     id="defs1485" />
  <sodipodi:namedview
     id="namedview1483"
     pagecolor="#ffffff"
     bordercolor="#000000"
     borderopacity="0.25"
     inkscape:showpageshadow="2"
     inkscape:pageopacity="0.0"
     inkscape:pagecheckerboard="0"
     inkscape:deskcolor="#d1d1d1"
     showgrid="false"
     inkscape:zoom="0.49555913"
     inkscape:cx="623.5381"
     inkscape:cy="696.18332"
     inkscape:window-width="1920"
     inkscape:window-height="1014"
     inkscape:window-x="0"
     inkscape:window-y="30"
     inkscape:window-maximized="1"
     inkscape:current-layer="svg1481" />
  <g
     id="g1463"
     transform="matrix(0.48923848,0,0,0.51543063,208.24951,212.12338)">
    <path
       style="opacity:1"
       fill="#000000"
       d="m 165.5,239.5 c 196.855,0.642 393.855,1.642 591,3 38.087,5.753 59.087,27.753 63,66 0,0.667 0,1.333 0,2 -1.31,24.447 -12.31,43.281 -33,56.5 -4.135,2.403 -8.468,4.237 -13,5.5 -2.928,0.065 -5.595,0.732 -8,2 -3.107,-0.149 -6.107,0.351 -9,1.5 -93.333,0.07 -186.666,-0.097 -280,-0.5 -0.834,277.999 -1.168,555.999 -1,834 -46.333,0 -92.667,0 -139,0 0,-278.333 0,-556.667 0,-835 -86.335,0.053 -172.668,0.386 -259,1 -0.7625,-0.768 -1.7625,-1.268 -3,-1.5 -19.1656,1.963 -36.1656,-3.037 -51,-15 C 5.85664,341.077 -0.976689,319.577 3,294.5 12.1648,262.019 33.6648,243.853 67.5,240 c 32.665,-0.5 65.332,-0.667 98,-0.5 z"
       id="path1461" />
  </g>
  <g
     id="g1475">
    <path
       style="opacity:1"
       fill="#989898"
       d="M 773.5,372.5 C 771.162,374.04 768.495,374.706 765.5,374.5C 767.905,373.232 770.572,372.565 773.5,372.5 Z"
       id="path1473" />
  </g>
</svg>
