<?xml version="1.0" encoding="UTF-8" standalone="no"?>
<svg
   version="1.1"
   width="820px"
   height="1210px"
   style="shape-rendering:geometricPrecision; text-rendering:geometricPrecision; image-rendering:optimizeQuality; fill-rule:evenodd; clip-rule:evenodd"
   id="svg1522"
   sodipodi:docname="u.svg"
   inkscape:version="1.2.1 (0f2f062aeb, 2022-09-21, custom)"
   xmlns:inkscape="http://www.inkscape.org/namespaces/inkscape"
   xmlns:sodipodi="http://sodipodi.sourceforge.net/DTD/sodipodi-0.dtd"
   xmlns="http://www.w3.org/2000/svg"
   xmlns:svg="http://www.w3.org/2000/svg">
  <defs
     id="defs1526" />
  <sodipodi:namedview
     id="namedview1524"
     pagecolor="#ffffff"
     bordercolor="#000000"
     borderopacity="0.25"
     inkscape:showpageshadow="2"
     inkscape:pageopacity="0.0"
     inkscape:pagecheckerboard="0"
     inkscape:deskcolor="#d1d1d1"
     showgrid="false"
     inkscape:zoom="0.49555913"
     inkscape:cx="351.11854"
     inkscape:cy="643.71733"
     inkscape:window-width="1920"
     inkscape:window-height="1014"
     inkscape:window-x="0"
     inkscape:window-y="30"
     inkscape:window-maximized="1"
     inkscape:current-layer="svg1522" />
  <g
     id="g1516"
     transform="matrix(0.52910961,0,0,0.45056018,185.411,263.82999)">
    <path
       style="opacity:1"
       fill="#000000"
       d="m 422.5,1209.5 c -9.667,0 -19.333,0 -29,0 -66.279,-4.14 -126.613,-25.3 -181,-63.5 C 138.832,1091.6 88.332,1020.44 61,932.5 46.0482,879.889 38.0482,826.223 37,771.5 35.3984,572.838 35.0651,374.171 36,175.5 c 3.1222,-9.928 6.1222,-19.928 9,-30 10.8233,-22.585 28.49,-36.585 53,-42 31.877,-4.0577 56.544,7.276 74,34 8.529,19.808 13.696,40.475 15.5,62 -1.401,84.99 -2.068,169.99 -2,255 -0.127,53.013 0.373,106.013 1.5,159 150.094,0.285 300.261,-0.048 450.5,-1 0.29,-134.334 0.79,-268.667 1.5,-403 1.313,-3.92 2.313,-7.92 3,-12 0.333,-8.333 0.667,-16.667 1,-25 3.054,-39.663 23.887,-63.83 62.5,-72.5 39.187,-2.451 65.354,14.716 78.5,51.5 3.03,15.541 5.03,31.208 6,47 2.486,183.68 1.819,367.346 -2,551 -1.93,57.64 -8.93,114.64 -21,171 -14.262,63.191 -42.262,119.19 -84,168 -70.694,74.76 -157.528,115.09 -260.5,121 z"
       id="path1514" />
  </g>
  <g
     id="g1520"
     transform="matrix(0.52910961,0,0,0.45056018,185.411,263.82999)">
    <path
       style="opacity:1"
       fill="#fefefe"
       d="m 205.5,753.5 c 144.23,0.989 288.397,0.989 432.5,0 1.832,70.336 -13.501,136.669 -46,199 -60.954,104.2 -148.787,136.7 -263.5,97.5 -26.964,-12.96 -49.798,-31.13 -68.5,-54.5 -23.303,-30.944 -39.97,-65.277 -50,-103 -12.102,-45.216 -18.936,-91.216 -20.5,-138 5.526,0.321 10.86,-0.012 16,-1 z"
       id="path1518" />
  </g>
</svg>
