<?xml version="1.0" encoding="UTF-8" standalone="no"?>
<svg
   version="1.1"
   width="820px"
   height="1210px"
   style="shape-rendering:geometricPrecision; text-rendering:geometricPrecision; image-rendering:optimizeQuality; fill-rule:evenodd; clip-rule:evenodd"
   id="svg1522"
   sodipodi:docname="u.svg"
   inkscape:version="1.1.2 (0a00cf5339, 2022-02-04)"
   xmlns:inkscape="http://www.inkscape.org/namespaces/inkscape"
   xmlns:sodipodi="http://sodipodi.sourceforge.net/DTD/sodipodi-0.dtd"
   xmlns="http://www.w3.org/2000/svg"
   xmlns:svg="http://www.w3.org/2000/svg">
  <defs
     id="defs1526" />
  <sodipodi:namedview
     id="namedview1524"
     pagecolor="#ffffff"
     bordercolor="#000000"
     borderopacity="0.25"
     inkscape:showpageshadow="2"
     inkscape:pageopacity="0.0"
     inkscape:pagecheckerboard="0"
     inkscape:deskcolor="#d1d1d1"
     showgrid="false"
     inkscape:zoom="0.70082644"
     inkscape:cx="704.88208"
     inkscape:cy="622.12264"
     inkscape:window-width="1920"
     inkscape:window-height="1052"
     inkscape:window-x="0"
     inkscape:window-y="28"
     inkscape:window-maximized="1"
     inkscape:current-layer="svg1522"
     inkscape:pageshadow="2" />
  <g
     id="g1516"
     transform="matrix(0.52910961,0,0,0.45056018,185.411,263.82999)">
    <path
       style="opacity:1"
       fill="#000000"
       d="M 422.5,1209.5 C 288.23141,1216.0723 161.08211,1132.9751 97.399,1017.2406 32.722528,906.49141 35.512832,774.43672 36.181013,650.43973 35.31531,492.12816 35.255014,333.81219 36,175.5 c 3.34515,-53.62709 66.32256,-94.047833 113.31991,-61.57166 44.13843,31.67438 38.05611,93.38959 37.36606,141.34778 C 185.39783,374.67694 184.55037,494.10834 187,613.5 c 150.16719,0.28514 300.33555,-0.0485 450.5,-1 0.29,-134.33401 0.79,-268.66756 1.5,-403 4.82932,-37.37305 8.78561,-95.62241 46.65542,-102.98868 44.17771,-23.28268 100.85706,13.48695 101.3188,62.52541 7.48279,98.46208 3.06657,197.62443 4.4191,296.36364 -2.64919,123.3176 2.84652,247.23326 -10.09082,370.07963 -9.97321,100.1142 -42.26458,203.5192 -118.61075,273.1384 -64.64592,61.27 -151.41069,96.7707 -240.19175,100.8816 z"
       id="path1514"
       sodipodi:nodetypes="ccccccccccccccc" />
  </g>
  <g
     id="g1520"
     transform="matrix(0.52910961,0,0,0.45056018,185.411,263.82999)">
    <path
       style="opacity:1"
       fill="#fefefe"
       d="m 205.5,753.5 c 144.16441,0.98856 288.3356,0.98943 432.5,0 1.88827,74.15077 -15.75606,149.75551 -54.74884,213.18049 -31.32244,49.76261 -81.3881,91.18321 -141.49085,97.80181 -39.94883,4.7757 -81.14177,-1.991 -118.26766,-16.9734 C 265.54627,1018.8965 229.77568,959.71818 211.9584,899.53334 198.63233,852.33744 191.13398,803.50969 189.5,754.5 c 5.3469,0.31288 10.73748,0.014 16,-1 z"
       id="path1518" />
  </g>
</svg>
