<?xml version="1.0" encoding="UTF-8" standalone="no"?>
<svg
   version="1.1"
   width="400"
   height="550"
   style="clip-rule:evenodd;fill-rule:evenodd;image-rendering:optimizeQuality;shape-rendering:geometricPrecision;text-rendering:geometricPrecision"
   id="svg1522"
   sodipodi:docname="u.svg"
   inkscape:version="1.1.2 (0a00cf5339, 2022-02-04)"
   xmlns:inkscape="http://www.inkscape.org/namespaces/inkscape"
   xmlns:sodipodi="http://sodipodi.sourceforge.net/DTD/sodipodi-0.dtd"
   xmlns="http://www.w3.org/2000/svg"
   xmlns:svg="http://www.w3.org/2000/svg">
  <defs
     id="defs1526" />
  <sodipodi:namedview
     id="namedview1524"
     pagecolor="#ffffff"
     bordercolor="#000000"
     borderopacity="0.25"
     inkscape:showpageshadow="2"
     inkscape:pageopacity="0.0"
     inkscape:pagecheckerboard="0"
     inkscape:deskcolor="#d1d1d1"
     showgrid="false"
     inkscape:zoom="0.35041322"
     inkscape:cx="266.82783"
     inkscape:cy="265.40095"
     inkscape:window-width="1920"
     inkscape:window-height="1011"
     inkscape:window-x="0"
     inkscape:window-y="32"
     inkscape:window-maximized="1"
     inkscape:current-layer="svg1522"
     inkscape:pageshadow="2" />
  <g
     id="g1516"
     transform="matrix(0.52910961,0,0,0.45056018,-19.0297,-56.237668)" />
  <g
     id="g2245"
     transform="matrix(1.0089194,0,0,1.1250229,-206.26419,-360.08344)">
    <path
       style="clip-rule:evenodd;opacity:1;fill-rule:evenodd;image-rendering:optimizeQuality;shape-rendering:geometricPrecision;text-rendering:geometricPrecision"
       fill="#000000"
       d="M 422.5,1209.5 C 288.23141,1216.0723 161.08211,1132.9751 97.399,1017.2406 32.722528,906.49141 35.512832,774.43672 36.181013,650.43973 L 36,169.05624 c -0.02218,-58.98538 150.64429,-58.98536 150.68597,0 L 187,613.5 l 450.5,-1 1.5,-443.44376 c 0.19367,-57.25514 146.92663,-57.25035 146.26699,0 L 783.55976,835.48 c -4.57967,99.32247 -44.52184,203.5192 -120.86801,273.1384 -64.64592,61.27 -151.41069,96.7707 -240.19175,100.8816 z"
       id="path1514"
       sodipodi:nodetypes="cccssccscccc"
       transform="matrix(0.52910961,0,0,0.45056018,185.411,263.82999)" />
    <g
       id="g1520"
       transform="matrix(0.52910961,0,0,0.45056018,185.411,263.82999)">
      <path
         style="opacity:1"
         fill="#fefefe"
         d="m 638,753.5 c 1.80374,84.00491 -20.22283,171.04339 -72.51635,237.96569 -35.0292,44.23081 -88.7829,75.69411 -146.29076,74.50751 -47.97533,-0.2561 -99.14322,-11.3755 -135.06804,-45.1928 C 232.91129,974.93006 209.63712,907.02031 198.60511,840.9415 193.5242,812.05602 190.4816,782.81221 189.5,753.49981 c 149.5,6e-5 299,1.3e-4 448.5,1.9e-4 z"
         id="path1518"
         sodipodi:nodetypes="ccccccc" />
    </g>
  </g>
</svg>
