<?xml version="1.0" encoding="UTF-8" standalone="no"?>
<svg
   version="1.1"
   width="820px"
   height="1210px"
   style="shape-rendering:geometricPrecision; text-rendering:geometricPrecision; image-rendering:optimizeQuality; fill-rule:evenodd; clip-rule:evenodd"
   id="svg1590"
   sodipodi:docname="v.svg"
   inkscape:version="1.2.1 (0f2f062aeb, 2022-09-21, custom)"
   xmlns:inkscape="http://www.inkscape.org/namespaces/inkscape"
   xmlns:sodipodi="http://sodipodi.sourceforge.net/DTD/sodipodi-0.dtd"
   xmlns="http://www.w3.org/2000/svg"
   xmlns:svg="http://www.w3.org/2000/svg">
  <defs
     id="defs1594" />
  <sodipodi:namedview
     id="namedview1592"
     pagecolor="#ffffff"
     bordercolor="#000000"
     borderopacity="0.25"
     inkscape:showpageshadow="2"
     inkscape:pageopacity="0.0"
     inkscape:pagecheckerboard="0"
     inkscape:deskcolor="#d1d1d1"
     showgrid="false"
     inkscape:zoom="0.54324639"
     inkscape:cx="-228.25739"
     inkscape:cy="535.66854"
     inkscape:window-width="1920"
     inkscape:window-height="1014"
     inkscape:window-x="0"
     inkscape:window-y="30"
     inkscape:window-maximized="1"
     inkscape:current-layer="svg1590" />
  <g
     id="g1564"
     transform="matrix(0.49640755,0,0,0.48172051,185.84335,234.17299)">
    <path
       style="opacity:1"
       fill="#000000"
       d="m 819.5,265.5 c 0,1 0,2 0,3 -0.617,0.111 -1.117,0.444 -1.5,1 -102.654,313.462 -205.821,626.796 -309.5,940 -61.667,0 -123.333,0 -185,0 C 221.454,901.527 119.621,593.194 18,284.5 c -0.4974,-2.646 -0.6641,-5.313 -0.5,-8 0.2062,-2.995 -0.4605,-5.662 -2,-8 -3.0401,-16.855 -2.2067,-33.521 2.5,-50 14.0037,-34.898 39.5037,-48.732 76.5,-41.5 9.19,0.234 18.356,0.734 27.5,1.5 9.014,-2.575 18.014,-2.575 27,0 4.446,-0.992 8.946,-1.659 13.5,-2 23.015,0.21 46.015,0.543 69,1 8.992,-2.504 17.992,-2.504 27,0 4.283,-0.992 8.616,-1.658 13,-2 68.545,-0.251 137.212,-0.251 206,0 9.214,-2.643 18.38,-2.643 27.5,0 4.524,-1.371 9.191,-2.038 14,-2 22.525,0.142 45.025,0.476 67.5,1 9.214,-2.643 18.38,-2.643 27.5,0 4.344,-1.431 8.844,-2.098 13.5,-2 22.853,0.131 45.687,0.465 68.5,1 9.013,-2.595 18.013,-2.595 27,0 10.528,-2.677 21.028,-2.51 31.5,0.5 12.402,5.033 24.069,11.367 35,19 6.542,4.875 12.042,10.708 16.5,17.5 8.499,17.575 12.999,35.908 13.5,55 z"
       id="path1562" />
  </g>
  <g
     id="g1572">
    <path
       style="opacity:1"
       fill="#9a9a9a"
       d="M 15.5,268.5 C 17.0395,270.838 17.7062,273.505 17.5,276.5C 16.2318,274.095 15.5651,271.428 15.5,268.5 Z"
       id="path1570" />
  </g>
  <g
     id="g1576"
     transform="matrix(0.49640755,0,0,0.48172051,185.84335,234.17299)">
    <path
       style="opacity:1"
       fill="#fefefe"
       d="m 637.5,317.5 c 6.863,0.138 13.53,0.804 20,2 -76.79,233.537 -153.29,467.204 -229.5,701 -4.269,9.85 -7.935,19.85 -11,30 -1.711,-2.46 -3.044,-5.12 -4,-8 -5.667,-18.33 -11.333,-36.67 -17,-55 -73.642,-222.013 -147.475,-444.013 -221.5,-666 14.447,-0.433 28.947,-0.433 43.5,0 4.748,-0.125 9.415,-0.792 14,-2 8.992,2.665 17.992,2.665 27,0 8.135,0.923 16.302,1.256 24.5,1 17.174,0.683 34.174,0.683 51,0 2.331,-0.817 4.831,-1.484 7.5,-2 4.102,1.045 8.269,1.711 12.5,2 21.339,-1.425 42.672,-1.758 64,-1 8.499,0.911 16.833,0.911 25,0 29.747,-0.438 59.581,-1.105 89.5,-2 34.93,0.249 69.763,0.249 104.5,0 z"
       id="path1574" />
  </g>
</svg>
