<?xml version="1.0" encoding="UTF-8" standalone="no"?>
<svg
   version="1.1"
   width="820px"
   height="1210px"
   style="shape-rendering:geometricPrecision; text-rendering:geometricPrecision; image-rendering:optimizeQuality; fill-rule:evenodd; clip-rule:evenodd"
   id="svg1777"
   sodipodi:docname="w.svg"
   inkscape:version="1.2.1 (0f2f062aeb, 2022-09-21, custom)"
   xmlns:inkscape="http://www.inkscape.org/namespaces/inkscape"
   xmlns:sodipodi="http://sodipodi.sourceforge.net/DTD/sodipodi-0.dtd"
   xmlns="http://www.w3.org/2000/svg"
   xmlns:svg="http://www.w3.org/2000/svg">
  <defs
     id="defs1781" />
  <sodipodi:namedview
     id="namedview1779"
     pagecolor="#ffffff"
     bordercolor="#000000"
     borderopacity="0.25"
     inkscape:showpageshadow="2"
     inkscape:pageopacity="0.0"
     inkscape:pagecheckerboard="0"
     inkscape:deskcolor="#d1d1d1"
     showgrid="false"
     inkscape:zoom="0.49555913"
     inkscape:cx="272.41956"
     inkscape:cy="558.96458"
     inkscape:window-width="1920"
     inkscape:window-height="1014"
     inkscape:window-x="0"
     inkscape:window-y="30"
     inkscape:window-maximized="1"
     inkscape:current-layer="svg1777" />
  <g
     id="g1627"
     transform="matrix(0.49964221,0,0,0.59164661,208.6471,117.66822)">
    <path
       style="opacity:1"
       fill="#000000"
       d="m 810.5,376.5 c -1.531,4.75 -2.198,9.75 -2,15 -0.65,1.935 -0.983,3.935 -1,6 -1.395,4.091 -2.062,8.424 -2,13 -1.893,8.783 -3.226,17.783 -4,27 -1.512,5.429 -2.179,11.096 -2,17 -1.649,7.108 -2.649,14.441 -3,22 -2.061,5.696 -3.061,11.696 -3,18 -1.15,5.602 -1.816,11.269 -2,17 -1.413,2.719 -2.08,5.719 -2,9 -0.506,5.688 -1.172,11.355 -2,17 -1.489,3.736 -2.156,7.736 -2,12 -2.518,14.258 -4.518,28.591 -6,43 -1.117,3.795 -1.783,7.795 -2,12 -1.479,9.603 -2.813,19.27 -4,29 -1.395,6.808 -2.395,13.808 -3,21 -1.295,3.767 -1.961,7.767 -2,12 0,1.667 0,3.333 0,5 -1.268,2.405 -1.935,5.072 -2,8 0,0.667 0,1.333 0,2 -1.717,7.773 -2.717,15.773 -3,24 -1.413,2.719 -2.08,5.719 -2,9 0,2.333 0,4.667 0,7 -2.133,5.344 -3.133,11.011 -3,17 -5.395,35.283 -10.395,70.616 -15,106 -1.285,3.089 -1.951,6.422 -2,10 -2,14.999 -4,29.999 -6,45 -1.489,3.736 -2.156,7.736 -2,12 -2.543,14.257 -4.543,28.59 -6,43 -1.295,3.767 -1.961,7.767 -2,12 -1.894,10.927 -3.228,21.927 -4,33 -1.582,3.38 -2.249,7.04 -2,11 -8.319,53.91 -15.985,107.91 -23,162 -2.429,12.13 -4.429,24.46 -6,37 -35,0 -70,0 -105,0 -57.569,-118.8 -115.903,-237.138 -175,-355 -2.99,3.971 -5.49,8.304 -7.5,13 -48.207,114.085 -96.707,228.09 -145.5,342 -37,0 -74,0 -111,0 -1.59,-16.91 -3.923,-33.58 -7,-50 0.245,-5.58 -0.422,-10.92 -2,-16 -1.339,-11.72 -3.005,-23.39 -5,-35 -0.384,-4.51 -1.051,-8.84 -2,-13 -7.015,-46.73 -14.015,-93.39 -21,-140 -0.313,-4.853 -0.979,-9.52 -2,-14 0,-0.667 0,-1.333 0,-2 -0.146,-3.887 -0.813,-7.554 -2,-11 -1.013,-10.574 -2.679,-20.908 -5,-31 0.17,-7.297 -0.8302,-14.297 -3,-21 -12.0044,-83.707 -24.3377,-167.373 -37,-251 -0.0387,-4.233 -0.7053,-8.233 -2,-12 -10.0621,-65.964 -19.7288,-131.964 -29,-198 -0.1459,-3.887 -0.8126,-7.554 -2,-11 -1.5655,-14.06 -3.5655,-28.06 -6,-42 0.0797,-3.281 -0.587,-6.281 -2,-9 -0.5166,-3.722 -1.35,-7.388 -2.5,-11 -4.5334,-29.047 5.3,-51.88 29.5,-68.5 33.0655,-12.867 58.566,-4.034 76.5,26.5 2.5,10.174 6.167,19.841 11,29 10.257,65.673 20.424,131.34 30.5,197 -0.165,3.35 0.002,6.683 0.5,10 0.383,0.556 0.883,0.889 1.5,1 0.667,5 1.333,10 2,15 -0.377,4.953 0.289,9.619 2,14 0.922,3.612 1.589,7.279 2,11 -0.404,5.283 0.262,10.283 2,15 17.46,105.81 33.96,211.81 49.5,318 2.708,18.531 6.041,36.865 10,55 40.195,-87.053 80.362,-174.053 120.5,-261 0.617,-0.111 1.117,-0.444 1.5,-1 0.498,-2.982 0.665,-5.982 0.5,-9 0.187,-18.067 7.187,-32.9 21,-44.5 21.521,-14.258 42.855,-13.925 64,1 12.826,12.445 20.326,27.612 22.5,45.5 46.531,88.396 92.531,177.062 138,266 2.3,2.448 3.633,1.781 4,-2 3.106,-25.064 6.606,-50.064 10.5,-75 1.403,-3.409 2.07,-7.075 2,-11 1.864,-12.307 3.531,-24.64 5,-37 0.617,-0.111 1.117,-0.444 1.5,-1 0.498,-3.317 0.665,-6.65 0.5,-10 11.226,-76.355 22.559,-152.688 34,-229 0.722,-0.418 1.222,-1.084 1.5,-2 0.498,-3.317 0.665,-6.65 0.5,-10 1.351,-14.091 3.351,-28.091 6,-42 0.617,-0.111 1.117,-0.444 1.5,-1 0.498,-3.317 0.665,-6.65 0.5,-10 7.393,-49.995 14.727,-99.995 22,-150 1.582,-3.376 2.249,-7.042 2,-11 3.174,-22.711 6.674,-45.377 10.5,-68 6.561,-21.228 20.394,-35.061 41.5,-41.5 28.998,-4.418 50.165,6.415 63.5,32.5 3.718,11.426 6.218,23.093 7.5,35 -2.186,15.636 -4.186,31.302 -6,47 z"
       id="path1625" />
  </g>
  <g
     id="g1739">
    <path
       style="opacity:1"
       fill="#848484"
       d="M 618.5,874.5 C 618.57,878.425 617.903,882.091 616.5,885.5C 616.43,881.575 617.097,877.909 618.5,874.5 Z"
       id="path1737" />
  </g>
</svg>
