<?xml version="1.0" encoding="UTF-8" standalone="no"?>
<svg
   version="1.1"
   width="400"
   height="550"
   style="clip-rule:evenodd;fill-rule:evenodd;image-rendering:optimizeQuality;shape-rendering:geometricPrecision;text-rendering:geometricPrecision"
   id="svg1777"
   sodipodi:docname="w.svg"
   inkscape:version="1.1.2 (0a00cf5339, 2022-02-04)"
   xmlns:inkscape="http://www.inkscape.org/namespaces/inkscape"
   xmlns:sodipodi="http://sodipodi.sourceforge.net/DTD/sodipodi-0.dtd"
   xmlns="http://www.w3.org/2000/svg"
   xmlns:svg="http://www.w3.org/2000/svg">
  <defs
     id="defs1781" />
  <sodipodi:namedview
     id="namedview1779"
     pagecolor="#ffffff"
     bordercolor="#000000"
     borderopacity="0.25"
     inkscape:showpageshadow="2"
     inkscape:pageopacity="0.0"
     inkscape:pagecheckerboard="0"
     inkscape:deskcolor="#d1d1d1"
     showgrid="false"
     inkscape:zoom="0.35041322"
     inkscape:cx="-9.9882076"
     inkscape:cy="325.33019"
     inkscape:window-width="1920"
     inkscape:window-height="1011"
     inkscape:window-x="0"
     inkscape:window-y="32"
     inkscape:window-maximized="1"
     inkscape:current-layer="g1627"
     inkscape:pageshadow="2">
    <inkscape:grid
       type="xygrid"
       id="grid377"
       originx="-219.93614"
       originy="-285.09966" />
  </sodipodi:namedview>
  <g
     id="g1627"
     transform="matrix(0.49964221,0,0,0.59164661,-11.289041,-167.43144)">
    <path
       style="opacity:1;stroke-width:0.991637"
       fill="#000000"
       d="m 692.97584,1188.9471 c -4.79401,32.483 -105.64226,30.4592 -120.04546,0 L 417.17139,845.17039 262.81294,1188.9471 c -13.74362,30.6088 -113.44535,32.4555 -117.94423,0 L 22.722016,307.76571 c -4.57903,-33.0337 115.414824,-33.02872 120.045464,0 l 89.65142,631.79044 99.02003,-216.13884 c 19.70668,-43.01532 151.30774,-42.87093 171.46493,0 l 101.62483,216.13884 98.45094,-631.79044 c 5.13872,-32.97679 124.87163,-33.00939 120.04546,0 z"
       id="path1625"
       sodipodi:nodetypes="sscsssscsscsss" />
  </g>
  <g
     id="g1739"
     transform="translate(-219.93614,-285.09966)">
    <path
       style="opacity:1"
       fill="#848484"
       d="m 618.5,874.5 c 0.07,3.925 -0.597,7.591 -2,11 -0.07,-3.925 0.597,-7.591 2,-11 z"
       id="path1737" />
  </g>
</svg>
