<?xml version="1.0" encoding="UTF-8" standalone="no"?>
<svg
   version="1.1"
   width="820px"
   height="1210px"
   style="shape-rendering:geometricPrecision; text-rendering:geometricPrecision; image-rendering:optimizeQuality; fill-rule:evenodd; clip-rule:evenodd"
   id="svg1818"
   sodipodi:docname="x.svg"
   inkscape:version="1.1.2 (0a00cf5339, 2022-02-04)"
   xmlns:inkscape="http://www.inkscape.org/namespaces/inkscape"
   xmlns:sodipodi="http://sodipodi.sourceforge.net/DTD/sodipodi-0.dtd"
   xmlns="http://www.w3.org/2000/svg"
   xmlns:svg="http://www.w3.org/2000/svg">
  <defs
     id="defs1822">
    <inkscape:path-effect
       effect="mirror_symmetry"
       start_point="113.5,703.57251"
       end_point="703.5,703.57251"
       center_point="408.5,703.57251"
       id="path-effect9608"
       is_visible="true"
       lpeversion="1.1"
       mode="Y"
       discard_orig_path="false"
       fuse_paths="true"
       oposite_fuse="true"
       split_items="false"
       split_open="false" />
    <inkscape:path-effect
       effect="mirror_symmetry"
       start_point="113.5,685.77"
       end_point="703.5,703.57"
       center_point="703.5,398.09498"
       id="path-effect8922"
       is_visible="true"
       lpeversion="1.1"
       mode="Y"
       discard_orig_path="false"
       fuse_paths="false"
       oposite_fuse="false"
       split_items="false"
       split_open="false" />
    <inkscape:path-effect
       effect="mirror_symmetry"
       start_point="408.5,130.43"
       end_point="408.5,1209.5"
       center_point="408.5,669.965"
       id="path-effect634"
       is_visible="true"
       lpeversion="1.1"
       mode="free"
       discard_orig_path="false"
       fuse_paths="false"
       oposite_fuse="false"
       split_items="false"
       split_open="false" />
  </defs>
  <sodipodi:namedview
     id="namedview1820"
     pagecolor="#ffffff"
     bordercolor="#000000"
     borderopacity="0.25"
     inkscape:showpageshadow="2"
     inkscape:pageopacity="0.0"
     inkscape:pagecheckerboard="0"
     inkscape:deskcolor="#d1d1d1"
     showgrid="false"
     inkscape:zoom="1"
     inkscape:cx="498"
     inkscape:cy="709"
     inkscape:window-width="1920"
     inkscape:window-height="1052"
     inkscape:window-x="0"
     inkscape:window-y="28"
     inkscape:window-maximized="1"
     inkscape:current-layer="g1812"
     inkscape:pageshadow="2" />
  <g
     id="g1812"
     transform="matrix(0.66777963,0,0,0.54256502,143.29225,223.2694)">
    <path
       style="opacity:1"
       fill="#000000"
       d="M 262.96484,129.86133 C 254.12459,129.69196 245.15198,131.29474 236.5,135 l -87.31055,87.31055 c -34.16581,23.17275 -42.32243,68.41109 -31.83984,105.91211 68.62656,125.62853 139.71757,250.15327 209.31445,375.34961 -69.59688,125.19633 -140.68789,249.72302 -209.31445,375.35153 -10.48259,37.501 -2.32597,82.7374 31.83984,105.9102 L 236.5,1272.1445 c 46.14387,19.7614 101.40253,-20.2601 97.11719,-70.1738 -1.62275,-39.2802 -39.24205,-60.0918 -60.86328,-88.7344 -17.38799,-10.1754 4.18096,-23.996 8.38671,-36.1914 C 323.5936,1007.9115 366.04703,938.778 408.5,869.64453 c 7.1e-4,-55.35609 9.5e-4,-110.71227 0.002,-166.06836 l -57.69531,-0.004 57.69531,-0.004 C 408.50095,648.21227 408.50071,592.85609 408.5,537.5 366.04703,468.36653 323.59359,399.23308 281.14062,330.09961 c -4.20575,-12.19536 -25.7747,-26.01401 -8.38671,-36.18945 21.62123,-28.64259 59.24053,-49.45615 60.86328,-88.73633 3.48184,-40.55492 -32.34459,-74.57859 -70.65235,-75.3125 z m 145.53729,573.70695 c 28.18343,-9e-5 56.36685,-1.9e-4 84.55028,-2.8e-4 68.73849,-125.16912 138.54447,-249.9036 206.59883,-375.34603 10.48259,-37.50102 2.32531,-82.73848 -31.8405,-105.91123 L 580.5,135 c -46.14387,-19.76137 -101.40214,20.26024 -97.1168,70.17398 1.62275,39.28018 39.24078,60.09271 60.86201,88.7353 17.38799,10.17544 -4.18055,23.99494 -8.38631,36.1903 C 493.40593,399.23305 450.95297,468.36653 408.5,537.5 c 7.1e-4,55.35609 10e-4,110.71219 0.002,166.06828 z m 0,0.008 c 28.18343,9e-5 56.36685,1.9e-4 84.55028,2.8e-4 68.73849,125.16912 138.54447,249.9036 206.59883,375.34598 10.48259,37.5011 2.32531,82.7385 -31.8405,105.9113 L 580.5,1272.145 c -46.14387,19.7614 -101.40214,-20.2602 -97.1168,-70.174 1.62275,-39.2801 39.24078,-60.0927 60.86201,-88.7353 17.38799,-10.1754 -4.18055,-23.9949 -8.38631,-36.1903 C 493.40593,1007.912 450.95297,938.77849 408.5,869.64502 c 7.1e-4,-55.35609 10e-4,-110.71219 0.002,-166.06828 z"
       id="path1810"
       sodipodi:nodetypes="cccccccccccccccccccccccc"
       inkscape:path-effect="#path-effect9608"
       inkscape:original-d="m 408.50213,703.56828 c -27.27921,0.002 -54.55843,0.004 -81.83764,0.006 C 257.06729,578.37735 185.97564,453.8511 117.34876,328.22197 106.86617,290.72095 115.02345,245.48349 149.18926,222.31074 178.29284,193.20716 207.39642,164.10358 236.5,135 c 46.14387,-19.76137 101.40214,20.26024 97.1168,70.17398 -1.62275,39.28018 -39.24078,60.09271 -60.86201,88.7353 -17.38799,10.17544 4.18055,23.99494 8.38631,36.1903 42.45297,69.13347 84.90593,138.26695 127.3589,207.40042 7.1e-4,55.35609 0.001,110.71219 0.002,166.06828 z m 0,0 c 28.18343,-9e-5 56.36685,-1.9e-4 84.55028,-2.8e-4 C 561.7909,578.39888 631.59688,453.6644 699.65124,328.22197 710.13383,290.72095 701.97655,245.48349 667.81074,222.31074 638.70716,193.20716 609.60358,164.10358 580.5,135 c -46.14387,-19.76137 -101.40214,20.26024 -97.1168,70.17398 1.62275,39.28018 39.24078,60.09271 60.86201,88.7353 17.38799,10.17544 -4.18055,23.99494 -8.38631,36.1903 C 493.40593,399.23305 450.95297,468.36653 408.5,537.5 c 7.1e-4,55.35609 0.001,110.71219 0.002,166.06828 z" />
  </g>
</svg>
