<?xml version="1.0" encoding="UTF-8" standalone="no"?>
<svg
   version="1.1"
   width="450"
   height="550"
   style="clip-rule:evenodd;fill-rule:evenodd;image-rendering:optimizeQuality;shape-rendering:geometricPrecision;text-rendering:geometricPrecision"
   id="svg1818"
   sodipodi:docname="x.svg"
   inkscape:version="1.1.2 (0a00cf5339, 2022-02-04)"
   xmlns:inkscape="http://www.inkscape.org/namespaces/inkscape"
   xmlns:sodipodi="http://sodipodi.sourceforge.net/DTD/sodipodi-0.dtd"
   xmlns="http://www.w3.org/2000/svg"
   xmlns:svg="http://www.w3.org/2000/svg">
  <defs
     id="defs1822">
    <inkscape:path-effect
       effect="mirror_symmetry"
       start_point="408.50195,129.58811"
       end_point="408.50195,1277.5559"
       center_point="408.50195,703.57201"
       id="path-effect1509"
       is_visible="true"
       lpeversion="1.1"
       mode="free"
       discard_orig_path="false"
       fuse_paths="false"
       oposite_fuse="false"
       split_items="false"
       split_open="false" />
    <inkscape:path-effect
       effect="mirror_symmetry"
       start_point="138.07945,703.57251"
       end_point="408.50213,703.57251"
       center_point="273.29079,703.57251"
       id="path-effect9608"
       is_visible="true"
       lpeversion="1.1"
       mode="Y"
       discard_orig_path="false"
       fuse_paths="true"
       oposite_fuse="true"
       split_items="false"
       split_open="false" />
    <inkscape:path-effect
       effect="mirror_symmetry"
       start_point="113.5,685.77"
       end_point="703.5,703.57"
       center_point="703.5,398.09498"
       id="path-effect8922"
       is_visible="true"
       lpeversion="1.1"
       mode="Y"
       discard_orig_path="false"
       fuse_paths="false"
       oposite_fuse="false"
       split_items="false"
       split_open="false" />
    <inkscape:path-effect
       effect="mirror_symmetry"
       start_point="408.5,130.43"
       end_point="408.5,1209.5"
       center_point="408.5,669.965"
       id="path-effect634"
       is_visible="true"
       lpeversion="1.1"
       mode="free"
       discard_orig_path="false"
       fuse_paths="false"
       oposite_fuse="false"
       split_items="false"
       split_open="false" />
  </defs>
  <sodipodi:namedview
     id="namedview1820"
     pagecolor="#ffffff"
     bordercolor="#000000"
     borderopacity="0.25"
     inkscape:showpageshadow="2"
     inkscape:pageopacity="0.0"
     inkscape:pagecheckerboard="0"
     inkscape:deskcolor="#d1d1d1"
     showgrid="false"
     inkscape:zoom="0.7071068"
     inkscape:cx="157.35092"
     inkscape:cy="214.926"
     inkscape:window-width="1920"
     inkscape:window-height="1011"
     inkscape:window-x="0"
     inkscape:window-y="32"
     inkscape:window-maximized="1"
     inkscape:current-layer="g3316"
     inkscape:pageshadow="2"
     inkscape:rotation="-2" />
  <g
     id="g1812"
     transform="matrix(0.66777963,0,0,0.54256502,-92.182719,-69.340598)">
    <g
       id="g3316">
      <path
         style="opacity:1"
         fill="#000000"
         d="M 261.34375,127.85352 C 252.73298,128.2186 244.25055,130.54189 236.5,135 c -38.81468,38.81468 -103.80091,76.50698 -98.06445,187.60547 3.28036,64.9333 123.43148,256.64152 188.22851,380.9668 -64.79703,124.32528 -184.94815,316.03543 -188.22851,380.96873 -5.73646,111.0985 59.24977,148.7889 98.06445,187.6035 41.33626,23.7766 103.48723,-13.1653 94.92188,-84.0898 -4.83907,-51.3781 -36.0202,-55.8726 -59.36719,-96.8828 1.43382,-59.2094 90.8314,-147.78609 136.44531,-221.52737 8e-4,-55.35605 7.8e-4,-110.71253 0.002,-166.06836 l -57.69531,-0.004 57.69531,-0.004 C 408.50078,648.21253 408.5008,592.85605 408.5,537.5 362.88609,463.75872 273.48851,375.18199 272.05469,315.97266 c 23.34699,-41.01021 54.52812,-45.5047 59.36719,-96.88282 6.95935,-57.62615 -32.76481,-92.81836 -70.07813,-91.23632 z m 294.3164,0 c 8.61077,0.36508 17.0932,2.68837 24.84375,7.14648 38.81468,38.81468 103.80091,76.50698 98.06445,187.60547 -3.28036,64.9333 -123.43148,256.64152 -188.22851,380.9668 64.79703,124.32528 184.94815,316.03543 188.22851,380.96873 5.73646,111.0985 -59.24977,148.7889 -98.06445,187.6035 -41.33626,23.7766 -103.48723,-13.1653 -94.92188,-84.0898 4.83907,-51.3781 36.0202,-55.8726 59.36719,-96.8828 -1.43382,-59.2094 -90.8314,-147.78609 -136.44531,-221.52737 -8e-4,-55.35605 -7.8e-4,-110.71253 -0.002,-166.06836 l 57.69531,-0.004 -57.69531,-0.004 c 0.001,-55.35583 0.001,-110.71231 0.002,-166.06836 45.61391,-73.74128 135.01149,-162.31801 136.44531,-221.52734 -23.34699,-41.01021 -54.52812,-45.5047 -59.36719,-96.88282 -6.95935,-57.62615 32.76481,-92.81836 70.07813,-91.23632 z"
         id="path1810"
         sodipodi:nodetypes="ccccccccc"
         inkscape:path-effect="#path-effect9608;#path-effect1509"
         inkscape:original-d="m 408.50213,703.56828 -81.83764,0.006 C 261.86768,579.24905 141.71555,387.53851 138.43517,322.6049 132.69871,211.50641 197.68532,173.81468 236.5,135 c 41.33626,-23.7766 103.4879,13.16524 94.92254,84.08974 -4.83907,51.37812 -36.02089,55.87248 -59.36788,96.88269 1.43382,59.20933 90.83143,147.78629 136.44534,221.52757 8e-4,55.35605 8.3e-4,110.71245 0.002,166.06828 z"
         transform="matrix(1.2459687,0,0,0.88030235,-33.999525,15.296761)" />
    </g>
  </g>
</svg>
