<?xml version="1.0" encoding="UTF-8" standalone="no"?>
<svg
   version="1.1"
   width="820px"
   height="1210px"
   style="shape-rendering:geometricPrecision; text-rendering:geometricPrecision; image-rendering:optimizeQuality; fill-rule:evenodd; clip-rule:evenodd"
   id="svg1818"
   sodipodi:docname="x.svg"
   inkscape:version="1.2.1 (0f2f062aeb, 2022-09-21, custom)"
   xmlns:inkscape="http://www.inkscape.org/namespaces/inkscape"
   xmlns:sodipodi="http://sodipodi.sourceforge.net/DTD/sodipodi-0.dtd"
   xmlns="http://www.w3.org/2000/svg"
   xmlns:svg="http://www.w3.org/2000/svg">
  <defs
     id="defs1822" />
  <sodipodi:namedview
     id="namedview1820"
     pagecolor="#ffffff"
     bordercolor="#000000"
     borderopacity="0.25"
     inkscape:showpageshadow="2"
     inkscape:pageopacity="0.0"
     inkscape:pagecheckerboard="0"
     inkscape:deskcolor="#d1d1d1"
     showgrid="false"
     inkscape:zoom="0.49555913"
     inkscape:cx="163.45174"
     inkscape:cy="659.86071"
     inkscape:window-width="1920"
     inkscape:window-height="1014"
     inkscape:window-x="0"
     inkscape:window-y="30"
     inkscape:window-maximized="1"
     inkscape:current-layer="svg1818" />
  <g
     id="g1812"
     transform="matrix(0.66777963,0,0,0.54256502,143.29225,223.2694)">
    <path
       style="opacity:1"
       fill="#000000"
       d="m 593.5,1209.5 c -19,0 -38,0 -57,0 -32.43,-18.53 -45.93,-46.53 -40.5,-84 3.914,-18.91 13.247,-34.58 28,-47 5.605,-8.6 12.272,-16.27 20,-23 2.667,-4 5.333,-8 8,-12 3.566,-3.57 7.066,-7.07 10.5,-10.5 C 511.802,953.637 460.302,874.804 408,796.5 c -10.559,14.903 -19.893,30.569 -28,47 -2.753,4.508 -5.753,8.841 -9,13 -2.865,9.401 -7.531,17.735 -14,25 -3.33,9.98 -8.33,18.98 -15,27 -4.134,10.942 -9.801,20.942 -17,30 -3.196,10.065 -8.196,19.065 -15,27 -3.33,9.98 -8.33,18.98 -15,27 -5.396,12.02 -11.562,23.52 -18.5,34.5 2.5,3.83 5.667,7 9.5,9.5 3.726,4.73 7.059,9.73 10,15 8.896,7.22 15.896,15.89 21,26 15.526,13.04 24.859,29.7 28,50 4.12,33.85 -7.047,61.19 -33.5,82 -24.667,0 -49.333,0 -74,0 -9.373,-7.55 -17.206,-16.55 -23.5,-27 -7.527,-6.75 -13.86,-14.41 -19,-23 -8.244,-7.82 -14.911,-16.15 -20,-25 -7.783,-6.45 -14.117,-14.12 -19,-23 -17.713,-16.09 -28.047,-36.09 -31,-60 -0.196,-7.25 -1.029,-14.42 -2.5,-21.5 2.685,-9.64 4.185,-19.48 4.5,-29.5 4.066,-9.931 6.399,-20.264 7,-31 3.863,-7.59 6.53,-15.59 8,-24 32.06,-47.729 63.726,-95.729 95,-144 3.802,-10.279 9.136,-19.612 16,-28 3.196,-10.065 8.196,-19.065 15,-27 3.718,-9.774 8.718,-18.774 15,-27 6.597,-13.583 13.597,-26.916 21,-40 4.481,-6.479 9.648,-12.312 15.5,-17.5 C 277.458,597.415 235.291,532.915 193,468.5 c -6.547,-18.428 -15.214,-35.761 -26,-52 -2.184,-3.366 -3.517,-7.033 -4,-11 -6.187,-7.202 -11.187,-15.202 -15,-24 -6.502,-6.991 -11.502,-14.991 -15,-24 -12.362,-13.742 -18.862,-29.909 -19.5,-48.5 1.279,-7.486 1.279,-14.986 0,-22.5 1.204,-24.41 11.37,-44.076 30.5,-59 5.246,-8.582 11.913,-15.915 20,-22 8,-9.333 16,-18.667 24,-28 4.366,-4.701 9.033,-9.034 14,-13 8.112,-13.778 19.612,-23.611 34.5,-29.5 37.58,-11.606 67.08,-1.106 88.5,31.5 16.455,36.403 9.455,67.403 -21,93 -2.333,3.333 -4.667,6.667 -7,10 -10.489,11.455 -21.322,22.622 -32.5,33.5 0.829,1.816 1.663,3.649 2.5,5.5 6.514,7.024 11.514,15.024 15,24 6.581,7.485 11.914,15.819 16,25 6.187,7.202 11.187,15.202 15,24 6.514,7.024 11.514,15.024 15,24 6.514,7.024 11.514,15.024 15,24 7.248,7.933 12.915,16.933 17,27 6.502,6.991 11.502,14.991 15,24 6.514,7.024 11.514,15.024 15,24 8.762,9.521 14.928,20.521 18.5,33 14.33,-21.175 28.496,-42.508 42.5,-64 3.156,-8.316 7.823,-15.649 14,-22 3.486,-8.976 8.486,-16.976 15,-24 3.486,-8.976 8.486,-16.976 15,-24 3.377,-9.362 8.377,-17.695 15,-25 3.813,-8.798 8.813,-16.798 15,-24 3.813,-8.798 8.813,-16.798 15,-24 4.662,-9.999 10.329,-19.333 17,-28 0.667,-1.333 0.667,-2.667 0,-4 -10.333,-10.667 -20.667,-21.333 -31,-32 -2.723,-3.057 -5.056,-6.39 -7,-10 -24.761,-20 -33.761,-45.667 -27,-77 8.205,-28.203 26.705,-45.37 55.5,-51.5 31.277,-3.813 55.444,7.353 72.5,33.5 7.424,5.422 13.424,12.088 18,20 8.087,6.085 14.754,13.418 20,22 7.755,5.753 14.089,12.753 19,21 19.13,14.924 29.296,34.59 30.5,59 -0.418,11.718 -0.918,23.385 -1.5,35 -2.3,13.933 -8.3,25.933 -18,36 -3.498,9.009 -8.498,17.009 -15,24 -3.498,9.009 -8.498,17.009 -15,24 -7.267,13.591 -14.934,26.925 -23,40 -2.667,3.333 -5.333,6.667 -8,10 -2.896,8.801 -7.563,16.467 -14,23 -4.085,10.067 -9.752,19.067 -17,27 -2.478,7.629 -6.478,14.296 -12,20 -2.06,5.12 -4.393,10.12 -7,15 -5.587,7.174 -9.587,15.174 -12,24 -22.909,34.575 -45.409,69.408 -67.5,104.5 10.001,11.797 19.667,23.964 29,36.5 13.801,9.972 23.634,22.972 29.5,39 6.606,8.207 11.94,17.207 16,27 6.208,7.08 10.875,15.08 14,24 7.11,7.877 12.443,16.877 16,27 3.385,3.717 6.385,7.717 9,12 2.722,7.782 6.722,14.782 12,21 4.558,10.374 10.225,20.04 17,29 3.187,8.929 7.853,16.929 14,24 7.681,14.032 15.348,28.032 23,42 6.606,8.207 11.94,17.207 16,27 9.493,11.324 15.493,24.324 18,39 0.54,12.28 1.04,24.62 1.5,37 -0.834,25.33 -11.001,46 -30.5,62 -4.523,8.86 -10.856,16.19 -19,22 -2.084,3.84 -4.417,7.5 -7,11 -10.315,11.25 -20.648,22.58 -31,34 -7.461,13.3 -17.961,23.3 -31.5,30 z"
       id="path1810" />
  </g>
</svg>
