<?xml version="1.0" encoding="UTF-8" standalone="no"?>
<svg
   version="1.1"
   width="820px"
   height="1210px"
   style="shape-rendering:geometricPrecision; text-rendering:geometricPrecision; image-rendering:optimizeQuality; fill-rule:evenodd; clip-rule:evenodd"
   id="svg1853"
   sodipodi:docname="y.svg"
   inkscape:version="1.1.2 (0a00cf5339, 2022-02-04)"
   xmlns:inkscape="http://www.inkscape.org/namespaces/inkscape"
   xmlns:sodipodi="http://sodipodi.sourceforge.net/DTD/sodipodi-0.dtd"
   xmlns="http://www.w3.org/2000/svg"
   xmlns:svg="http://www.w3.org/2000/svg">
  <defs
     id="defs1857" />
  <sodipodi:namedview
     id="namedview1855"
     pagecolor="#ffffff"
     bordercolor="#000000"
     borderopacity="0.25"
     inkscape:showpageshadow="2"
     inkscape:pageopacity="0.0"
     inkscape:pagecheckerboard="0"
     inkscape:deskcolor="#d1d1d1"
     showgrid="true"
     inkscape:zoom="0.70082644"
     inkscape:cx="776.22642"
     inkscape:cy="920.34199"
     inkscape:window-width="1920"
     inkscape:window-height="1052"
     inkscape:window-x="0"
     inkscape:window-y="28"
     inkscape:window-maximized="1"
     inkscape:current-layer="g1851"
     inkscape:pageshadow="2">
    <inkscape:grid
       type="xygrid"
       id="grid88" />
  </sodipodi:namedview>
  <g
     id="g1851"
     transform="matrix(0.51282051,0,0,0.48733387,196.39012,278.20629)">
    <path
       style="opacity:1"
       fill="#000000"
       d="m 717.5,70.5 c 58.6859,-10.949436 98.94128,54.2594 81.3405,105.63825 -32.05579,69.453 -74.09928,135.13077 -109.94952,203.15904 C 620.14768,503.30232 551.51726,627.36993 483,751.5 c -0.5,148.99938 1.62227,293.3297 1.78927,442.3298 -48.75,30.7797 -107.25,30.7797 -156,0 C 328.95627,1045.163 331.5,901.16604 331,752.5 228.9306,562.02492 126.59731,371.69125 24,181.5 8.3539584,127.60762 61.942962,66.234146 117.68627,89.11678 c 48.1927,22.98623 60.36725,82.38647 88.43365,124.15465 C 274.1422,341.00528 342.76978,468.41678 412,595.5 500.43897,434.06751 585.67312,270.73399 673.98411,109.3434 683.65488,91.412895 695.68199,73.94024 717.5,70.5 Z"
       id="path1849"
       sodipodi:nodetypes="ccccccccccccc" />
  </g>
</svg>
