<?xml version="1.0" encoding="UTF-8" standalone="no"?>
<svg
   version="1.1"
   width="820px"
   height="1210px"
   style="shape-rendering:geometricPrecision; text-rendering:geometricPrecision; image-rendering:optimizeQuality; fill-rule:evenodd; clip-rule:evenodd"
   id="svg1853"
   sodipodi:docname="y.svg"
   inkscape:version="1.2.1 (0f2f062aeb, 2022-09-21, custom)"
   xmlns:inkscape="http://www.inkscape.org/namespaces/inkscape"
   xmlns:sodipodi="http://sodipodi.sourceforge.net/DTD/sodipodi-0.dtd"
   xmlns="http://www.w3.org/2000/svg"
   xmlns:svg="http://www.w3.org/2000/svg">
  <defs
     id="defs1857" />
  <sodipodi:namedview
     id="namedview1855"
     pagecolor="#ffffff"
     bordercolor="#000000"
     borderopacity="0.25"
     inkscape:showpageshadow="2"
     inkscape:pageopacity="0.0"
     inkscape:pagecheckerboard="0"
     inkscape:deskcolor="#d1d1d1"
     showgrid="false"
     inkscape:zoom="0.35041322"
     inkscape:cx="1090.1415"
     inkscape:cy="936.03774"
     inkscape:window-width="1920"
     inkscape:window-height="1014"
     inkscape:window-x="0"
     inkscape:window-y="30"
     inkscape:window-maximized="1"
     inkscape:current-layer="svg1853" />
  <g
     id="g1851"
     transform="matrix(0.51282051,0,0,0.48733387,196.39012,278.20629)">
    <path
       style="opacity:1"
       fill="#000000"
       d="m 717.5,70.5 c 30.52,-3.3158 54.687,7.3508 72.5,32 6.441,10.989 10.274,22.822 11.5,35.5 -0.077,10.016 -0.077,20.016 0,30 -2.046,5.351 -3.546,10.851 -4.5,16.5 -104.92,188.839 -209.587,377.839 -314,567 -0.5,149 -0.667,298 -0.5,447 -50.333,0 -100.667,0 -151,0 0.167,-148.67 0,-297.334 -0.5,-446 C 228.921,562.007 126.588,371.674 24,181.5 c -0.5069,-6.708 -1.3403,-13.375 -2.5,-20 2.6393,-10.893 4.806,-21.893 6.5,-33 12.9074,-27.72 34.7407,-42.3862 65.5,-44 23.098,0.9661 41.932,10.2994 56.5,28 6.206,10.413 11.872,21.079 17,32 2.843,5.019 6.176,9.686 10,14 77.556,146.113 155.889,291.779 235,437 86.459,-159.253 172.126,-318.919 257,-479 6.805,-9.445 12.972,-19.2786 18.5,-29.5 4.954,-3.2853 9.62,-6.952 14,-11 5.344,-2.1591 10.677,-3.9924 16,-5.5 z"
       id="path1849" />
  </g>
</svg>
