<?xml version="1.0" encoding="UTF-8" standalone="no"?>
<svg
   version="1.1"
   width="820px"
   height="1210px"
   style="shape-rendering:geometricPrecision; text-rendering:geometricPrecision; image-rendering:optimizeQuality; fill-rule:evenodd; clip-rule:evenodd"
   id="svg1888"
   sodipodi:docname="z.svg"
   inkscape:version="1.2.1 (0f2f062aeb, 2022-09-21, custom)"
   xmlns:inkscape="http://www.inkscape.org/namespaces/inkscape"
   xmlns:sodipodi="http://sodipodi.sourceforge.net/DTD/sodipodi-0.dtd"
   xmlns="http://www.w3.org/2000/svg"
   xmlns:svg="http://www.w3.org/2000/svg">
  <defs
     id="defs1892" />
  <sodipodi:namedview
     id="namedview1890"
     pagecolor="#ffffff"
     bordercolor="#000000"
     borderopacity="0.25"
     inkscape:showpageshadow="2"
     inkscape:pageopacity="0.0"
     inkscape:pagecheckerboard="0"
     inkscape:deskcolor="#d1d1d1"
     showgrid="false"
     inkscape:zoom="0.35041322"
     inkscape:cx="293.93868"
     inkscape:cy="664.92924"
     inkscape:window-width="1920"
     inkscape:window-height="1014"
     inkscape:window-x="0"
     inkscape:window-y="30"
     inkscape:window-maximized="1"
     inkscape:current-layer="svg1888" />
  <g
     id="g1886"
     transform="matrix(0.50943092,0,0,0.47258968,201.65399,251.41495)">
    <path
       style="opacity:1"
       fill="#000000"
       d="m 791.5,1209.5 c -242,0 -484,0 -726,0 0.0429,-42.93 0.0429,-85.09 0,-126.5 0.8129,-6.42 1.3129,-12.92 1.5,-19.5 0.8624,-1.59 1.5291,-3.25 2,-5 C 246.5,805.667 424,552.833 601.5,300 c -162,-0.333 -324,-0.667 -486,-1 -10.479,-3.322 -21.1459,-4.155 -32,-2.5 -7.5322,-2.033 -15.1989,-3.2 -23,-3.5 -33.3243,-10.972 -51.3243,-33.972 -54,-69 4.1001,-41.436 26.7667,-65.436 68,-72 226.667,-0.667 453.333,-0.667 680,0 5.333,2 10.667,4 16,6 11.251,5.432 18.084,14.265 20.5,26.5 0.363,33.42 0.529,65.254 0.5,95.5 0.983,11.55 -1.851,22.05 -8.5,31.5 -177.028,250.195 -353.861,500.528 -530.5,751 176.666,0.83 353.332,1.33 530,1.5 3.999,0.67 6.832,2.83 8.5,6.5 0.5,46.33 0.667,92.67 0.5,139 z"
       id="path1884" />
  </g>
</svg>
