<?xml version="1.0" encoding="UTF-8" standalone="no"?>
<svg
   version="1.1"
   width="400"
   height="550"
   style="clip-rule:evenodd;fill-rule:evenodd;image-rendering:optimizeQuality;shape-rendering:geometricPrecision;text-rendering:geometricPrecision"
   id="svg1888"
   sodipodi:docname="z.svg"
   inkscape:version="1.1.2 (0a00cf5339, 2022-02-04)"
   xmlns:inkscape="http://www.inkscape.org/namespaces/inkscape"
   xmlns:sodipodi="http://sodipodi.sourceforge.net/DTD/sodipodi-0.dtd"
   xmlns="http://www.w3.org/2000/svg"
   xmlns:svg="http://www.w3.org/2000/svg">
  <defs
     id="defs1892" />
  <sodipodi:namedview
     id="namedview1890"
     pagecolor="#ffffff"
     bordercolor="#000000"
     borderopacity="0.25"
     inkscape:showpageshadow="2"
     inkscape:pageopacity="0.0"
     inkscape:pagecheckerboard="0"
     inkscape:deskcolor="#d1d1d1"
     showgrid="false"
     inkscape:zoom="0.70082642"
     inkscape:cx="-79.19222"
     inkscape:cy="478.00709"
     inkscape:window-width="1920"
     inkscape:window-height="1011"
     inkscape:window-x="0"
     inkscape:window-y="32"
     inkscape:window-maximized="1"
     inkscape:current-layer="g3295"
     inkscape:pageshadow="2"
     width="400px">
    <inkscape:grid
       type="xygrid"
       id="grid1100"
       originx="-222.62871"
       originy="-323.23402" />
  </sodipodi:namedview>
  <g
     id="g1886"
     transform="matrix(0.50943092,0,0,0.47258968,-20.974716,-71.819071)"
     style="fill:#000000" />
  <g
     id="rect2732"
     transform="translate(-222.62871,-323.23402)">
    <g
       id="g3295"
       transform="matrix(0.93692576,0,0,1.1071611,14.042136,-34.638129)">
      <path
         style="clip-rule:evenodd;opacity:1;fill:#000000;fill-rule:evenodd;stroke-width:0.492931;image-rendering:optimizeQuality;shape-rendering:geometricPrecision;text-rendering:geometricPrecision"
         fill="#000000"
         d="M 631.96638,820.00002 H 280.53129 c -26.64221,0 -56.32649,-47.20896 -40.37042,-68.34889 L 553.26296,393.19185 240.16087,392.71926 c -23.37621,-0.0353 -23.37624,-69.48615 0,-69.48522 l 366.41458,0.0145 c 21.98766,9.5e-4 53.60789,35.38737 39.46208,52.37199 l -314.75527,377.92091 300.68412,0.70889 c 22.11945,0.0521 22.11952,65.74965 0,65.74965 z"
         id="path1884"
         sodipodi:nodetypes="ssscsssscss" />
    </g>
    <path
       style="color:#000000;clip-rule:nonzero;fill:#000000;fill-opacity:0;fill-rule:nonzero;-inkscape-stroke:none;shape-rendering:auto"
       d="m 223.55859,517.49609 v 16.00196 63.99804 h 430 v -80 z m 32,32.00196 h 365.99805 v 15.99804 H 255.55859 Z"
       id="path2897" />
  </g>
</svg>
